<ttFont>
    <TTGlyph name="A" xMin="8" yMin="0" xMax="628" yMax="732">
      <contour>
        <pt x="418" y="643" on="1"/>
        <pt x="412" y="670" on="1"/>
        <pt x="410" y="664" on="0"/>
        <pt x="402" y="648" on="0"/>
        <pt x="399" y="643" on="1"/>
        <pt x="357" y="564" on="0"/>
        <pt x="271" y="413" on="0"/>
        <pt x="226" y="335" on="1"/>
        <pt x="504" y="335" on="1"/>
        <pt x="483" y="413" on="0"/>
        <pt x="440" y="565" on="0"/>
      </contour>
      <contour>
        <pt x="628" y="0" on="1"/>
        <pt x="600" y="0" on="1"/>
        <pt x="577" y="77" on="0"/>
        <pt x="535" y="231" on="0"/>
        <pt x="512" y="308" on="1"/>
        <pt x="210" y="308" on="1"/>
        <pt x="167" y="231" on="0"/>
        <pt x="81" y="77" on="0"/>
        <pt x="37" y="0" on="1"/>
        <pt x="8" y="0" on="1"/>
        <pt x="111" y="184" on="0"/>
        <pt x="318" y="548" on="0"/>
        <pt x="421" y="732" on="1"/>
      </contour>
    </TTGlyph>
    <TTGlyph name="AE" xMin="10" yMin="0" xMax="734" yMax="700">
      <contour>
        <pt x="356" y="333" on="1"/>
        <pt x="399" y="642" on="1"/>
        <pt x="360" y="563" on="0"/>
        <pt x="270" y="411" on="0"/>
        <pt x="227" y="333" on="1"/>
      </contour>
      <contour>
        <pt x="10" y="0" on="1"/>
        <pt x="110" y="176" on="0"/>
        <pt x="305" y="524" on="0"/>
        <pt x="405" y="700" on="1"/>
        <pt x="734" y="700" on="1"/>
        <pt x="730" y="673" on="1"/>
        <pt x="432" y="673" on="1"/>
        <pt x="388" y="366" on="1"/>
        <pt x="648" y="366" on="1"/>
        <pt x="644" y="339" on="1"/>
        <pt x="385" y="339" on="1"/>
        <pt x="340" y="27" on="1"/>
        <pt x="653" y="27" on="1"/>
        <pt x="649" y="0" on="1"/>
        <pt x="309" y="0" on="1"/>
        <pt x="352" y="306" on="1"/>
        <pt x="212" y="306" on="1"/>
        <pt x="168" y="229" on="0"/>
        <pt x="83" y="77" on="0"/>
        <pt x="39" y="0" on="1"/>
      </contour>
    </TTGlyph>
    <TTGlyph name="Aacute" xMin="8" yMin="0" xMax="628" yMax="883">
      <component glyphName="A" x="0" y="0" flags="0x204"/>
      <component glyphName="acute" x="319" y="271" flags="0x4"/>
    </TTGlyph>
    <TTGlyph name="Acircumflex" xMin="8" yMin="0" xMax="628" yMax="931">
      <component glyphName="A" x="0" y="0" flags="0x204"/>
      <component glyphName="asciicircum" x="204" y="271" flags="0x4"/>
    </TTGlyph>
    <TTGlyph name="Adieresis" xMin="8" yMin="0" xMax="628" yMax="821">
      <component glyphName="A" x="0" y="0" flags="0x204"/>
      <component glyphName="dieresis" x="247" y="290" flags="0x4"/>
    </TTGlyph>
    <TTGlyph name="Agrave" xMin="8" yMin="0" xMax="628" yMax="883">
      <component glyphName="A" x="0" y="0" flags="0x204"/>
      <component glyphName="grave" x="347" y="271" flags="0x4"/>
    </TTGlyph>
    <TTGlyph name="Aring" xMin="8" yMin="0" xMax="628" yMax="903">
      <contour>
        <pt x="394" y="835" on="1"/>
        <pt x="392" y="816" on="0"/>
        <pt x="415" y="789" on="0"/>
        <pt x="433" y="789" on="1"/>
        <pt x="452" y="789" on="0"/>
        <pt x="483" y="816" on="0"/>
        <pt x="486" y="835" on="1"/>
        <pt x="488" y="853" on="0"/>
        <pt x="464" y="880" on="0"/>
        <pt x="446" y="880" on="1"/>
        <pt x="427" y="880" on="0"/>
        <pt x="396" y="853" on="0"/>
      </contour>
      <contour>
        <pt x="372" y="835" on="1"/>
        <pt x="376" y="864" on="0"/>
        <pt x="420" y="903" on="0"/>
        <pt x="449" y="903" on="1"/>
        <pt x="478" y="903" on="0"/>
        <pt x="512" y="864" on="0"/>
        <pt x="508" y="835" on="1"/>
        <pt x="503" y="806" on="0"/>
        <pt x="459" y="767" on="0"/>
        <pt x="430" y="767" on="1"/>
        <pt x="401" y="767" on="0"/>
        <pt x="367" y="806" on="0"/>
      </contour>
      <contour>
        <pt x="418" y="643" on="1"/>
        <pt x="412" y="670" on="1"/>
        <pt x="410" y="664" on="0"/>
        <pt x="402" y="648" on="0"/>
        <pt x="399" y="643" on="1"/>
        <pt x="357" y="564" on="0"/>
        <pt x="271" y="413" on="0"/>
        <pt x="226" y="335" on="1"/>
        <pt x="504" y="335" on="1"/>
        <pt x="483" y="413" on="0"/>
        <pt x="440" y="565" on="0"/>
      </contour>
      <contour>
        <pt x="628" y="0" on="1"/>
        <pt x="600" y="0" on="1"/>
        <pt x="577" y="77" on="0"/>
        <pt x="535" y="231" on="0"/>
        <pt x="512" y="308" on="1"/>
        <pt x="210" y="308" on="1"/>
        <pt x="167" y="231" on="0"/>
        <pt x="81" y="77" on="0"/>
        <pt x="37" y="0" on="1"/>
        <pt x="8" y="0" on="1"/>
        <pt x="111" y="184" on="0"/>
        <pt x="318" y="548" on="0"/>
        <pt x="421" y="732" on="1"/>
      </contour>
    </TTGlyph>
    <TTGlyph name="Atilde" xMin="8" yMin="0" xMax="628" yMax="834">
      <component glyphName="A" x="0" y="0" flags="0x204"/>
      <component glyphName="asciitilde" x="155" y="291" flags="0x4"/>
    </TTGlyph>
    <TTGlyph name="B" xMin="29" yMin="0" xMax="469" yMax="700">
      <contour>
        <pt x="152" y="673" on="1"/>
        <pt x="108" y="365" on="1"/>
        <pt x="248" y="365" on="1"/>
        <pt x="285" y="365" on="0"/>
        <pt x="349" y="388" on="0"/>
        <pt x="397" y="430" on="0"/>
        <pt x="429" y="489" on="0"/>
        <pt x="434" y="525" on="1"/>
        <pt x="439" y="565" on="0"/>
        <pt x="422" y="621" on="0"/>
        <pt x="383" y="657" on="0"/>
        <pt x="324" y="673" on="0"/>
        <pt x="287" y="673" on="1"/>
      </contour>
      <contour>
        <pt x="105" y="338" on="1"/>
        <pt x="60" y="27" on="1"/>
        <pt x="201" y="27" on="1"/>
        <pt x="240" y="27" on="0"/>
        <pt x="311" y="46" on="0"/>
        <pt x="368" y="84" on="0"/>
        <pt x="407" y="142" on="0"/>
        <pt x="412" y="180" on="1"/>
        <pt x="417" y="217" on="0"/>
        <pt x="400" y="269" on="0"/>
        <pt x="366" y="304" on="0"/>
        <pt x="322" y="324" on="0"/>
        <pt x="278" y="335" on="0"/>
        <pt x="238" y="338" on="0"/>
        <pt x="227" y="338" on="1"/>
      </contour>
      <contour>
        <pt x="29" y="0" on="1"/>
        <pt x="128" y="700" on="1"/>
        <pt x="280" y="700" on="1"/>
        <pt x="326" y="700" on="0"/>
        <pt x="400" y="680" on="0"/>
        <pt x="448" y="638" on="0"/>
        <pt x="469" y="571" on="0"/>
        <pt x="462" y="525" on="1"/>
        <pt x="454" y="463" on="0"/>
        <pt x="378" y="369" on="0"/>
        <pt x="312" y="352" on="1"/>
        <pt x="341" y="346" on="0"/>
        <pt x="392" y="318" on="0"/>
        <pt x="428" y="274" on="0"/>
        <pt x="445" y="216" on="0"/>
        <pt x="440" y="180" on="1"/>
        <pt x="434" y="135" on="0"/>
        <pt x="388" y="68" on="0"/>
        <pt x="322" y="23" on="0"/>
        <pt x="241" y="0" on="0"/>
        <pt x="199" y="0" on="1"/>
      </contour>
    </TTGlyph>
    <TTGlyph name="C" xMin="51" yMin="-8" xMax="645" yMax="708">
      <contour>
        <pt x="544" y="65" on="1"/>
        <pt x="557" y="42" on="1"/>
        <pt x="514" y="19" on="0"/>
        <pt x="419" y="-8" on="0"/>
        <pt x="368" y="-8" on="1"/>
        <pt x="294" y="-8" on="0"/>
        <pt x="172" y="48" on="0"/>
        <pt x="89" y="145" on="0"/>
        <pt x="51" y="275" on="0"/>
        <pt x="61" y="349" on="1"/>
        <pt x="71" y="423" on="0"/>
        <pt x="146" y="554" on="0"/>
        <pt x="257" y="651" on="0"/>
        <pt x="395" y="708" on="0"/>
        <pt x="469" y="708" on="1"/>
        <pt x="520" y="708" on="0"/>
        <pt x="607" y="682" on="0"/>
        <pt x="645" y="658" on="1"/>
        <pt x="640" y="652" on="0"/>
        <pt x="631" y="641" on="0"/>
        <pt x="626" y="635" on="1"/>
        <pt x="557" y="681" on="0"/>
        <pt x="465" y="681" on="1"/>
        <pt x="397" y="681" on="0"/>
        <pt x="270" y="628" on="0"/>
        <pt x="168" y="538" on="0"/>
        <pt x="99" y="417" on="0"/>
        <pt x="89" y="348" on="1"/>
        <pt x="80" y="280" on="0"/>
        <pt x="114" y="160" on="0"/>
        <pt x="191" y="71" on="0"/>
        <pt x="302" y="19" on="0"/>
        <pt x="369" y="19" on="1"/>
        <pt x="416" y="19" on="0"/>
        <pt x="504" y="43" on="0"/>
      </contour>
    </TTGlyph>
    <TTGlyph name="Ccedilla" xMin="66" yMin="-228" xMax="660" yMax="708">
      <contour>
        <pt x="560" y="65" on="1"/>
        <pt x="572" y="42" on="1"/>
        <pt x="530" y="19" on="0"/>
        <pt x="436" y="-7" on="0"/>
        <pt x="386" y="-8" on="1"/>
        <pt x="385" y="-21" on="0"/>
        <pt x="391" y="-37" on="0"/>
        <pt x="401" y="-49" on="0"/>
        <pt x="414" y="-57" on="0"/>
        <pt x="420" y="-61" on="1"/>
        <pt x="440" y="-76" on="0"/>
        <pt x="454" y="-114" on="0"/>
        <pt x="452" y="-130" on="1"/>
        <pt x="444" y="-180" on="0"/>
        <pt x="387" y="-228" on="0"/>
        <pt x="350" y="-228" on="1"/>
        <pt x="322" y="-228" on="0"/>
        <pt x="279" y="-198" on="0"/>
        <pt x="273" y="-167" on="1"/>
        <pt x="278" y="-165" on="0"/>
        <pt x="290" y="-161" on="0"/>
        <pt x="295" y="-159" on="1"/>
        <pt x="298" y="-179" on="0"/>
        <pt x="328" y="-205" on="0"/>
        <pt x="352" y="-205" on="1"/>
        <pt x="381" y="-205" on="0"/>
        <pt x="422" y="-165" on="0"/>
        <pt x="427" y="-136" on="1"/>
        <pt x="431" y="-110" on="0"/>
        <pt x="410" y="-81" on="0"/>
        <pt x="383" y="-60" on="0"/>
        <pt x="360" y="-39" on="0"/>
        <pt x="363" y="-20" on="1"/>
        <pt x="365" y="-7" on="1"/>
        <pt x="294" y="-4" on="0"/>
        <pt x="179" y="55" on="0"/>
        <pt x="101" y="151" on="0"/>
        <pt x="66" y="277" on="0"/>
        <pt x="76" y="349" on="1"/>
        <pt x="86" y="423" on="0"/>
        <pt x="161" y="554" on="0"/>
        <pt x="272" y="651" on="0"/>
        <pt x="410" y="708" on="0"/>
        <pt x="484" y="708" on="1"/>
        <pt x="535" y="708" on="0"/>
        <pt x="622" y="682" on="0"/>
        <pt x="660" y="658" on="1"/>
        <pt x="655" y="652" on="0"/>
        <pt x="646" y="641" on="0"/>
        <pt x="641" y="635" on="1"/>
        <pt x="608" y="658" on="0"/>
        <pt x="526" y="681" on="0"/>
        <pt x="481" y="681" on="1"/>
        <pt x="413" y="681" on="0"/>
        <pt x="285" y="628" on="0"/>
        <pt x="183" y="538" on="0"/>
        <pt x="114" y="417" on="0"/>
        <pt x="104" y="348" on="1"/>
        <pt x="95" y="280" on="0"/>
        <pt x="129" y="160" on="0"/>
        <pt x="206" y="71" on="0"/>
        <pt x="317" y="19" on="0"/>
        <pt x="385" y="19" on="1"/>
        <pt x="431" y="19" on="0"/>
        <pt x="519" y="43" on="0"/>
      </contour>
    </TTGlyph>
    <TTGlyph name="D" xMin="31" yMin="0" xMax="586" yMax="700">
      <contour>
        <pt x="130" y="700" on="1"/>
        <pt x="272" y="700" on="1"/>
        <pt x="344" y="700" on="0"/>
        <pt x="465" y="651" on="0"/>
        <pt x="548" y="560" on="0"/>
        <pt x="586" y="430" on="0"/>
        <pt x="575" y="350" on="1"/>
        <pt x="566" y="287" on="0"/>
        <pt x="510" y="162" on="0"/>
        <pt x="405" y="62" on="0"/>
        <pt x="248" y="0" on="0"/>
        <pt x="139" y="0" on="1"/>
        <pt x="31" y="0" on="1"/>
      </contour>
      <contour>
        <pt x="154" y="673" on="1"/>
        <pt x="131" y="511" on="0"/>
        <pt x="86" y="190" on="0"/>
        <pt x="63" y="28" on="1"/>
        <pt x="155" y="28" on="1"/>
        <pt x="248" y="28" on="0"/>
        <pt x="388" y="84" on="0"/>
        <pt x="485" y="174" on="0"/>
        <pt x="540" y="290" on="0"/>
        <pt x="548" y="350" on="1"/>
        <pt x="558" y="424" on="0"/>
        <pt x="523" y="544" on="0"/>
        <pt x="447" y="628" on="0"/>
        <pt x="337" y="673" on="0"/>
        <pt x="271" y="673" on="1"/>
      </contour>
    </TTGlyph>
    <TTGlyph name="E" xMin="40" yMin="0" xMax="549" yMax="700">
      <contour>
        <pt x="40" y="0" on="1"/>
        <pt x="139" y="700" on="1"/>
        <pt x="549" y="700" on="1"/>
        <pt x="545" y="673" on="1"/>
        <pt x="163" y="673" on="1"/>
        <pt x="119" y="366" on="1"/>
        <pt x="463" y="366" on="1"/>
        <pt x="459" y="339" on="1"/>
        <pt x="116" y="339" on="1"/>
        <pt x="71" y="27" on="1"/>
        <pt x="468" y="27" on="1"/>
        <pt x="464" y="0" on="1"/>
      </contour>
    </TTGlyph>
    <TTGlyph name="Eacute" xMin="40" yMin="0" xMax="549" yMax="883">
      <component glyphName="E" x="0" y="0" flags="0x204"/>
      <component glyphName="acute" x="226" y="271" flags="0x4"/>
    </TTGlyph>
    <TTGlyph name="Ecircumflex" xMin="40" yMin="0" xMax="549" yMax="931">
      <component glyphName="E" x="0" y="0" flags="0x204"/>
      <component glyphName="asciicircum" x="144" y="271" flags="0x4"/>
    </TTGlyph>
    <TTGlyph name="Edieresis" xMin="40" yMin="0" xMax="549" yMax="821">
      <component glyphName="E" x="0" y="0" flags="0x204"/>
      <component glyphName="dieresis" x="174" y="290" flags="0x4"/>
    </TTGlyph>
    <TTGlyph name="Egrave" xMin="40" yMin="0" xMax="549" yMax="883">
      <component glyphName="E" x="0" y="0" flags="0x204"/>
      <component glyphName="grave" x="264" y="271" flags="0x4"/>
    </TTGlyph>
    <TTGlyph name="Eth" xMin="20" yMin="0" xMax="592" yMax="700">
      <contour>
        <pt x="107" y="339" on="1"/>
        <pt x="62" y="27" on="1"/>
        <pt x="157" y="27" on="1"/>
        <pt x="234" y="27" on="0"/>
        <pt x="369" y="71" on="0"/>
        <pt x="474" y="154" on="0"/>
        <pt x="543" y="274" on="0"/>
        <pt x="554" y="350" on="1"/>
        <pt x="564" y="424" on="0"/>
        <pt x="530" y="544" on="0"/>
        <pt x="450" y="628" on="0"/>
        <pt x="327" y="673" on="0"/>
        <pt x="249" y="673" on="1"/>
        <pt x="154" y="673" on="1"/>
        <pt x="110" y="366" on="1"/>
        <pt x="326" y="366" on="1"/>
        <pt x="322" y="339" on="1"/>
      </contour>
      <contour>
        <pt x="83" y="366" on="1"/>
        <pt x="130" y="700" on="1"/>
        <pt x="270" y="700" on="1"/>
        <pt x="343" y="700" on="0"/>
        <pt x="467" y="651" on="0"/>
        <pt x="553" y="560" on="0"/>
        <pt x="592" y="430" on="0"/>
        <pt x="581" y="350" on="1"/>
        <pt x="572" y="287" on="0"/>
        <pt x="515" y="162" on="0"/>
        <pt x="408" y="62" on="0"/>
        <pt x="247" y="0" on="0"/>
        <pt x="136" y="0" on="1"/>
        <pt x="31" y="0" on="1"/>
        <pt x="79" y="339" on="1"/>
        <pt x="20" y="339" on="1"/>
        <pt x="24" y="366" on="1"/>
      </contour>
    </TTGlyph>
    <TTGlyph name="F" xMin="40" yMin="0" xMax="549" yMax="700">
      <contour>
        <pt x="40" y="0" on="1"/>
        <pt x="139" y="700" on="1"/>
        <pt x="549" y="700" on="1"/>
        <pt x="545" y="673" on="1"/>
        <pt x="163" y="673" on="1"/>
        <pt x="119" y="366" on="1"/>
        <pt x="463" y="366" on="1"/>
        <pt x="459" y="339" on="1"/>
        <pt x="116" y="339" on="1"/>
        <pt x="68" y="0" on="1"/>
      </contour>
    </TTGlyph>
    <TTGlyph name="G" xMin="51" yMin="-8" xMax="645" yMax="708">
      <contour>
        <pt x="404" y="273" on="1"/>
        <pt x="407" y="300" on="1"/>
        <pt x="537" y="300" on="1"/>
        <pt x="567" y="300" on="0"/>
        <pt x="591" y="281" on="0"/>
        <pt x="587" y="252" on="1"/>
        <pt x="557" y="42" on="1"/>
        <pt x="514" y="19" on="0"/>
        <pt x="419" y="-8" on="0"/>
        <pt x="368" y="-8" on="1"/>
        <pt x="294" y="-8" on="0"/>
        <pt x="172" y="48" on="0"/>
        <pt x="89" y="145" on="0"/>
        <pt x="51" y="275" on="0"/>
        <pt x="61" y="349" on="1"/>
        <pt x="71" y="423" on="0"/>
        <pt x="146" y="554" on="0"/>
        <pt x="257" y="651" on="0"/>
        <pt x="395" y="708" on="0"/>
        <pt x="469" y="708" on="1"/>
        <pt x="520" y="708" on="0"/>
        <pt x="607" y="682" on="0"/>
        <pt x="645" y="658" on="1"/>
        <pt x="640" y="652" on="0"/>
        <pt x="631" y="641" on="0"/>
        <pt x="626" y="635" on="1"/>
        <pt x="557" y="681" on="0"/>
        <pt x="465" y="681" on="1"/>
        <pt x="397" y="681" on="0"/>
        <pt x="270" y="628" on="0"/>
        <pt x="168" y="538" on="0"/>
        <pt x="99" y="417" on="0"/>
        <pt x="89" y="348" on="1"/>
        <pt x="80" y="280" on="0"/>
        <pt x="114" y="160" on="0"/>
        <pt x="191" y="71" on="0"/>
        <pt x="302" y="19" on="0"/>
        <pt x="369" y="19" on="1"/>
        <pt x="454" y="19" on="0"/>
        <pt x="531" y="59" on="1"/>
        <pt x="550" y="192" on="1"/>
        <pt x="558" y="249" on="1"/>
        <pt x="560" y="260" on="0"/>
        <pt x="550" y="273" on="0"/>
        <pt x="534" y="273" on="1"/>
      </contour>
    </TTGlyph>
    <TTGlyph name="H" xMin="49" yMin="0" xMax="653" yMax="700">
      <contour>
        <pt x="49" y="0" on="1"/>
        <pt x="148" y="700" on="1"/>
        <pt x="176" y="700" on="1"/>
        <pt x="128" y="366" on="1"/>
        <pt x="575" y="366" on="1"/>
        <pt x="622" y="700" on="1"/>
        <pt x="653" y="700" on="1"/>
        <pt x="628" y="524" on="0"/>
        <pt x="577" y="176" on="0"/>
        <pt x="551" y="0" on="1"/>
        <pt x="523" y="0" on="1"/>
        <pt x="571" y="339" on="1"/>
        <pt x="125" y="339" on="1"/>
        <pt x="77" y="0" on="1"/>
      </contour>
    </TTGlyph>
    <TTGlyph name="I" xMin="55" yMin="0" xMax="182" yMax="700">
      <contour>
        <pt x="154" y="700" on="1"/>
        <pt x="182" y="700" on="1"/>
        <pt x="83" y="0" on="1"/>
        <pt x="55" y="0" on="1"/>
      </contour>
    </TTGlyph>
    <TTGlyph name="Iacute" xMin="55" yMin="0" xMax="295" yMax="883">
      <component glyphName="I" x="0" y="0" flags="0x4"/>
      <component glyphName="acute" x="66" y="271" flags="0x4"/>
    </TTGlyph>
    <TTGlyph name="Icircumflex" xMin="55" yMin="0" xMax="298" yMax="931">
      <component glyphName="I" x="0" y="0" flags="0x4"/>
      <component glyphName="asciicircum" x="-41" y="271" flags="0x4"/>
    </TTGlyph>
    <TTGlyph name="Idieresis" xMin="55" yMin="0" xMax="282" yMax="821">
      <component glyphName="I" x="0" y="0" flags="0x4"/>
      <component glyphName="dieresis" x="-13" y="290" flags="0x4"/>
    </TTGlyph>
    <TTGlyph name="Igrave" xMin="55" yMin="0" xMax="182" yMax="883">
      <component glyphName="I" x="0" y="0" flags="0x4"/>
      <component glyphName="grave" x="92" y="271" flags="0x4"/>
    </TTGlyph>
    <TTGlyph name="J" xMin="-41" yMin="-142" xMax="273" yMax="700">
      <contour>
        <pt x="-41" y="-142" on="1"/>
        <pt x="-37" y="-115" on="1"/>
        <pt x="-1" y="-113" on="0"/>
        <pt x="64" y="-84" on="0"/>
        <pt x="116" y="-31" on="0"/>
        <pt x="152" y="45" on="0"/>
        <pt x="159" y="93" on="1"/>
        <pt x="245" y="700" on="1"/>
        <pt x="273" y="700" on="1"/>
        <pt x="187" y="90" on="1"/>
        <pt x="179" y="34" on="0"/>
        <pt x="136" y="-51" on="0"/>
        <pt x="75" y="-109" on="0"/>
        <pt x="-1" y="-141" on="0"/>
      </contour>
    </TTGlyph>
    <TTGlyph name="K" xMin="22" yMin="0" xMax="555" yMax="700">
      <contour>
        <pt x="498" y="0" on="1"/>
        <pt x="462" y="0" on="1"/>
        <pt x="397" y="102" on="0"/>
        <pt x="267" y="302" on="0"/>
        <pt x="201" y="404" on="1"/>
        <pt x="174" y="381" on="0"/>
        <pt x="120" y="337" on="0"/>
        <pt x="93" y="314" on="1"/>
        <pt x="82" y="235" on="0"/>
        <pt x="61" y="78" on="0"/>
        <pt x="50" y="0" on="1"/>
        <pt x="22" y="0" on="1"/>
        <pt x="121" y="700" on="1"/>
        <pt x="149" y="700" on="1"/>
        <pt x="102" y="373" on="1"/>
        <pt x="101" y="365" on="0"/>
        <pt x="98" y="352" on="0"/>
        <pt x="97" y="344" on="1"/>
        <pt x="117" y="364" on="1"/>
        <pt x="217" y="449" on="0"/>
        <pt x="416" y="615" on="0"/>
        <pt x="517" y="700" on="1"/>
        <pt x="555" y="700" on="1"/>
        <pt x="471" y="630" on="0"/>
        <pt x="307" y="492" on="0"/>
        <pt x="224" y="422" on="1"/>
        <pt x="293" y="316" on="0"/>
        <pt x="429" y="106" on="0"/>
      </contour>
    </TTGlyph>
    <TTGlyph name="L" xMin="40" yMin="0" xMax="468" yMax="700">
      <contour>
        <pt x="40" y="0" on="1"/>
        <pt x="139" y="700" on="1"/>
        <pt x="167" y="700" on="1"/>
        <pt x="71" y="27" on="1"/>
        <pt x="468" y="27" on="1"/>
        <pt x="464" y="0" on="1"/>
      </contour>
    </TTGlyph>
    <TTGlyph name="M" xMin="48" yMin="0" xMax="883" yMax="732">
      <contour>
        <pt x="151" y="732" on="1"/>
        <pt x="226" y="613" on="0"/>
        <pt x="375" y="376" on="0"/>
        <pt x="450" y="257" on="1"/>
        <pt x="559" y="376" on="0"/>
        <pt x="774" y="613" on="0"/>
        <pt x="883" y="732" on="1"/>
        <pt x="780" y="0" on="1"/>
        <pt x="752" y="0" on="1"/>
        <pt x="813" y="438" on="1"/>
        <pt x="838" y="610" on="1"/>
        <pt x="840" y="621" on="0"/>
        <pt x="843" y="641" on="0"/>
        <pt x="845" y="652" on="1"/>
        <pt x="745" y="539" on="0"/>
        <pt x="545" y="319" on="0"/>
        <pt x="443" y="207" on="1"/>
        <pt x="387" y="298" on="0"/>
        <pt x="277" y="474" on="0"/>
        <pt x="220" y="565" on="1"/>
        <pt x="175" y="637" on="1"/>
        <pt x="166" y="652" on="1"/>
        <pt x="164" y="641" on="0"/>
        <pt x="164" y="621" on="0"/>
        <pt x="162" y="610" on="1"/>
        <pt x="76" y="0" on="1"/>
        <pt x="48" y="0" on="1"/>
      </contour>
    </TTGlyph>
    <TTGlyph name="N" xMin="50" yMin="-32" xMax="760" yMax="732">
      <contour>
        <pt x="760" y="700" on="1"/>
        <pt x="657" y="-32" on="1"/>
        <pt x="538" y="136" on="0"/>
        <pt x="302" y="469" on="0"/>
        <pt x="183" y="638" on="1"/>
        <pt x="180" y="645" on="0"/>
        <pt x="172" y="657" on="0"/>
        <pt x="168" y="664" on="1"/>
        <pt x="168" y="656" on="0"/>
        <pt x="167" y="640" on="0"/>
        <pt x="167" y="632" on="1"/>
        <pt x="78" y="0" on="1"/>
        <pt x="50" y="0" on="1"/>
        <pt x="153" y="732" on="1"/>
        <pt x="272" y="561" on="0"/>
        <pt x="507" y="228" on="0"/>
        <pt x="625" y="58" on="1"/>
        <pt x="629" y="51" on="0"/>
        <pt x="637" y="39" on="0"/>
        <pt x="641" y="32" on="1"/>
        <pt x="641" y="40" on="0"/>
        <pt x="642" y="56" on="0"/>
        <pt x="642" y="64" on="1"/>
        <pt x="732" y="700" on="1"/>
      </contour>
    </TTGlyph>
    <TTGlyph name="Ntilde" xMin="50" yMin="-32" xMax="760" yMax="836">
      <component glyphName="N" x="0" y="0" flags="0x204"/>
      <component glyphName="asciitilde" x="204" y="293" flags="0x4"/>
    </TTGlyph>
    <TTGlyph name="O" xMin="51" yMin="-8" xMax="787" yMax="708">
      <contour>
        <pt x="61" y="349" on="1"/>
        <pt x="71" y="423" on="0"/>
        <pt x="146" y="554" on="0"/>
        <pt x="257" y="651" on="0"/>
        <pt x="395" y="708" on="0"/>
        <pt x="469" y="708" on="1"/>
        <pt x="543" y="708" on="0"/>
        <pt x="666" y="651" on="0"/>
        <pt x="750" y="554" on="0"/>
        <pt x="787" y="423" on="0"/>
        <pt x="777" y="349" on="1"/>
        <pt x="767" y="275" on="0"/>
        <pt x="692" y="145" on="0"/>
        <pt x="581" y="48" on="0"/>
        <pt x="442" y="-8" on="0"/>
        <pt x="368" y="-8" on="1"/>
        <pt x="294" y="-8" on="0"/>
        <pt x="172" y="48" on="0"/>
        <pt x="89" y="145" on="0"/>
        <pt x="51" y="275" on="0"/>
      </contour>
      <contour>
        <pt x="89" y="348" on="1"/>
        <pt x="80" y="280" on="0"/>
        <pt x="114" y="160" on="0"/>
        <pt x="191" y="71" on="0"/>
        <pt x="302" y="19" on="0"/>
        <pt x="370" y="19" on="1"/>
        <pt x="438" y="19" on="0"/>
        <pt x="567" y="71" on="0"/>
        <pt x="670" y="161" on="0"/>
        <pt x="740" y="281" on="0"/>
        <pt x="749" y="349" on="1"/>
        <pt x="759" y="417" on="0"/>
        <pt x="724" y="538" on="0"/>
        <pt x="646" y="628" on="0"/>
        <pt x="533" y="681" on="0"/>
        <pt x="465" y="681" on="1"/>
        <pt x="397" y="681" on="0"/>
        <pt x="270" y="628" on="0"/>
        <pt x="168" y="538" on="0"/>
        <pt x="99" y="417" on="0"/>
      </contour>
    </TTGlyph>
    <TTGlyph name="Oacute" xMin="51" yMin="-8" xMax="787" yMax="883">
      <component glyphName="O" x="0" y="0" flags="0x204"/>
      <component glyphName="acute" x="378" y="271" flags="0x4"/>
    </TTGlyph>
    <TTGlyph name="Ocircumflex" xMin="51" yMin="-8" xMax="787" yMax="931">
      <component glyphName="O" x="0" y="0" flags="0x4"/>
      <component glyphName="asciicircum" x="259" y="271" flags="0x4"/>
    </TTGlyph>
    <TTGlyph name="Odieresis" xMin="51" yMin="-8" xMax="787" yMax="821">
      <component glyphName="O" x="0" y="0" flags="0x4"/>
      <component glyphName="dieresis" x="287" y="290" flags="0x4"/>
    </TTGlyph>
    <TTGlyph name="Ograve" xMin="51" yMin="-8" xMax="787" yMax="883">
      <component glyphName="O" x="0" y="0" flags="0x4"/>
      <component glyphName="grave" x="390" y="271" flags="0x4"/>
    </TTGlyph>
    <TTGlyph name="Oslash" xMin="50" yMin="-10" xMax="788" yMax="710">
      <contour>
        <pt x="89" y="348" on="1"/>
        <pt x="79" y="276" on="0"/>
        <pt x="116" y="154" on="0"/>
        <pt x="158" y="109" on="1"/>
        <pt x="283" y="237" on="0"/>
        <pt x="528" y="486" on="0"/>
        <pt x="653" y="614" on="1"/>
        <pt x="616" y="646" on="0"/>
        <pt x="521" y="681" on="0"/>
        <pt x="465" y="681" on="1"/>
        <pt x="397" y="681" on="0"/>
        <pt x="270" y="628" on="0"/>
        <pt x="168" y="538" on="0"/>
        <pt x="99" y="417" on="0"/>
      </contour>
      <contour>
        <pt x="369" y="19" on="1"/>
        <pt x="438" y="19" on="0"/>
        <pt x="566" y="71" on="0"/>
        <pt x="670" y="161" on="0"/>
        <pt x="740" y="281" on="0"/>
        <pt x="749" y="349" on="1"/>
        <pt x="760" y="424" on="0"/>
        <pt x="716" y="552" on="0"/>
        <pt x="670" y="598" on="1"/>
        <pt x="545" y="471" on="0"/>
        <pt x="299" y="220" on="0"/>
        <pt x="175" y="93" on="1"/>
        <pt x="212" y="58" on="0"/>
        <pt x="310" y="19" on="0"/>
      </contour>
      <contour>
        <pt x="61" y="349" on="1"/>
        <pt x="71" y="423" on="0"/>
        <pt x="146" y="554" on="0"/>
        <pt x="257" y="651" on="0"/>
        <pt x="395" y="708" on="0"/>
        <pt x="469" y="708" on="1"/>
        <pt x="530" y="708" on="0"/>
        <pt x="634" y="670" on="0"/>
        <pt x="674" y="635" on="1"/>
        <pt x="693" y="654" on="0"/>
        <pt x="729" y="691" on="0"/>
        <pt x="748" y="710" on="1"/>
        <pt x="755" y="701" on="0"/>
        <pt x="764" y="694" on="1"/>
        <pt x="745" y="675" on="0"/>
        <pt x="710" y="639" on="0"/>
        <pt x="691" y="620" on="1"/>
        <pt x="742" y="570" on="0"/>
        <pt x="788" y="430" on="0"/>
        <pt x="777" y="349" on="1"/>
        <pt x="767" y="275" on="0"/>
        <pt x="692" y="145" on="0"/>
        <pt x="581" y="48" on="0"/>
        <pt x="442" y="-8" on="0"/>
        <pt x="368" y="-8" on="1"/>
        <pt x="304" y="-8" on="0"/>
        <pt x="196" y="34" on="0"/>
        <pt x="154" y="72" on="1"/>
        <pt x="134" y="52" on="0"/>
        <pt x="94" y="10" on="0"/>
        <pt x="74" y="-10" on="1"/>
        <pt x="70" y="-5" on="0"/>
        <pt x="62" y="2" on="0"/>
        <pt x="57" y="7" on="1"/>
        <pt x="77" y="27" on="0"/>
        <pt x="117" y="69" on="0"/>
        <pt x="138" y="89" on="1"/>
        <pt x="92" y="137" on="0"/>
        <pt x="50" y="271" on="0"/>
      </contour>
    </TTGlyph>
    <TTGlyph name="Otilde" xMin="51" yMin="-8" xMax="787" yMax="870">
      <component glyphName="O" x="0" y="0" flags="0x4"/>
      <component glyphName="asciitilde" x="197" y="327" flags="0x4"/>
    </TTGlyph>
    <TTGlyph name="P" xMin="29" yMin="0" xMax="462" yMax="700">
      <contour>
        <pt x="108" y="362" on="1"/>
        <pt x="217" y="362" on="1"/>
        <pt x="272" y="362" on="0"/>
        <pt x="349" y="392" on="0"/>
        <pt x="398" y="439" on="0"/>
        <pt x="424" y="494" on="0"/>
        <pt x="427" y="520" on="1"/>
        <pt x="431" y="550" on="0"/>
        <pt x="410" y="606" on="0"/>
        <pt x="366" y="648" on="0"/>
        <pt x="302" y="673" on="0"/>
        <pt x="262" y="673" on="1"/>
        <pt x="152" y="673" on="1"/>
      </contour>
      <contour>
        <pt x="29" y="0" on="1"/>
        <pt x="128" y="700" on="1"/>
        <pt x="273" y="700" on="1"/>
        <pt x="303" y="700" on="0"/>
        <pt x="372" y="680" on="0"/>
        <pt x="429" y="637" on="0"/>
        <pt x="462" y="568" on="0"/>
        <pt x="455" y="520" on="1"/>
        <pt x="443" y="435" on="0"/>
        <pt x="318" y="335" on="0"/>
        <pt x="215" y="335" on="1"/>
        <pt x="104" y="335" on="1"/>
        <pt x="57" y="0" on="1"/>
      </contour>
    </TTGlyph>
    <TTGlyph name="Q" xMin="51" yMin="-8" xMax="787" yMax="708">
      <contour>
        <pt x="89" y="348" on="1"/>
        <pt x="80" y="280" on="0"/>
        <pt x="114" y="160" on="0"/>
        <pt x="191" y="71" on="0"/>
        <pt x="302" y="19" on="0"/>
        <pt x="369" y="19" on="1"/>
        <pt x="438" y="19" on="0"/>
        <pt x="566" y="71" on="0"/>
        <pt x="670" y="161" on="0"/>
        <pt x="740" y="281" on="0"/>
        <pt x="749" y="349" on="1"/>
        <pt x="759" y="417" on="0"/>
        <pt x="724" y="538" on="0"/>
        <pt x="646" y="628" on="0"/>
        <pt x="533" y="681" on="0"/>
        <pt x="465" y="681" on="1"/>
        <pt x="397" y="681" on="0"/>
        <pt x="270" y="628" on="0"/>
        <pt x="168" y="538" on="0"/>
        <pt x="99" y="417" on="0"/>
      </contour>
      <contour>
        <pt x="61" y="349" on="1"/>
        <pt x="71" y="423" on="0"/>
        <pt x="146" y="554" on="0"/>
        <pt x="257" y="651" on="0"/>
        <pt x="395" y="708" on="0"/>
        <pt x="469" y="708" on="1"/>
        <pt x="543" y="708" on="0"/>
        <pt x="666" y="651" on="0"/>
        <pt x="750" y="554" on="0"/>
        <pt x="787" y="423" on="0"/>
        <pt x="777" y="349" on="1"/>
        <pt x="769" y="295" on="0"/>
        <pt x="724" y="195" on="0"/>
        <pt x="656" y="112" on="0"/>
        <pt x="568" y="47" on="0"/>
        <pt x="519" y="27" on="1"/>
        <pt x="754" y="27" on="1"/>
        <pt x="750" y="0" on="1"/>
        <pt x="443" y="0" on="1"/>
        <pt x="405" y="-8" on="0"/>
        <pt x="368" y="-8" on="1"/>
        <pt x="294" y="-8" on="0"/>
        <pt x="172" y="48" on="0"/>
        <pt x="89" y="145" on="0"/>
        <pt x="51" y="275" on="0"/>
      </contour>
    </TTGlyph>
    <TTGlyph name="R" xMin="29" yMin="0" xMax="462" yMax="700">
      <contour>
        <pt x="108" y="362" on="1"/>
        <pt x="217" y="362" on="1"/>
        <pt x="272" y="362" on="0"/>
        <pt x="349" y="392" on="0"/>
        <pt x="398" y="439" on="0"/>
        <pt x="424" y="494" on="0"/>
        <pt x="427" y="520" on="1"/>
        <pt x="431" y="550" on="0"/>
        <pt x="410" y="606" on="0"/>
        <pt x="366" y="648" on="0"/>
        <pt x="302" y="673" on="0"/>
        <pt x="262" y="673" on="1"/>
        <pt x="152" y="673" on="1"/>
      </contour>
      <contour>
        <pt x="29" y="0" on="1"/>
        <pt x="128" y="700" on="1"/>
        <pt x="273" y="700" on="1"/>
        <pt x="303" y="700" on="0"/>
        <pt x="372" y="680" on="0"/>
        <pt x="429" y="637" on="0"/>
        <pt x="462" y="568" on="0"/>
        <pt x="455" y="520" on="1"/>
        <pt x="445" y="449" on="0"/>
        <pt x="354" y="355" on="0"/>
        <pt x="278" y="340" on="1"/>
        <pt x="307" y="255" on="0"/>
        <pt x="362" y="85" on="0"/>
        <pt x="391" y="0" on="1"/>
        <pt x="361" y="0" on="1"/>
        <pt x="332" y="85" on="0"/>
        <pt x="276" y="253" on="0"/>
        <pt x="249" y="338" on="1"/>
        <pt x="228" y="335" on="0"/>
        <pt x="207" y="335" on="1"/>
        <pt x="104" y="335" on="1"/>
        <pt x="57" y="0" on="1"/>
      </contour>
    </TTGlyph>
    <TTGlyph name="S" xMin="36" yMin="-8" xMax="468" yMax="704">
      <contour>
        <pt x="467" y="644" on="1"/>
        <pt x="462" y="639" on="0"/>
        <pt x="454" y="628" on="0"/>
        <pt x="449" y="623" on="1"/>
        <pt x="441" y="631" on="0"/>
        <pt x="418" y="650" on="0"/>
        <pt x="386" y="666" on="0"/>
        <pt x="343" y="677" on="0"/>
        <pt x="316" y="677" on="1"/>
        <pt x="279" y="677" on="0"/>
        <pt x="220" y="651" on="0"/>
        <pt x="177" y="609" on="0"/>
        <pt x="151" y="555" on="0"/>
        <pt x="147" y="527" on="1"/>
        <pt x="143" y="497" on="0"/>
        <pt x="155" y="455" on="0"/>
        <pt x="185" y="425" on="0"/>
        <pt x="230" y="402" on="0"/>
        <pt x="258" y="392" on="1"/>
        <pt x="288" y="381" on="0"/>
        <pt x="364" y="356" on="0"/>
        <pt x="429" y="311" on="0"/>
        <pt x="468" y="241" on="0"/>
        <pt x="461" y="186" on="1"/>
        <pt x="455" y="142" on="0"/>
        <pt x="411" y="70" on="0"/>
        <pt x="346" y="19" on="0"/>
        <pt x="265" y="-8" on="0"/>
        <pt x="222" y="-8" on="1"/>
        <pt x="183" y="-8" on="0"/>
        <pt x="121" y="13" on="0"/>
        <pt x="75" y="42" on="0"/>
        <pt x="44" y="73" on="0"/>
        <pt x="36" y="84" on="1"/>
        <pt x="57" y="103" on="1"/>
        <pt x="70" y="88" on="0"/>
        <pt x="101" y="58" on="0"/>
        <pt x="141" y="34" on="0"/>
        <pt x="191" y="19" on="0"/>
        <pt x="223" y="19" on="1"/>
        <pt x="259" y="19" on="0"/>
        <pt x="329" y="43" on="0"/>
        <pt x="387" y="86" on="0"/>
        <pt x="427" y="146" on="0"/>
        <pt x="432" y="183" on="1"/>
        <pt x="439" y="229" on="0"/>
        <pt x="408" y="290" on="0"/>
        <pt x="352" y="330" on="0"/>
        <pt x="283" y="354" on="0"/>
        <pt x="252" y="364" on="1"/>
        <pt x="230" y="372" on="0"/>
        <pt x="180" y="394" on="0"/>
        <pt x="139" y="428" on="0"/>
        <pt x="115" y="479" on="0"/>
        <pt x="118" y="517" on="1"/>
        <pt x="121" y="550" on="0"/>
        <pt x="149" y="617" on="0"/>
        <pt x="200" y="671" on="0"/>
        <pt x="274" y="704" on="0"/>
        <pt x="322" y="704" on="1"/>
        <pt x="360" y="704" on="0"/>
        <pt x="432" y="678" on="0"/>
      </contour>
    </TTGlyph>
    <TTGlyph name="T" xMin="45" yMin="0" xMax="602" yMax="700">
      <contour>
        <pt x="602" y="700" on="1"/>
        <pt x="598" y="673" on="1"/>
        <pt x="335" y="673" on="1"/>
        <pt x="240" y="0" on="1"/>
        <pt x="212" y="0" on="1"/>
        <pt x="308" y="673" on="1"/>
        <pt x="45" y="673" on="1"/>
        <pt x="49" y="700" on="1"/>
      </contour>
    </TTGlyph>
    <TTGlyph name="Thorn" xMin="50" yMin="0" xMax="459" yMax="700">
      <contour>
        <pt x="106" y="197" on="1"/>
        <pt x="215" y="197" on="1"/>
        <pt x="270" y="197" on="0"/>
        <pt x="347" y="227" on="0"/>
        <pt x="396" y="274" on="0"/>
        <pt x="421" y="329" on="0"/>
        <pt x="424" y="355" on="1"/>
        <pt x="428" y="385" on="0"/>
        <pt x="408" y="441" on="0"/>
        <pt x="364" y="483" on="0"/>
        <pt x="300" y="508" on="0"/>
        <pt x="260" y="508" on="1"/>
        <pt x="150" y="508" on="1"/>
      </contour>
      <contour>
        <pt x="78" y="0" on="1"/>
        <pt x="50" y="0" on="1"/>
        <pt x="149" y="700" on="1"/>
        <pt x="177" y="700" on="1"/>
        <pt x="154" y="535" on="1"/>
        <pt x="271" y="535" on="1"/>
        <pt x="301" y="535" on="0"/>
        <pt x="370" y="515" on="0"/>
        <pt x="426" y="472" on="0"/>
        <pt x="459" y="403" on="0"/>
        <pt x="452" y="355" on="1"/>
        <pt x="441" y="270" on="0"/>
        <pt x="316" y="170" on="0"/>
        <pt x="213" y="170" on="1"/>
        <pt x="102" y="170" on="1"/>
      </contour>
    </TTGlyph>
    <TTGlyph name="U" xMin="72" yMin="-8" xMax="607" yMax="700">
      <contour>
        <pt x="277" y="-8" on="1"/>
        <pt x="227" y="-8" on="0"/>
        <pt x="147" y="22" on="0"/>
        <pt x="94" y="81" on="0"/>
        <pt x="72" y="169" on="0"/>
        <pt x="80" y="226" on="1"/>
        <pt x="146" y="700" on="1"/>
        <pt x="174" y="700" on="1"/>
        <pt x="108" y="229" on="1"/>
        <pt x="101" y="178" on="0"/>
        <pt x="120" y="100" on="0"/>
        <pt x="166" y="47" on="0"/>
        <pt x="237" y="19" on="0"/>
        <pt x="281" y="19" on="1"/>
        <pt x="324" y="19" on="0"/>
        <pt x="403" y="47" on="0"/>
        <pt x="464" y="100" on="0"/>
        <pt x="506" y="178" on="0"/>
        <pt x="513" y="229" on="1"/>
        <pt x="579" y="700" on="1"/>
        <pt x="607" y="700" on="1"/>
        <pt x="541" y="226" on="1"/>
        <pt x="533" y="169" on="0"/>
        <pt x="485" y="81" on="0"/>
        <pt x="414" y="22" on="0"/>
        <pt x="326" y="-8" on="0"/>
      </contour>
    </TTGlyph>
    <TTGlyph name="Uacute" xMin="74" yMin="-8" xMax="609" yMax="883">
      <component glyphName="U" x="2" y="0" flags="0x204"/>
      <component glyphName="acute" x="274" y="271" flags="0x4"/>
    </TTGlyph>
    <TTGlyph name="Ucircumflex" xMin="74" yMin="-8" xMax="609" yMax="932">
      <component glyphName="U" x="2" y="0" flags="0x204"/>
      <component glyphName="asciicircum" x="167" y="272" flags="0x4"/>
    </TTGlyph>
    <TTGlyph name="Udieresis" xMin="74" yMin="-8" xMax="609" yMax="821">
      <component glyphName="U" x="2" y="0" flags="0x204"/>
      <component glyphName="dieresis" x="212" y="290" flags="0x4"/>
    </TTGlyph>
    <TTGlyph name="Ugrave" xMin="74" yMin="-8" xMax="609" yMax="883">
      <component glyphName="U" x="2" y="0" flags="0x204"/>
      <component glyphName="grave" x="295" y="271" flags="0x4"/>
    </TTGlyph>
    <TTGlyph name="V" xMin="105" yMin="-32" xMax="725" yMax="700">
      <contour>
        <pt x="696" y="700" on="1"/>
        <pt x="725" y="700" on="1"/>
        <pt x="622" y="516" on="0"/>
        <pt x="415" y="152" on="0"/>
        <pt x="312" y="-32" on="1"/>
        <pt x="105" y="700" on="1"/>
        <pt x="134" y="700" on="1"/>
        <pt x="179" y="539" on="0"/>
        <pt x="270" y="218" on="0"/>
        <pt x="316" y="57" on="1"/>
        <pt x="317" y="50" on="0"/>
        <pt x="319" y="37" on="0"/>
        <pt x="321" y="30" on="1"/>
        <pt x="324" y="37" on="0"/>
        <pt x="330" y="50" on="0"/>
        <pt x="334" y="57" on="1"/>
        <pt x="425" y="218" on="0"/>
        <pt x="605" y="539" on="0"/>
      </contour>
    </TTGlyph>
    <TTGlyph name="W" xMin="105" yMin="-32" xMax="1097" yMax="700">
      <contour>
        <pt x="1069" y="700" on="1"/>
        <pt x="1097" y="700" on="1"/>
        <pt x="994" y="516" on="0"/>
        <pt x="787" y="152" on="0"/>
        <pt x="684" y="-32" on="1"/>
        <pt x="566" y="385" on="1"/>
        <pt x="564" y="391" on="0"/>
        <pt x="562" y="404" on="0"/>
        <pt x="560" y="410" on="1"/>
        <pt x="501" y="299" on="0"/>
        <pt x="375" y="78" on="0"/>
        <pt x="312" y="-32" on="1"/>
        <pt x="105" y="700" on="1"/>
        <pt x="134" y="700" on="1"/>
        <pt x="179" y="539" on="0"/>
        <pt x="268" y="218" on="0"/>
        <pt x="316" y="57" on="1"/>
        <pt x="317" y="50" on="0"/>
        <pt x="319" y="37" on="0"/>
        <pt x="321" y="30" on="1"/>
        <pt x="372" y="135" on="0"/>
        <pt x="493" y="338" on="0"/>
        <pt x="550" y="441" on="1"/>
        <pt x="531" y="507" on="0"/>
        <pt x="496" y="634" on="0"/>
        <pt x="477" y="700" on="1"/>
        <pt x="506" y="700" on="1"/>
        <pt x="551" y="539" on="0"/>
        <pt x="640" y="218" on="0"/>
        <pt x="688" y="57" on="1"/>
        <pt x="690" y="50" on="0"/>
        <pt x="691" y="37" on="0"/>
        <pt x="693" y="30" on="1"/>
        <pt x="696" y="37" on="0"/>
        <pt x="703" y="50" on="0"/>
        <pt x="706" y="57" on="1"/>
        <pt x="797" y="218" on="0"/>
        <pt x="978" y="539" on="0"/>
      </contour>
    </TTGlyph>
    <TTGlyph name="X" xMin="43" yMin="0" xMax="631" yMax="700">
      <contour>
        <pt x="324" y="359" on="1"/>
        <pt x="281" y="445" on="0"/>
        <pt x="195" y="615" on="0"/>
        <pt x="152" y="700" on="1"/>
        <pt x="185" y="700" on="1"/>
        <pt x="224" y="623" on="0"/>
        <pt x="302" y="471" on="0"/>
        <pt x="341" y="395" on="1"/>
        <pt x="343" y="391" on="0"/>
        <pt x="346" y="383" on="0"/>
        <pt x="348" y="379" on="1"/>
        <pt x="351" y="383" on="0"/>
        <pt x="356" y="391" on="0"/>
        <pt x="359" y="395" on="1"/>
        <pt x="419" y="471" on="0"/>
        <pt x="538" y="623" on="0"/>
        <pt x="598" y="700" on="1"/>
        <pt x="631" y="700" on="1"/>
        <pt x="361" y="355" on="1"/>
        <pt x="406" y="265" on="0"/>
        <pt x="497" y="90" on="0"/>
        <pt x="542" y="0" on="1"/>
        <pt x="508" y="0" on="1"/>
        <pt x="367" y="275" on="1"/>
        <pt x="359" y="289" on="0"/>
        <pt x="345" y="322" on="0"/>
        <pt x="337" y="336" on="1"/>
        <pt x="332" y="327" on="0"/>
        <pt x="326" y="320" on="1"/>
        <pt x="263" y="239" on="0"/>
        <pt x="139" y="81" on="0"/>
        <pt x="76" y="0" on="1"/>
        <pt x="43" y="0" on="1"/>
        <pt x="114" y="91" on="0"/>
        <pt x="253" y="269" on="0"/>
      </contour>
    </TTGlyph>
    <TTGlyph name="Y" xMin="90" yMin="0" xMax="643" yMax="700">
      <contour>
        <pt x="321" y="263" on="1"/>
        <pt x="284" y="0" on="1"/>
        <pt x="252" y="0" on="1"/>
        <pt x="289" y="264" on="1"/>
        <pt x="239" y="373" on="0"/>
        <pt x="140" y="591" on="0"/>
        <pt x="90" y="700" on="1"/>
        <pt x="124" y="700" on="1"/>
        <pt x="168" y="603" on="0"/>
        <pt x="257" y="411" on="0"/>
        <pt x="300" y="314" on="1"/>
        <pt x="309" y="287" on="1"/>
        <pt x="310" y="287" on="1"/>
        <pt x="314" y="294" on="0"/>
        <pt x="320" y="307" on="0"/>
        <pt x="324" y="314" on="1"/>
        <pt x="396" y="411" on="0"/>
        <pt x="537" y="603" on="0"/>
        <pt x="609" y="700" on="1"/>
        <pt x="643" y="700" on="1"/>
        <pt x="562" y="590" on="0"/>
        <pt x="402" y="373" on="0"/>
      </contour>
    </TTGlyph>
    <TTGlyph name="Yacute" xMin="90" yMin="0" xMax="643" yMax="883">
      <component glyphName="Y" x="0" y="0" flags="0x204"/>
      <component glyphName="acute" x="269" y="271" flags="0x4"/>
    </TTGlyph>
    <TTGlyph name="Z" xMin="81" yMin="0" xMax="709" yMax="735">
      <contour>
        <pt x="255" y="700" on="1"/>
        <pt x="709" y="700" on="1"/>
        <pt x="705" y="673" on="1"/>
        <pt x="558" y="511" on="0"/>
        <pt x="268" y="189" on="0"/>
        <pt x="120" y="27" on="1"/>
        <pt x="643" y="27" on="1"/>
        <pt x="640" y="0" on="1"/>
        <pt x="81" y="0" on="1"/>
        <pt x="84" y="27" on="1"/>
        <pt x="231" y="189" on="0"/>
        <pt x="521" y="511" on="0"/>
        <pt x="669" y="673" on="1"/>
        <pt x="255" y="673" on="1"/>
        <pt x="224" y="673" on="0"/>
        <pt x="195" y="693" on="0"/>
        <pt x="199" y="722" on="1"/>
        <pt x="201" y="735" on="1"/>
        <pt x="230" y="735" on="1"/>
        <pt x="228" y="723" on="1"/>
        <pt x="226" y="712" on="0"/>
        <pt x="238" y="700" on="0"/>
      </contour>
    </TTGlyph>
    <TTGlyph name="a" xMin="69" yMin="-7" xMax="492" yMax="383">
      <contour>
        <pt x="103" y="188" on="1"/>
        <pt x="98" y="153" on="0"/>
        <pt x="115" y="92" on="0"/>
        <pt x="154" y="47" on="0"/>
        <pt x="212" y="21" on="0"/>
        <pt x="247" y="21" on="1"/>
        <pt x="282" y="21" on="0"/>
        <pt x="347" y="47" on="0"/>
        <pt x="399" y="92" on="0"/>
        <pt x="434" y="153" on="0"/>
        <pt x="439" y="188" on="1"/>
        <pt x="444" y="223" on="0"/>
        <pt x="426" y="284" on="0"/>
        <pt x="387" y="330" on="0"/>
        <pt x="329" y="356" on="0"/>
        <pt x="294" y="356" on="1"/>
        <pt x="259" y="356" on="0"/>
        <pt x="194" y="330" on="0"/>
        <pt x="142" y="284" on="0"/>
        <pt x="108" y="223" on="0"/>
      </contour>
      <contour>
        <pt x="75" y="188" on="1"/>
        <pt x="81" y="231" on="0"/>
        <pt x="122" y="303" on="0"/>
        <pt x="182" y="355" on="0"/>
        <pt x="257" y="383" on="0"/>
        <pt x="297" y="383" on="1"/>
        <pt x="327" y="383" on="0"/>
        <pt x="379" y="366" on="0"/>
        <pt x="419" y="336" on="0"/>
        <pt x="447" y="296" on="0"/>
        <pt x="453" y="274" on="1"/>
        <pt x="456" y="299" on="0"/>
        <pt x="466" y="349" on="0"/>
        <pt x="471" y="375" on="1"/>
        <pt x="492" y="375" on="1"/>
        <pt x="440" y="0" on="1"/>
        <pt x="415" y="0" on="1"/>
        <pt x="421" y="50" on="1"/>
        <pt x="423" y="63" on="0"/>
        <pt x="427" y="88" on="0"/>
        <pt x="429" y="102" on="1"/>
        <pt x="417" y="80" on="0"/>
        <pt x="380" y="41" on="0"/>
        <pt x="331" y="11" on="0"/>
        <pt x="274" y="-7" on="0"/>
        <pt x="243" y="-7" on="1"/>
        <pt x="202" y="-7" on="0"/>
        <pt x="135" y="24" on="0"/>
        <pt x="90" y="76" on="0"/>
        <pt x="69" y="147" on="0"/>
      </contour>
    </TTGlyph>
    <TTGlyph name="aacute" xMin="69" yMin="-7" xMax="492" yMax="612">
      <component glyphName="a" x="0" y="0" flags="0x4"/>
      <component glyphName="acute" x="209" y="0" flags="0x4"/>
    </TTGlyph>
    <TTGlyph name="acircumflex" xMin="69" yMin="-7" xMax="492" yMax="660">
      <component glyphName="a" x="0" y="0" flags="0x4"/>
      <component glyphName="asciicircum" x="106" y="0" flags="0x4"/>
    </TTGlyph>
    <TTGlyph name="acute" xMin="90" yMin="479" xMax="229" yMax="612">
      <contour>
        <pt x="90" y="479" on="1"/>
        <pt x="117" y="512" on="0"/>
        <pt x="172" y="579" on="0"/>
        <pt x="199" y="612" on="1"/>
        <pt x="229" y="612" on="1"/>
        <pt x="200" y="579" on="0"/>
        <pt x="143" y="512" on="0"/>
        <pt x="115" y="479" on="1"/>
      </contour>
    </TTGlyph>
    <TTGlyph name="adieresis" xMin="69" yMin="-7" xMax="492" yMax="531">
      <component glyphName="a" x="0" y="0" flags="0x4"/>
      <component glyphName="dieresis" x="141" y="0" flags="0x4"/>
    </TTGlyph>
    <TTGlyph name="ae" xMin="30" yMin="-8" xMax="573" yMax="383">
      <contour>
        <pt x="367" y="243" on="1"/>
        <pt x="361" y="199" on="1"/>
        <pt x="406" y="216" on="0"/>
        <pt x="495" y="249" on="0"/>
        <pt x="540" y="266" on="1"/>
        <pt x="526" y="306" on="0"/>
        <pt x="462" y="356" on="0"/>
        <pt x="417" y="356" on="1"/>
        <pt x="384" y="356" on="0"/>
        <pt x="352" y="343" on="1"/>
        <pt x="366" y="329" on="0"/>
        <pt x="372" y="279" on="0"/>
      </contour>
      <contour>
        <pt x="329" y="170" on="1"/>
        <pt x="242" y="170" on="1"/>
        <pt x="226" y="170" on="0"/>
        <pt x="169" y="170" on="0"/>
        <pt x="112" y="159" on="0"/>
        <pt x="67" y="130" on="0"/>
        <pt x="63" y="101" on="1"/>
        <pt x="59" y="75" on="0"/>
        <pt x="80" y="43" on="0"/>
        <pt x="116" y="25" on="0"/>
        <pt x="162" y="19" on="0"/>
        <pt x="183" y="19" on="1"/>
        <pt x="205" y="19" on="0"/>
        <pt x="251" y="27" on="0"/>
        <pt x="289" y="46" on="0"/>
        <pt x="316" y="81" on="0"/>
        <pt x="320" y="108" on="1"/>
      </contour>
      <contour>
        <pt x="114" y="322" on="1"/>
        <pt x="110" y="327" on="0"/>
        <pt x="102" y="338" on="0"/>
        <pt x="98" y="343" on="1"/>
        <pt x="109" y="351" on="0"/>
        <pt x="141" y="366" on="0"/>
        <pt x="177" y="377" on="0"/>
        <pt x="215" y="383" on="0"/>
        <pt x="232" y="383" on="1"/>
        <pt x="268" y="383" on="0"/>
        <pt x="319" y="375" on="0"/>
        <pt x="336" y="365" on="1"/>
        <pt x="375" y="383" on="0"/>
        <pt x="421" y="383" on="1"/>
        <pt x="480" y="383" on="0"/>
        <pt x="562" y="310" on="0"/>
        <pt x="573" y="251" on="1"/>
        <pt x="519" y="231" on="0"/>
        <pt x="411" y="190" on="0"/>
        <pt x="357" y="169" on="1"/>
        <pt x="354" y="149" on="1"/>
        <pt x="351" y="130" on="1"/>
        <pt x="346" y="96" on="0"/>
        <pt x="326" y="51" on="0"/>
        <pt x="304" y="34" on="1"/>
        <pt x="319" y="28" on="0"/>
        <pt x="351" y="21" on="0"/>
        <pt x="370" y="21" on="1"/>
        <pt x="403" y="21" on="0"/>
        <pt x="466" y="46" on="0"/>
        <pt x="491" y="67" on="1"/>
        <pt x="495" y="61" on="0"/>
        <pt x="501" y="51" on="0"/>
        <pt x="506" y="46" on="1"/>
        <pt x="476" y="22" on="0"/>
        <pt x="405" y="-6" on="0"/>
        <pt x="366" y="-6" on="1"/>
        <pt x="317" y="-6" on="0"/>
        <pt x="282" y="13" on="1"/>
        <pt x="243" y="-8" on="0"/>
        <pt x="177" y="-8" on="1"/>
        <pt x="142" y="-8" on="0"/>
        <pt x="85" y="2" on="0"/>
        <pt x="47" y="28" on="0"/>
        <pt x="30" y="69" on="0"/>
        <pt x="35" y="101" on="1"/>
        <pt x="39" y="129" on="0"/>
        <pt x="70" y="166" on="0"/>
        <pt x="115" y="189" on="0"/>
        <pt x="169" y="199" on="0"/>
        <pt x="198" y="199" on="1"/>
        <pt x="333" y="199" on="1"/>
        <pt x="340" y="245" on="1"/>
        <pt x="344" y="273" on="0"/>
        <pt x="341" y="314" on="0"/>
        <pt x="317" y="342" on="0"/>
        <pt x="269" y="356" on="0"/>
        <pt x="227" y="356" on="1"/>
        <pt x="213" y="356" on="0"/>
        <pt x="181" y="350" on="0"/>
        <pt x="150" y="341" on="0"/>
        <pt x="123" y="328" on="0"/>
      </contour>
    </TTGlyph>
    <TTGlyph name="agrave" xMin="69" yMin="-7" xMax="492" yMax="612">
      <component glyphName="a" x="0" y="0" flags="0x4"/>
      <component glyphName="grave" x="233" y="0" flags="0x4"/>
    </TTGlyph>
    <TTGlyph name="ampersand" xMin="73" yMin="-19" xMax="602" yMax="750">
      <contour>
        <pt x="107" y="187" on="1"/>
        <pt x="102" y="152" on="0"/>
        <pt x="119" y="91" on="0"/>
        <pt x="158" y="46" on="0"/>
        <pt x="216" y="20" on="0"/>
        <pt x="251" y="20" on="1"/>
        <pt x="296" y="20" on="0"/>
        <pt x="376" y="61" on="0"/>
        <pt x="402" y="96" on="1"/>
        <pt x="372" y="161" on="0"/>
        <pt x="311" y="288" on="0"/>
        <pt x="281" y="353" on="1"/>
        <pt x="248" y="350" on="0"/>
        <pt x="189" y="322" on="0"/>
        <pt x="142" y="278" on="0"/>
        <pt x="111" y="220" on="0"/>
      </contour>
      <contour>
        <pt x="478" y="238" on="1"/>
        <pt x="470" y="187" on="1"/>
        <pt x="467" y="162" on="0"/>
        <pt x="447" y="116" on="0"/>
        <pt x="433" y="96" on="1"/>
        <pt x="445" y="71" on="0"/>
        <pt x="469" y="22" on="0"/>
        <pt x="481" y="-4" on="1"/>
        <pt x="457" y="-19" on="1"/>
        <pt x="446" y="3" on="0"/>
        <pt x="425" y="48" on="0"/>
        <pt x="414" y="70" on="1"/>
        <pt x="382" y="35" on="0"/>
        <pt x="295" y="-7" on="0"/>
        <pt x="247" y="-7" on="1"/>
        <pt x="206" y="-7" on="0"/>
        <pt x="139" y="23" on="0"/>
        <pt x="94" y="76" on="0"/>
        <pt x="73" y="146" on="0"/>
        <pt x="79" y="187" on="1"/>
        <pt x="84" y="223" on="0"/>
        <pt x="118" y="288" on="0"/>
        <pt x="169" y="339" on="0"/>
        <pt x="233" y="373" on="0"/>
        <pt x="268" y="379" on="1"/>
        <pt x="254" y="408" on="0"/>
        <pt x="227" y="467" on="0"/>
        <pt x="213" y="496" on="1"/>
        <pt x="199" y="526" on="0"/>
        <pt x="194" y="590" on="0"/>
        <pt x="212" y="652" on="0"/>
        <pt x="256" y="706" on="0"/>
        <pt x="292" y="726" on="1"/>
        <pt x="323" y="743" on="0"/>
        <pt x="382" y="750" on="0"/>
        <pt x="436" y="740" on="0"/>
        <pt x="483" y="718" on="0"/>
        <pt x="500" y="706" on="1"/>
        <pt x="485" y="682" on="1"/>
        <pt x="466" y="694" on="0"/>
        <pt x="424" y="715" on="0"/>
        <pt x="379" y="724" on="0"/>
        <pt x="331" y="718" on="0"/>
        <pt x="306" y="704" on="1"/>
        <pt x="243" y="667" on="0"/>
        <pt x="214" y="558" on="0"/>
        <pt x="238" y="506" on="1"/>
        <pt x="283" y="412" on="0"/>
        <pt x="370" y="227" on="0"/>
        <pt x="415" y="133" on="1"/>
        <pt x="439" y="170" on="0"/>
        <pt x="448" y="215" on="1"/>
        <pt x="456" y="271" on="1"/>
        <pt x="463" y="312" on="0"/>
        <pt x="486" y="355" on="0"/>
        <pt x="514" y="373" on="0"/>
        <pt x="546" y="375" on="0"/>
        <pt x="563" y="375" on="1"/>
        <pt x="602" y="375" on="1"/>
        <pt x="599" y="348" on="1"/>
        <pt x="544" y="348" on="1"/>
        <pt x="513" y="348" on="0"/>
        <pt x="486" y="299" on="0"/>
      </contour>
    </TTGlyph>
    <TTGlyph name="aring" xMin="69" yMin="-7" xMax="492" yMax="608">
      <contour>
        <pt x="279" y="540" on="1"/>
        <pt x="277" y="521" on="0"/>
        <pt x="301" y="494" on="0"/>
        <pt x="319" y="494" on="1"/>
        <pt x="338" y="494" on="0"/>
        <pt x="369" y="521" on="0"/>
        <pt x="371" y="540" on="1"/>
        <pt x="374" y="558" on="0"/>
        <pt x="350" y="586" on="0"/>
        <pt x="332" y="586" on="1"/>
        <pt x="313" y="586" on="0"/>
        <pt x="282" y="558" on="0"/>
      </contour>
      <contour>
        <pt x="257" y="540" on="1"/>
        <pt x="262" y="569" on="0"/>
        <pt x="306" y="608" on="0"/>
        <pt x="335" y="608" on="1"/>
        <pt x="364" y="608" on="0"/>
        <pt x="397" y="569" on="0"/>
        <pt x="393" y="540" on="1"/>
        <pt x="389" y="511" on="0"/>
        <pt x="345" y="472" on="0"/>
        <pt x="316" y="472" on="1"/>
        <pt x="287" y="472" on="0"/>
        <pt x="253" y="511" on="0"/>
      </contour>
      <contour>
        <pt x="103" y="188" on="1"/>
        <pt x="98" y="153" on="0"/>
        <pt x="115" y="92" on="0"/>
        <pt x="154" y="47" on="0"/>
        <pt x="212" y="21" on="0"/>
        <pt x="247" y="21" on="1"/>
        <pt x="282" y="21" on="0"/>
        <pt x="347" y="47" on="0"/>
        <pt x="399" y="92" on="0"/>
        <pt x="434" y="153" on="0"/>
        <pt x="439" y="188" on="1"/>
        <pt x="444" y="223" on="0"/>
        <pt x="426" y="284" on="0"/>
        <pt x="387" y="330" on="0"/>
        <pt x="329" y="356" on="0"/>
        <pt x="294" y="356" on="1"/>
        <pt x="259" y="356" on="0"/>
        <pt x="194" y="330" on="0"/>
        <pt x="142" y="284" on="0"/>
        <pt x="108" y="223" on="0"/>
      </contour>
      <contour>
        <pt x="75" y="188" on="1"/>
        <pt x="81" y="231" on="0"/>
        <pt x="122" y="303" on="0"/>
        <pt x="182" y="355" on="0"/>
        <pt x="257" y="383" on="0"/>
        <pt x="297" y="383" on="1"/>
        <pt x="327" y="383" on="0"/>
        <pt x="379" y="366" on="0"/>
        <pt x="419" y="336" on="0"/>
        <pt x="447" y="296" on="0"/>
        <pt x="453" y="274" on="1"/>
        <pt x="456" y="299" on="0"/>
        <pt x="466" y="349" on="0"/>
        <pt x="471" y="375" on="1"/>
        <pt x="492" y="375" on="1"/>
        <pt x="440" y="0" on="1"/>
        <pt x="415" y="0" on="1"/>
        <pt x="421" y="50" on="1"/>
        <pt x="423" y="63" on="0"/>
        <pt x="427" y="88" on="0"/>
        <pt x="429" y="102" on="1"/>
        <pt x="417" y="80" on="0"/>
        <pt x="380" y="41" on="0"/>
        <pt x="331" y="11" on="0"/>
        <pt x="274" y="-7" on="0"/>
        <pt x="243" y="-7" on="1"/>
        <pt x="202" y="-7" on="0"/>
        <pt x="135" y="24" on="0"/>
        <pt x="90" y="76" on="0"/>
        <pt x="69" y="147" on="0"/>
      </contour>
    </TTGlyph>
    <TTGlyph name="asciicircum" xMin="99" yMin="479" xMax="339" yMax="660">
      <contour>
        <pt x="244" y="660" on="1"/>
        <pt x="268" y="615" on="0"/>
        <pt x="315" y="524" on="0"/>
        <pt x="339" y="479" on="1"/>
        <pt x="314" y="479" on="1"/>
        <pt x="295" y="514" on="0"/>
        <pt x="258" y="582" on="0"/>
        <pt x="238" y="617" on="1"/>
        <pt x="124" y="479" on="1"/>
        <pt x="99" y="479" on="1"/>
        <pt x="135" y="524" on="0"/>
        <pt x="208" y="615" on="0"/>
      </contour>
    </TTGlyph>
    <TTGlyph name="asciitilde" xMin="125" yMin="457" xMax="424" yMax="543">
      <contour>
        <pt x="266" y="494" on="1"/>
        <pt x="253" y="511" on="0"/>
        <pt x="229" y="523" on="0"/>
        <pt x="215" y="523" on="1"/>
        <pt x="207" y="523" on="0"/>
        <pt x="187" y="519" on="0"/>
        <pt x="166" y="507" on="0"/>
        <pt x="149" y="486" on="0"/>
        <pt x="145" y="470" on="1"/>
        <pt x="140" y="471" on="0"/>
        <pt x="130" y="471" on="0"/>
        <pt x="125" y="472" on="1"/>
        <pt x="129" y="491" on="0"/>
        <pt x="149" y="518" on="0"/>
        <pt x="175" y="535" on="0"/>
        <pt x="205" y="543" on="0"/>
        <pt x="219" y="543" on="1"/>
        <pt x="239" y="543" on="0"/>
        <pt x="269" y="523" on="0"/>
        <pt x="283" y="506" on="1"/>
        <pt x="297" y="489" on="0"/>
        <pt x="320" y="477" on="0"/>
        <pt x="334" y="477" on="1"/>
        <pt x="342" y="477" on="0"/>
        <pt x="363" y="481" on="0"/>
        <pt x="384" y="493" on="0"/>
        <pt x="401" y="514" on="0"/>
        <pt x="405" y="530" on="1"/>
        <pt x="410" y="529" on="0"/>
        <pt x="419" y="529" on="0"/>
        <pt x="424" y="528" on="1"/>
        <pt x="416" y="490" on="0"/>
        <pt x="359" y="457" on="0"/>
        <pt x="330" y="457" on="1"/>
        <pt x="310" y="457" on="0"/>
        <pt x="280" y="477" on="0"/>
      </contour>
    </TTGlyph>
    <TTGlyph name="asterisk" xMin="28" yMin="434" xMax="306" yMax="720">
      <contour>
        <pt x="195" y="575" on="1"/>
        <pt x="218" y="561" on="0"/>
        <pt x="266" y="531" on="0"/>
        <pt x="289" y="517" on="1"/>
        <pt x="284" y="510" on="0"/>
        <pt x="274" y="497" on="0"/>
        <pt x="269" y="490" on="1"/>
        <pt x="176" y="550" on="1"/>
        <pt x="171" y="521" on="0"/>
        <pt x="163" y="463" on="0"/>
        <pt x="158" y="434" on="1"/>
        <pt x="131" y="434" on="1"/>
        <pt x="147" y="550" on="1"/>
        <pt x="120" y="535" on="0"/>
        <pt x="66" y="506" on="0"/>
        <pt x="39" y="492" on="1"/>
        <pt x="36" y="499" on="0"/>
        <pt x="31" y="512" on="0"/>
        <pt x="28" y="519" on="1"/>
        <pt x="136" y="576" on="1"/>
        <pt x="113" y="591" on="0"/>
        <pt x="68" y="621" on="0"/>
        <pt x="45" y="636" on="1"/>
        <pt x="48" y="642" on="0"/>
        <pt x="57" y="654" on="0"/>
        <pt x="61" y="660" on="1"/>
        <pt x="84" y="645" on="0"/>
        <pt x="132" y="615" on="0"/>
        <pt x="155" y="600" on="1"/>
        <pt x="172" y="720" on="1"/>
        <pt x="203" y="720" on="1"/>
        <pt x="198" y="690" on="0"/>
        <pt x="189" y="630" on="0"/>
        <pt x="184" y="600" on="1"/>
        <pt x="241" y="629" on="0"/>
        <pt x="296" y="659" on="1"/>
        <pt x="299" y="653" on="0"/>
        <pt x="304" y="641" on="0"/>
        <pt x="306" y="635" on="1"/>
      </contour>
    </TTGlyph>
    <TTGlyph name="at" xMin="76" yMin="-212" xMax="901" yMax="590">
      <contour>
        <pt x="321" y="188" on="1"/>
        <pt x="316" y="153" on="0"/>
        <pt x="333" y="92" on="0"/>
        <pt x="372" y="47" on="0"/>
        <pt x="430" y="21" on="0"/>
        <pt x="465" y="21" on="1"/>
        <pt x="500" y="21" on="0"/>
        <pt x="565" y="47" on="0"/>
        <pt x="617" y="92" on="0"/>
        <pt x="651" y="153" on="0"/>
        <pt x="656" y="188" on="1"/>
        <pt x="661" y="223" on="0"/>
        <pt x="644" y="284" on="0"/>
        <pt x="605" y="330" on="0"/>
        <pt x="547" y="356" on="0"/>
        <pt x="512" y="356" on="1"/>
        <pt x="477" y="356" on="0"/>
        <pt x="412" y="330" on="0"/>
        <pt x="360" y="284" on="0"/>
        <pt x="326" y="223" on="0"/>
      </contour>
      <contour>
        <pt x="889" y="188" on="1"/>
        <pt x="878" y="130" on="0"/>
        <pt x="841" y="57" on="0"/>
        <pt x="794" y="15" on="0"/>
        <pt x="741" y="0" on="0"/>
        <pt x="716" y="0" on="1"/>
        <pt x="632" y="0" on="1"/>
        <pt x="639" y="47" on="1"/>
        <pt x="641" y="61" on="0"/>
        <pt x="645" y="88" on="0"/>
        <pt x="647" y="102" on="1"/>
        <pt x="635" y="79" on="0"/>
        <pt x="597" y="40" on="0"/>
        <pt x="549" y="11" on="0"/>
        <pt x="492" y="-7" on="0"/>
        <pt x="461" y="-7" on="1"/>
        <pt x="420" y="-7" on="0"/>
        <pt x="353" y="24" on="0"/>
        <pt x="308" y="76" on="0"/>
        <pt x="287" y="147" on="0"/>
        <pt x="293" y="188" on="1"/>
        <pt x="299" y="228" on="0"/>
        <pt x="339" y="299" on="0"/>
        <pt x="399" y="352" on="0"/>
        <pt x="475" y="383" on="0"/>
        <pt x="516" y="383" on="1"/>
        <pt x="546" y="383" on="0"/>
        <pt x="597" y="366" on="0"/>
        <pt x="637" y="336" on="0"/>
        <pt x="664" y="296" on="0"/>
        <pt x="670" y="274" on="1"/>
        <pt x="674" y="299" on="0"/>
        <pt x="684" y="349" on="0"/>
        <pt x="689" y="375" on="1"/>
        <pt x="711" y="375" on="1"/>
        <pt x="662" y="27" on="1"/>
        <pt x="725" y="27" on="1"/>
        <pt x="776" y="27" on="0"/>
        <pt x="847" y="103" on="0"/>
        <pt x="861" y="188" on="1"/>
        <pt x="872" y="266" on="0"/>
        <pt x="833" y="402" on="0"/>
        <pt x="746" y="504" on="0"/>
        <pt x="618" y="563" on="0"/>
        <pt x="541" y="563" on="1"/>
        <pt x="463" y="563" on="0"/>
        <pt x="319" y="504" on="0"/>
        <pt x="204" y="402" on="0"/>
        <pt x="126" y="266" on="0"/>
        <pt x="115" y="188" on="1"/>
        <pt x="104" y="111" on="0"/>
        <pt x="144" y="-25" on="0"/>
        <pt x="231" y="-126" on="0"/>
        <pt x="359" y="-185" on="0"/>
        <pt x="436" y="-185" on="1"/>
        <pt x="497" y="-185" on="0"/>
        <pt x="612" y="-147" on="0"/>
        <pt x="663" y="-115" on="1"/>
        <pt x="666" y="-121" on="0"/>
        <pt x="674" y="-131" on="0"/>
        <pt x="677" y="-136" on="1"/>
        <pt x="623" y="-172" on="0"/>
        <pt x="498" y="-212" on="0"/>
        <pt x="432" y="-212" on="1"/>
        <pt x="349" y="-212" on="0"/>
        <pt x="212" y="-149" on="0"/>
        <pt x="119" y="-40" on="0"/>
        <pt x="76" y="106" on="0"/>
        <pt x="88" y="189" on="1"/>
        <pt x="100" y="272" on="0"/>
        <pt x="183" y="418" on="0"/>
        <pt x="307" y="527" on="0"/>
        <pt x="462" y="590" on="0"/>
        <pt x="545" y="590" on="1"/>
        <pt x="628" y="590" on="0"/>
        <pt x="765" y="527" on="0"/>
        <pt x="858" y="418" on="0"/>
        <pt x="901" y="272" on="0"/>
      </contour>
    </TTGlyph>
    <TTGlyph name="atilde" xMin="69" yMin="-7" xMax="492" yMax="543">
      <component glyphName="a" x="0" y="0" flags="0x4"/>
      <component glyphName="asciitilde" x="51" y="0" flags="0x4"/>
    </TTGlyph>
    <TTGlyph name="b" xMin="82" yMin="-7" xMax="505" yMax="750">
      <contour>
        <pt x="471" y="188" on="1"/>
        <pt x="476" y="223" on="0"/>
        <pt x="459" y="284" on="0"/>
        <pt x="420" y="330" on="0"/>
        <pt x="362" y="356" on="0"/>
        <pt x="327" y="356" on="1"/>
        <pt x="292" y="356" on="0"/>
        <pt x="227" y="330" on="0"/>
        <pt x="175" y="284" on="0"/>
        <pt x="141" y="223" on="0"/>
        <pt x="136" y="188" on="1"/>
        <pt x="131" y="153" on="0"/>
        <pt x="149" y="92" on="0"/>
        <pt x="188" y="47" on="0"/>
        <pt x="246" y="21" on="0"/>
        <pt x="281" y="21" on="1"/>
        <pt x="316" y="21" on="0"/>
        <pt x="381" y="47" on="0"/>
        <pt x="432" y="92" on="0"/>
        <pt x="466" y="153" on="0"/>
      </contour>
      <contour>
        <pt x="499" y="188" on="1"/>
        <pt x="493" y="147" on="0"/>
        <pt x="453" y="75" on="0"/>
        <pt x="393" y="23" on="0"/>
        <pt x="318" y="-7" on="0"/>
        <pt x="277" y="-7" on="1"/>
        <pt x="214" y="-6" on="0"/>
        <pt x="132" y="57" on="0"/>
        <pt x="121" y="102" on="1"/>
        <pt x="119" y="88" on="0"/>
        <pt x="116" y="63" on="0"/>
        <pt x="114" y="50" on="1"/>
        <pt x="108" y="0" on="1"/>
        <pt x="82" y="0" on="1"/>
        <pt x="187" y="750" on="1"/>
        <pt x="215" y="750" on="1"/>
        <pt x="155" y="324" on="1"/>
        <pt x="153" y="311" on="0"/>
        <pt x="148" y="287" on="0"/>
        <pt x="146" y="274" on="1"/>
        <pt x="158" y="296" on="0"/>
        <pt x="196" y="336" on="0"/>
        <pt x="244" y="366" on="0"/>
        <pt x="301" y="383" on="0"/>
        <pt x="331" y="383" on="1"/>
        <pt x="372" y="383" on="0"/>
        <pt x="439" y="352" on="0"/>
        <pt x="484" y="300" on="0"/>
        <pt x="505" y="228" on="0"/>
      </contour>
    </TTGlyph>
    <TTGlyph name="backslash" xMin="67" yMin="-19" xMax="268" yMax="736">
      <contour>
        <pt x="97" y="736" on="1"/>
        <pt x="140" y="546" on="0"/>
        <pt x="225" y="171" on="0"/>
        <pt x="268" y="-19" on="1"/>
        <pt x="238" y="-19" on="1"/>
        <pt x="195" y="171" on="0"/>
        <pt x="110" y="546" on="0"/>
        <pt x="67" y="736" on="1"/>
      </contour>
    </TTGlyph>
    <TTGlyph name="bar" xMin="31" yMin="-232" xMax="190" yMax="700">
      <contour>
        <pt x="31" y="-232" on="1"/>
        <pt x="162" y="700" on="1"/>
        <pt x="190" y="700" on="1"/>
        <pt x="59" y="-232" on="1"/>
      </contour>
    </TTGlyph>
    <TTGlyph name="braceleft" xMin="27" yMin="-148" xMax="306" yMax="746">
      <contour>
        <pt x="27" y="281" on="1"/>
        <pt x="32" y="316" on="1"/>
        <pt x="57" y="317" on="0"/>
        <pt x="92" y="344" on="0"/>
        <pt x="115" y="384" on="0"/>
        <pt x="127" y="431" on="0"/>
        <pt x="130" y="451" on="1"/>
        <pt x="155" y="628" on="1"/>
        <pt x="161" y="674" on="0"/>
        <pt x="183" y="722" on="0"/>
        <pt x="212" y="743" on="0"/>
        <pt x="245" y="746" on="0"/>
        <pt x="263" y="746" on="1"/>
        <pt x="306" y="746" on="1"/>
        <pt x="302" y="719" on="1"/>
        <pt x="247" y="719" on="1"/>
        <pt x="216" y="719" on="0"/>
        <pt x="189" y="670" on="0"/>
        <pt x="181" y="608" on="1"/>
        <pt x="160" y="463" on="1"/>
        <pt x="154" y="419" on="0"/>
        <pt x="134" y="362" on="0"/>
        <pt x="111" y="326" on="0"/>
        <pt x="84" y="306" on="0"/>
        <pt x="71" y="299" on="1"/>
        <pt x="83" y="292" on="0"/>
        <pt x="103" y="271" on="0"/>
        <pt x="117" y="234" on="0"/>
        <pt x="120" y="178" on="0"/>
        <pt x="114" y="135" on="1"/>
        <pt x="93" y="-11" on="1"/>
        <pt x="85" y="-72" on="0"/>
        <pt x="99" y="-121" on="0"/>
        <pt x="130" y="-121" on="1"/>
        <pt x="184" y="-121" on="1"/>
        <pt x="181" y="-148" on="1"/>
        <pt x="138" y="-148" on="1"/>
        <pt x="118" y="-148" on="0"/>
        <pt x="84" y="-145" on="0"/>
        <pt x="63" y="-118" on="0"/>
        <pt x="58" y="-58" on="0"/>
        <pt x="66" y="-1" on="1"/>
        <pt x="87" y="146" on="1"/>
        <pt x="90" y="166" on="0"/>
        <pt x="90" y="213" on="0"/>
        <pt x="78" y="253" on="0"/>
        <pt x="51" y="280" on="0"/>
      </contour>
    </TTGlyph>
    <TTGlyph name="braceright" xMin="14" yMin="-148" xMax="292" yMax="746">
      <contour>
        <pt x="292" y="316" on="1"/>
        <pt x="287" y="281" on="1"/>
        <pt x="257" y="279" on="0"/>
        <pt x="219" y="241" on="0"/>
        <pt x="197" y="189" on="0"/>
        <pt x="187" y="135" on="0"/>
        <pt x="185" y="117" on="1"/>
        <pt x="164" y="-30" on="1"/>
        <pt x="158" y="-76" on="0"/>
        <pt x="135" y="-125" on="0"/>
        <pt x="107" y="-146" on="0"/>
        <pt x="74" y="-148" on="0"/>
        <pt x="56" y="-148" on="1"/>
        <pt x="14" y="-148" on="1"/>
        <pt x="17" y="-121" on="1"/>
        <pt x="72" y="-121" on="1"/>
        <pt x="103" y="-121" on="0"/>
        <pt x="130" y="-72" on="0"/>
        <pt x="138" y="-11" on="1"/>
        <pt x="164" y="165" on="1"/>
        <pt x="168" y="198" on="0"/>
        <pt x="188" y="244" on="0"/>
        <pt x="212" y="275" on="0"/>
        <pt x="238" y="293" on="0"/>
        <pt x="248" y="299" on="1"/>
        <pt x="236" y="306" on="0"/>
        <pt x="216" y="326" on="0"/>
        <pt x="202" y="362" on="0"/>
        <pt x="200" y="419" on="0"/>
        <pt x="206" y="463" on="1"/>
        <pt x="226" y="608" on="1"/>
        <pt x="234" y="670" on="0"/>
        <pt x="220" y="719" on="0"/>
        <pt x="189" y="719" on="1"/>
        <pt x="135" y="719" on="1"/>
        <pt x="138" y="746" on="1"/>
        <pt x="181" y="746" on="1"/>
        <pt x="199" y="746" on="0"/>
        <pt x="232" y="744" on="0"/>
        <pt x="254" y="723" on="0"/>
        <pt x="263" y="674" on="0"/>
        <pt x="257" y="628" on="1"/>
        <pt x="236" y="480" on="1"/>
        <pt x="233" y="462" on="0"/>
        <pt x="228" y="407" on="0"/>
        <pt x="235" y="356" on="0"/>
        <pt x="262" y="317" on="0"/>
      </contour>
    </TTGlyph>
    <TTGlyph name="bracketleft" xMin="20" yMin="-149" xMax="314" yMax="746">
      <contour>
        <pt x="20" y="-149" on="1"/>
        <pt x="145" y="746" on="1"/>
        <pt x="314" y="746" on="1"/>
        <pt x="310" y="719" on="1"/>
        <pt x="171" y="719" on="1"/>
        <pt x="53" y="-122" on="1"/>
        <pt x="193" y="-122" on="1"/>
        <pt x="189" y="-149" on="1"/>
      </contour>
    </TTGlyph>
    <TTGlyph name="bracketright" xMin="19" yMin="-149" xMax="313" yMax="746">
      <contour>
        <pt x="313" y="746" on="1"/>
        <pt x="188" y="-149" on="1"/>
        <pt x="19" y="-149" on="1"/>
        <pt x="23" y="-122" on="1"/>
        <pt x="162" y="-122" on="1"/>
        <pt x="280" y="719" on="1"/>
        <pt x="140" y="719" on="1"/>
        <pt x="144" y="746" on="1"/>
      </contour>
    </TTGlyph>
    <TTGlyph name="brokenbar" xMin="29" yMin="-233" xMax="188" yMax="700">
      <contour>
        <pt x="57" y="-233" on="1"/>
        <pt x="29" y="-233" on="1"/>
        <pt x="78" y="117" on="1"/>
        <pt x="106" y="117" on="1"/>
      </contour>
      <contour>
        <pt x="139" y="350" on="1"/>
        <pt x="111" y="350" on="1"/>
        <pt x="160" y="700" on="1"/>
        <pt x="188" y="700" on="1"/>
      </contour>
    </TTGlyph>
    <TTGlyph name="bullet" xMin="159" yMin="223" xMax="321" yMax="378">
      <contour>
        <pt x="161" y="300" on="1"/>
        <pt x="166" y="333" on="0"/>
        <pt x="218" y="378" on="0"/>
        <pt x="250" y="378" on="1"/>
        <pt x="282" y="378" on="0"/>
        <pt x="321" y="333" on="0"/>
        <pt x="316" y="300" on="1"/>
        <pt x="311" y="268" on="0"/>
        <pt x="260" y="223" on="0"/>
        <pt x="227" y="223" on="1"/>
        <pt x="211" y="223" on="0"/>
        <pt x="185" y="235" on="0"/>
        <pt x="167" y="256" on="0"/>
        <pt x="159" y="284" on="0"/>
      </contour>
    </TTGlyph>
    <TTGlyph name="c" xMin="56" yMin="-7" xMax="402" yMax="383">
      <contour>
        <pt x="344" y="57" on="1"/>
        <pt x="359" y="36" on="1"/>
        <pt x="330" y="16" on="0"/>
        <pt x="265" y="-7" on="0"/>
        <pt x="230" y="-7" on="1"/>
        <pt x="189" y="-7" on="0"/>
        <pt x="122" y="24" on="0"/>
        <pt x="77" y="76" on="0"/>
        <pt x="56" y="147" on="0"/>
        <pt x="62" y="188" on="1"/>
        <pt x="68" y="232" on="0"/>
        <pt x="108" y="304" on="0"/>
        <pt x="168" y="355" on="0"/>
        <pt x="243" y="383" on="0"/>
        <pt x="284" y="383" on="1"/>
        <pt x="320" y="383" on="0"/>
        <pt x="380" y="360" on="0"/>
        <pt x="402" y="340" on="1"/>
        <pt x="397" y="335" on="0"/>
        <pt x="386" y="324" on="0"/>
        <pt x="381" y="319" on="1"/>
        <pt x="361" y="336" on="0"/>
        <pt x="311" y="356" on="0"/>
        <pt x="280" y="356" on="1"/>
        <pt x="245" y="356" on="0"/>
        <pt x="181" y="330" on="0"/>
        <pt x="129" y="284" on="0"/>
        <pt x="95" y="223" on="0"/>
        <pt x="90" y="188" on="1"/>
        <pt x="85" y="153" on="0"/>
        <pt x="102" y="92" on="0"/>
        <pt x="141" y="47" on="0"/>
        <pt x="199" y="21" on="0"/>
        <pt x="234" y="21" on="1"/>
        <pt x="264" y="21" on="0"/>
        <pt x="320" y="40" on="0"/>
      </contour>
    </TTGlyph>
    <TTGlyph name="ccedilla" xMin="46" yMin="-228" xMax="391" yMax="383">
      <contour>
        <pt x="333" y="57" on="1"/>
        <pt x="337" y="52" on="0"/>
        <pt x="345" y="41" on="0"/>
        <pt x="348" y="36" on="1"/>
        <pt x="295" y="-3" on="0"/>
        <pt x="226" y="-7" on="1"/>
        <pt x="223" y="-33" on="0"/>
        <pt x="249" y="-53" on="0"/>
        <pt x="261" y="-61" on="1"/>
        <pt x="281" y="-76" on="0"/>
        <pt x="294" y="-114" on="0"/>
        <pt x="291" y="-130" on="1"/>
        <pt x="285" y="-178" on="0"/>
        <pt x="231" y="-225" on="0"/>
        <pt x="197" y="-227" on="1"/>
        <pt x="179" y="-228" on="0"/>
        <pt x="163" y="-224" on="1"/>
        <pt x="144" y="-218" on="0"/>
        <pt x="118" y="-190" on="0"/>
        <pt x="113" y="-167" on="1"/>
        <pt x="118" y="-165" on="0"/>
        <pt x="129" y="-161" on="0"/>
        <pt x="135" y="-159" on="1"/>
        <pt x="138" y="-179" on="0"/>
        <pt x="168" y="-205" on="0"/>
        <pt x="192" y="-205" on="1"/>
        <pt x="221" y="-205" on="0"/>
        <pt x="263" y="-165" on="0"/>
        <pt x="267" y="-136" on="1"/>
        <pt x="271" y="-110" on="0"/>
        <pt x="250" y="-81" on="0"/>
        <pt x="223" y="-60" on="0"/>
        <pt x="201" y="-39" on="0"/>
        <pt x="203" y="-20" on="1"/>
        <pt x="205" y="-5" on="1"/>
        <pt x="167" y="-3" on="0"/>
        <pt x="106" y="29" on="0"/>
        <pt x="64" y="81" on="0"/>
        <pt x="46" y="149" on="0"/>
        <pt x="51" y="188" on="1"/>
        <pt x="57" y="228" on="0"/>
        <pt x="97" y="300" on="0"/>
        <pt x="157" y="352" on="0"/>
        <pt x="233" y="383" on="0"/>
        <pt x="274" y="383" on="1"/>
        <pt x="309" y="383" on="0"/>
        <pt x="369" y="360" on="0"/>
        <pt x="391" y="340" on="1"/>
        <pt x="370" y="319" on="1"/>
        <pt x="350" y="336" on="0"/>
        <pt x="300" y="356" on="0"/>
        <pt x="270" y="356" on="1"/>
        <pt x="235" y="356" on="0"/>
        <pt x="170" y="330" on="0"/>
        <pt x="118" y="284" on="0"/>
        <pt x="84" y="223" on="0"/>
        <pt x="79" y="188" on="1"/>
        <pt x="74" y="153" on="0"/>
        <pt x="91" y="92" on="0"/>
        <pt x="130" y="47" on="0"/>
        <pt x="187" y="21" on="0"/>
        <pt x="222" y="21" on="1"/>
        <pt x="253" y="21" on="0"/>
        <pt x="309" y="40" on="0"/>
      </contour>
    </TTGlyph>
    <TTGlyph name="cedilla" xMin="113" yMin="-228" xMax="294" yMax="0">
      <contour>
        <pt x="207" y="0" on="1"/>
        <pt x="228" y="0" on="1"/>
        <pt x="227" y="-6" on="1"/>
        <pt x="225" y="-20" on="0"/>
        <pt x="231" y="-37" on="0"/>
        <pt x="241" y="-49" on="0"/>
        <pt x="255" y="-57" on="0"/>
        <pt x="261" y="-61" on="1"/>
        <pt x="281" y="-76" on="0"/>
        <pt x="294" y="-114" on="0"/>
        <pt x="292" y="-130" on="1"/>
        <pt x="285" y="-180" on="0"/>
        <pt x="227" y="-228" on="0"/>
        <pt x="190" y="-228" on="1"/>
        <pt x="162" y="-228" on="0"/>
        <pt x="119" y="-198" on="0"/>
        <pt x="113" y="-167" on="1"/>
        <pt x="119" y="-165" on="0"/>
        <pt x="130" y="-161" on="0"/>
        <pt x="136" y="-159" on="1"/>
        <pt x="139" y="-179" on="0"/>
        <pt x="169" y="-205" on="0"/>
        <pt x="192" y="-205" on="1"/>
        <pt x="222" y="-205" on="0"/>
        <pt x="263" y="-165" on="0"/>
        <pt x="268" y="-136" on="1"/>
        <pt x="271" y="-110" on="0"/>
        <pt x="250" y="-81" on="0"/>
        <pt x="223" y="-60" on="0"/>
        <pt x="201" y="-39" on="0"/>
        <pt x="204" y="-20" on="1"/>
      </contour>
    </TTGlyph>
    <TTGlyph name="cent" xMin="30" yMin="-68" xMax="376" yMax="438">
      <contour>
        <pt x="64" y="188" on="1"/>
        <pt x="59" y="156" on="0"/>
        <pt x="73" y="100" on="0"/>
        <pt x="106" y="56" on="0"/>
        <pt x="155" y="27" on="0"/>
        <pt x="185" y="23" on="1"/>
        <pt x="231" y="352" on="1"/>
        <pt x="199" y="349" on="0"/>
        <pt x="143" y="320" on="0"/>
        <pt x="98" y="277" on="0"/>
        <pt x="68" y="220" on="0"/>
      </contour>
      <contour>
        <pt x="318" y="57" on="1"/>
        <pt x="333" y="36" on="1"/>
        <pt x="277" y="-4" on="0"/>
        <pt x="209" y="-6" on="1"/>
        <pt x="200" y="-68" on="1"/>
        <pt x="172" y="-68" on="1"/>
        <pt x="181" y="-4" on="1"/>
        <pt x="145" y="0" on="0"/>
        <pt x="86" y="33" on="0"/>
        <pt x="47" y="84" on="0"/>
        <pt x="30" y="150" on="0"/>
        <pt x="36" y="188" on="1"/>
        <pt x="41" y="225" on="0"/>
        <pt x="77" y="292" on="0"/>
        <pt x="130" y="344" on="0"/>
        <pt x="198" y="377" on="0"/>
        <pt x="235" y="381" on="1"/>
        <pt x="243" y="438" on="1"/>
        <pt x="271" y="438" on="1"/>
        <pt x="263" y="383" on="1"/>
        <pt x="296" y="382" on="0"/>
        <pt x="355" y="360" on="0"/>
        <pt x="376" y="340" on="1"/>
        <pt x="371" y="335" on="0"/>
        <pt x="360" y="324" on="0"/>
        <pt x="355" y="319" on="1"/>
        <pt x="316" y="354" on="0"/>
        <pt x="259" y="355" on="1"/>
        <pt x="213" y="21" on="1"/>
        <pt x="241" y="22" on="0"/>
        <pt x="295" y="41" on="0"/>
      </contour>
    </TTGlyph>
    <TTGlyph name="colon" xMin="39" yMin="0" xMax="130" yMax="303">
      <contour>
        <pt x="76" y="276" on="1"/>
        <pt x="78" y="287" on="0"/>
        <pt x="95" y="303" on="0"/>
        <pt x="106" y="303" on="1"/>
        <pt x="117" y="303" on="0"/>
        <pt x="130" y="287" on="0"/>
        <pt x="128" y="276" on="1"/>
        <pt x="127" y="265" on="0"/>
        <pt x="109" y="250" on="0"/>
        <pt x="98" y="250" on="1"/>
        <pt x="87" y="250" on="0"/>
        <pt x="74" y="265" on="0"/>
      </contour>
      <contour>
        <pt x="41" y="26" on="1"/>
        <pt x="42" y="37" on="0"/>
        <pt x="60" y="53" on="0"/>
        <pt x="71" y="53" on="1"/>
        <pt x="82" y="53" on="0"/>
        <pt x="95" y="37" on="0"/>
        <pt x="93" y="26" on="1"/>
        <pt x="91" y="15" on="0"/>
        <pt x="74" y="0" on="0"/>
        <pt x="63" y="0" on="1"/>
        <pt x="52" y="0" on="0"/>
        <pt x="39" y="15" on="0"/>
      </contour>
    </TTGlyph>
    <TTGlyph name="comma" xMin="7" yMin="-120" xMax="148" yMax="86">
      <contour>
        <pt x="148" y="86" on="1"/>
        <pt x="119" y="34" on="0"/>
        <pt x="62" y="-68" on="0"/>
        <pt x="33" y="-120" on="1"/>
        <pt x="7" y="-120" on="1"/>
        <pt x="34" y="-68" on="0"/>
        <pt x="86" y="34" on="0"/>
        <pt x="113" y="86" on="1"/>
      </contour>
    </TTGlyph>
    <TTGlyph name="copyright" xMin="134" yMin="117" xMax="664" yMax="628">
      <contour>
        <pt x="366" y="135" on="1"/>
        <pt x="415" y="135" on="0"/>
        <pt x="507" y="171" on="0"/>
        <pt x="580" y="234" on="0"/>
        <pt x="629" y="321" on="0"/>
        <pt x="636" y="371" on="1"/>
        <pt x="643" y="423" on="0"/>
        <pt x="618" y="510" on="0"/>
        <pt x="563" y="574" on="0"/>
        <pt x="481" y="610" on="0"/>
        <pt x="432" y="610" on="1"/>
        <pt x="383" y="610" on="0"/>
        <pt x="292" y="574" on="0"/>
        <pt x="219" y="510" on="0"/>
        <pt x="169" y="423" on="0"/>
        <pt x="162" y="371" on="1"/>
        <pt x="155" y="321" on="0"/>
        <pt x="180" y="234" on="0"/>
        <pt x="236" y="171" on="0"/>
        <pt x="317" y="135" on="0"/>
      </contour>
      <contour>
        <pt x="364" y="117" on="1"/>
        <pt x="310" y="117" on="0"/>
        <pt x="221" y="155" on="0"/>
        <pt x="161" y="223" on="0"/>
        <pt x="134" y="317" on="0"/>
        <pt x="142" y="372" on="1"/>
        <pt x="150" y="427" on="0"/>
        <pt x="203" y="521" on="0"/>
        <pt x="282" y="590" on="0"/>
        <pt x="381" y="628" on="0"/>
        <pt x="435" y="628" on="1"/>
        <pt x="489" y="628" on="0"/>
        <pt x="577" y="590" on="0"/>
        <pt x="637" y="521" on="0"/>
        <pt x="664" y="427" on="0"/>
        <pt x="656" y="372" on="1"/>
        <pt x="648" y="317" on="0"/>
        <pt x="595" y="223" on="0"/>
        <pt x="517" y="155" on="0"/>
        <pt x="418" y="117" on="0"/>
      </contour>
      <contour>
        <pt x="462" y="246" on="1"/>
        <pt x="468" y="236" on="1"/>
        <pt x="448" y="225" on="0"/>
        <pt x="405" y="213" on="0"/>
        <pt x="382" y="213" on="1"/>
        <pt x="349" y="213" on="0"/>
        <pt x="293" y="239" on="0"/>
        <pt x="256" y="283" on="0"/>
        <pt x="239" y="342" on="0"/>
        <pt x="244" y="375" on="1"/>
        <pt x="248" y="409" on="0"/>
        <pt x="282" y="468" on="0"/>
        <pt x="332" y="512" on="0"/>
        <pt x="395" y="537" on="0"/>
        <pt x="428" y="537" on="1"/>
        <pt x="472" y="537" on="0"/>
        <pt x="507" y="515" on="1"/>
        <pt x="505" y="512" on="0"/>
        <pt x="501" y="507" on="0"/>
        <pt x="499" y="504" on="1"/>
        <pt x="469" y="525" on="0"/>
        <pt x="426" y="525" on="1"/>
        <pt x="395" y="525" on="0"/>
        <pt x="338" y="501" on="0"/>
        <pt x="292" y="460" on="0"/>
        <pt x="260" y="405" on="0"/>
        <pt x="256" y="374" on="1"/>
        <pt x="252" y="343" on="0"/>
        <pt x="268" y="289" on="0"/>
        <pt x="302" y="249" on="0"/>
        <pt x="353" y="226" on="0"/>
        <pt x="383" y="226" on="1"/>
        <pt x="425" y="226" on="0"/>
      </contour>
    </TTGlyph>
    <TTGlyph name="currency" xMin="86" yMin="214" xMax="406" yMax="501">
      <contour>
        <pt x="137" y="361" on="1"/>
        <pt x="134" y="338" on="0"/>
        <pt x="146" y="298" on="0"/>
        <pt x="171" y="268" on="0"/>
        <pt x="208" y="250" on="0"/>
        <pt x="231" y="250" on="1"/>
        <pt x="254" y="250" on="0"/>
        <pt x="297" y="268" on="0"/>
        <pt x="331" y="298" on="0"/>
        <pt x="354" y="338" on="0"/>
        <pt x="357" y="361" on="1"/>
        <pt x="360" y="384" on="0"/>
        <pt x="349" y="424" on="0"/>
        <pt x="323" y="454" on="0"/>
        <pt x="286" y="472" on="0"/>
        <pt x="263" y="472" on="1"/>
        <pt x="240" y="472" on="0"/>
        <pt x="198" y="454" on="0"/>
        <pt x="164" y="424" on="0"/>
        <pt x="140" y="384" on="0"/>
      </contour>
      <contour>
        <pt x="109" y="361" on="1"/>
        <pt x="113" y="385" on="0"/>
        <pt x="134" y="428" on="0"/>
        <pt x="151" y="446" on="1"/>
        <pt x="143" y="455" on="0"/>
        <pt x="129" y="472" on="0"/>
        <pt x="121" y="481" on="1"/>
        <pt x="144" y="501" on="1"/>
        <pt x="174" y="466" on="1"/>
        <pt x="194" y="481" on="0"/>
        <pt x="241" y="499" on="0"/>
        <pt x="267" y="499" on="1"/>
        <pt x="292" y="499" on="0"/>
        <pt x="335" y="481" on="0"/>
        <pt x="349" y="465" on="1"/>
        <pt x="390" y="500" on="1"/>
        <pt x="406" y="481" on="1"/>
        <pt x="367" y="446" on="1"/>
        <pt x="379" y="429" on="0"/>
        <pt x="389" y="385" on="0"/>
        <pt x="385" y="361" on="1"/>
        <pt x="378" y="311" on="0"/>
        <pt x="340" y="273" on="1"/>
        <pt x="373" y="235" on="1"/>
        <pt x="350" y="215" on="1"/>
        <pt x="342" y="225" on="0"/>
        <pt x="325" y="243" on="0"/>
        <pt x="317" y="253" on="1"/>
        <pt x="276" y="223" on="0"/>
        <pt x="227" y="223" on="1"/>
        <pt x="179" y="223" on="0"/>
        <pt x="147" y="252" on="1"/>
        <pt x="103" y="214" on="1"/>
        <pt x="86" y="234" on="1"/>
        <pt x="129" y="272" on="1"/>
        <pt x="117" y="290" on="0"/>
        <pt x="106" y="335" on="0"/>
      </contour>
    </TTGlyph>
    <TTGlyph name="d" xMin="74" yMin="-7" xMax="550" yMax="750">
      <contour>
        <pt x="108" y="188" on="1"/>
        <pt x="103" y="153" on="0"/>
        <pt x="120" y="92" on="0"/>
        <pt x="159" y="47" on="0"/>
        <pt x="217" y="21" on="0"/>
        <pt x="252" y="21" on="1"/>
        <pt x="287" y="21" on="0"/>
        <pt x="352" y="47" on="0"/>
        <pt x="404" y="92" on="0"/>
        <pt x="438" y="153" on="0"/>
        <pt x="443" y="188" on="1"/>
        <pt x="448" y="223" on="0"/>
        <pt x="430" y="284" on="0"/>
        <pt x="391" y="330" on="0"/>
        <pt x="333" y="356" on="0"/>
        <pt x="298" y="356" on="1"/>
        <pt x="263" y="356" on="0"/>
        <pt x="199" y="330" on="0"/>
        <pt x="147" y="284" on="0"/>
        <pt x="113" y="223" on="0"/>
      </contour>
      <contour>
        <pt x="80" y="188" on="1"/>
        <pt x="86" y="230" on="0"/>
        <pt x="126" y="301" on="0"/>
        <pt x="186" y="354" on="0"/>
        <pt x="261" y="383" on="0"/>
        <pt x="302" y="383" on="1"/>
        <pt x="332" y="383" on="0"/>
        <pt x="384" y="366" on="0"/>
        <pt x="425" y="336" on="0"/>
        <pt x="452" y="296" on="0"/>
        <pt x="457" y="274" on="1"/>
        <pt x="459" y="287" on="0"/>
        <pt x="461" y="311" on="0"/>
        <pt x="463" y="324" on="1"/>
        <pt x="522" y="750" on="1"/>
        <pt x="550" y="750" on="1"/>
        <pt x="445" y="0" on="1"/>
        <pt x="419" y="0" on="1"/>
        <pt x="426" y="50" on="1"/>
        <pt x="428" y="63" on="0"/>
        <pt x="432" y="88" on="0"/>
        <pt x="434" y="102" on="1"/>
        <pt x="422" y="80" on="0"/>
        <pt x="384" y="41" on="0"/>
        <pt x="336" y="11" on="0"/>
        <pt x="279" y="-7" on="0"/>
        <pt x="248" y="-7" on="1"/>
        <pt x="207" y="-7" on="0"/>
        <pt x="140" y="24" on="0"/>
        <pt x="95" y="76" on="0"/>
        <pt x="74" y="147" on="0"/>
      </contour>
    </TTGlyph>
    <TTGlyph name="degree" xMin="50" yMin="479" xMax="223" yMax="641">
      <contour>
        <pt x="129" y="501" on="1"/>
        <pt x="154" y="501" on="0"/>
        <pt x="194" y="534" on="0"/>
        <pt x="197" y="560" on="1"/>
        <pt x="200" y="585" on="0"/>
        <pt x="170" y="619" on="0"/>
        <pt x="146" y="619" on="1"/>
        <pt x="120" y="619" on="0"/>
        <pt x="81" y="585" on="0"/>
        <pt x="78" y="560" on="1"/>
        <pt x="74" y="534" on="0"/>
        <pt x="104" y="501" on="0"/>
      </contour>
      <contour>
        <pt x="55" y="559" on="1"/>
        <pt x="60" y="594" on="0"/>
        <pt x="114" y="641" on="0"/>
        <pt x="149" y="641" on="1"/>
        <pt x="183" y="641" on="0"/>
        <pt x="223" y="594" on="0"/>
        <pt x="218" y="559" on="1"/>
        <pt x="213" y="525" on="0"/>
        <pt x="161" y="479" on="0"/>
        <pt x="126" y="479" on="1"/>
        <pt x="91" y="479" on="0"/>
        <pt x="50" y="525" on="0"/>
      </contour>
    </TTGlyph>
    <TTGlyph name="dieresis" xMin="73" yMin="478" xMax="295" yMax="531">
      <contour>
        <pt x="240" y="504" on="1"/>
        <pt x="242" y="515" on="0"/>
        <pt x="259" y="531" on="0"/>
        <pt x="270" y="531" on="1"/>
        <pt x="281" y="531" on="0"/>
        <pt x="295" y="515" on="0"/>
        <pt x="293" y="504" on="1"/>
        <pt x="291" y="493" on="0"/>
        <pt x="274" y="478" on="0"/>
        <pt x="263" y="478" on="1"/>
        <pt x="252" y="478" on="0"/>
        <pt x="238" y="493" on="0"/>
      </contour>
      <contour>
        <pt x="75" y="504" on="1"/>
        <pt x="77" y="515" on="0"/>
        <pt x="94" y="531" on="0"/>
        <pt x="105" y="531" on="1"/>
        <pt x="116" y="531" on="0"/>
        <pt x="130" y="515" on="0"/>
        <pt x="128" y="504" on="1"/>
        <pt x="126" y="493" on="0"/>
        <pt x="109" y="478" on="0"/>
        <pt x="98" y="478" on="1"/>
        <pt x="87" y="478" on="0"/>
        <pt x="73" y="493" on="0"/>
      </contour>
    </TTGlyph>
    <TTGlyph name="divide" xMin="66" yMin="71" xMax="429" yMax="374">
      <contour>
        <pt x="426" y="209" on="1"/>
        <pt x="66" y="209" on="1"/>
        <pt x="69" y="237" on="1"/>
        <pt x="429" y="237" on="1"/>
      </contour>
      <contour>
        <pt x="242" y="347" on="1"/>
        <pt x="244" y="358" on="0"/>
        <pt x="261" y="374" on="0"/>
        <pt x="272" y="374" on="1"/>
        <pt x="283" y="374" on="0"/>
        <pt x="296" y="358" on="0"/>
        <pt x="294" y="347" on="1"/>
        <pt x="293" y="336" on="0"/>
        <pt x="275" y="321" on="0"/>
        <pt x="264" y="321" on="1"/>
        <pt x="253" y="321" on="0"/>
        <pt x="240" y="336" on="0"/>
      </contour>
      <contour>
        <pt x="207" y="97" on="1"/>
        <pt x="208" y="108" on="0"/>
        <pt x="226" y="124" on="0"/>
        <pt x="237" y="124" on="1"/>
        <pt x="248" y="124" on="0"/>
        <pt x="261" y="108" on="0"/>
        <pt x="259" y="97" on="1"/>
        <pt x="257" y="86" on="0"/>
        <pt x="240" y="71" on="0"/>
        <pt x="229" y="71" on="1"/>
        <pt x="218" y="71" on="0"/>
        <pt x="205" y="86" on="0"/>
      </contour>
    </TTGlyph>
    <TTGlyph name="dollar" xMin="36" yMin="-68" xMax="468" yMax="764">
      <contour>
        <pt x="147" y="527" on="1"/>
        <pt x="139" y="471" on="0"/>
        <pt x="194" y="415" on="0"/>
        <pt x="247" y="397" on="1"/>
        <pt x="254" y="393" on="0"/>
        <pt x="263" y="391" on="1"/>
        <pt x="304" y="676" on="1"/>
        <pt x="269" y="674" on="0"/>
        <pt x="215" y="648" on="0"/>
        <pt x="175" y="607" on="0"/>
        <pt x="151" y="555" on="0"/>
      </contour>
      <contour>
        <pt x="432" y="183" on="1"/>
        <pt x="438" y="223" on="0"/>
        <pt x="415" y="279" on="0"/>
        <pt x="372" y="317" on="0"/>
        <pt x="314" y="342" on="0"/>
        <pt x="286" y="352" on="1"/>
        <pt x="239" y="20" on="1"/>
        <pt x="273" y="22" on="0"/>
        <pt x="339" y="47" on="0"/>
        <pt x="392" y="89" on="0"/>
        <pt x="427" y="147" on="0"/>
      </contour>
      <contour>
        <pt x="467" y="644" on="1"/>
        <pt x="462" y="639" on="0"/>
        <pt x="453" y="627" on="0"/>
        <pt x="448" y="622" on="1"/>
        <pt x="434" y="637" on="0"/>
        <pt x="375" y="672" on="0"/>
        <pt x="332" y="676" on="1"/>
        <pt x="290" y="381" on="1"/>
        <pt x="320" y="370" on="0"/>
        <pt x="386" y="343" on="0"/>
        <pt x="438" y="300" on="0"/>
        <pt x="468" y="234" on="0"/>
        <pt x="461" y="186" on="1"/>
        <pt x="455" y="143" on="0"/>
        <pt x="414" y="74" on="0"/>
        <pt x="353" y="24" on="0"/>
        <pt x="277" y="-5" on="0"/>
        <pt x="235" y="-7" on="1"/>
        <pt x="227" y="-68" on="1"/>
        <pt x="199" y="-68" on="1"/>
        <pt x="207" y="-7" on="1"/>
        <pt x="171" y="-5" on="0"/>
        <pt x="114" y="16" on="0"/>
        <pt x="72" y="44" on="0"/>
        <pt x="44" y="73" on="0"/>
        <pt x="36" y="84" on="1"/>
        <pt x="58" y="104" on="1"/>
        <pt x="70" y="90" on="0"/>
        <pt x="99" y="62" on="0"/>
        <pt x="137" y="38" on="0"/>
        <pt x="183" y="21" on="0"/>
        <pt x="211" y="20" on="1"/>
        <pt x="259" y="362" on="1"/>
        <pt x="257" y="363" on="0"/>
        <pt x="252" y="364" on="0"/>
        <pt x="250" y="366" on="1"/>
        <pt x="232" y="372" on="0"/>
        <pt x="184" y="391" on="0"/>
        <pt x="142" y="425" on="0"/>
        <pt x="115" y="478" on="0"/>
        <pt x="118" y="517" on="1"/>
        <pt x="120" y="549" on="0"/>
        <pt x="146" y="613" on="0"/>
        <pt x="194" y="666" on="0"/>
        <pt x="262" y="701" on="0"/>
        <pt x="307" y="703" on="1"/>
        <pt x="316" y="764" on="1"/>
        <pt x="344" y="764" on="1"/>
        <pt x="335" y="703" on="1"/>
        <pt x="370" y="701" on="0"/>
        <pt x="435" y="674" on="0"/>
      </contour>
    </TTGlyph>
    <TTGlyph name="e" xMin="56" yMin="-7" xMax="436" yMax="383">
      <contour>
        <pt x="280" y="356" on="1"/>
        <pt x="244" y="356" on="0"/>
        <pt x="181" y="333" on="0"/>
        <pt x="132" y="291" on="0"/>
        <pt x="98" y="233" on="0"/>
        <pt x="92" y="197" on="1"/>
        <pt x="88" y="170" on="0"/>
        <pt x="89" y="147" on="1"/>
        <pt x="168" y="177" on="0"/>
        <pt x="325" y="236" on="0"/>
        <pt x="403" y="266" on="1"/>
        <pt x="389" y="306" on="0"/>
        <pt x="325" y="356" on="0"/>
      </contour>
      <contour>
        <pt x="436" y="251" on="1"/>
        <pt x="350" y="218" on="0"/>
        <pt x="180" y="154" on="0"/>
        <pt x="95" y="121" on="1"/>
        <pt x="107" y="76" on="0"/>
        <pt x="181" y="21" on="0"/>
        <pt x="234" y="21" on="1"/>
        <pt x="267" y="21" on="0"/>
        <pt x="329" y="45" on="0"/>
        <pt x="355" y="66" on="1"/>
        <pt x="358" y="61" on="0"/>
        <pt x="365" y="51" on="0"/>
        <pt x="369" y="46" on="1"/>
        <pt x="339" y="21" on="0"/>
        <pt x="269" y="-7" on="0"/>
        <pt x="230" y="-7" on="1"/>
        <pt x="189" y="-7" on="0"/>
        <pt x="122" y="24" on="0"/>
        <pt x="77" y="76" on="0"/>
        <pt x="56" y="147" on="0"/>
        <pt x="62" y="188" on="1"/>
        <pt x="68" y="232" on="0"/>
        <pt x="106" y="304" on="0"/>
        <pt x="165" y="355" on="0"/>
        <pt x="241" y="383" on="0"/>
        <pt x="284" y="383" on="1"/>
        <pt x="344" y="383" on="0"/>
        <pt x="425" y="309" on="0"/>
      </contour>
    </TTGlyph>
    <TTGlyph name="eacute" xMin="56" yMin="-7" xMax="436" yMax="612">
      <component glyphName="e" x="0" y="0" flags="0x204"/>
      <component glyphName="acute" x="198" y="0" flags="0x4"/>
    </TTGlyph>
    <TTGlyph name="ecircumflex" xMin="56" yMin="-7" xMax="436" yMax="660">
      <component glyphName="e" x="0" y="0" flags="0x204"/>
      <component glyphName="asciicircum" x="80" y="0" flags="0x4"/>
    </TTGlyph>
    <TTGlyph name="edieresis" xMin="56" yMin="-7" xMax="436" yMax="531">
      <component glyphName="e" x="0" y="0" flags="0x204"/>
      <component glyphName="dieresis" x="110" y="0" flags="0x4"/>
    </TTGlyph>
    <TTGlyph name="egrave" xMin="56" yMin="-7" xMax="436" yMax="612">
      <component glyphName="e" x="0" y="0" flags="0x204"/>
      <component glyphName="grave" x="209" y="0" flags="0x4"/>
    </TTGlyph>
    <TTGlyph name="eight" xMin="25" yMin="-8" xMax="449" yMax="658">
      <contour>
        <pt x="159" y="508" on="1"/>
        <pt x="156" y="485" on="0"/>
        <pt x="169" y="446" on="0"/>
        <pt x="197" y="418" on="0"/>
        <pt x="239" y="402" on="0"/>
        <pt x="264" y="402" on="1"/>
        <pt x="315" y="402" on="0"/>
        <pt x="390" y="462" on="0"/>
        <pt x="397" y="508" on="1"/>
        <pt x="400" y="533" on="0"/>
        <pt x="388" y="577" on="0"/>
        <pt x="361" y="611" on="0"/>
        <pt x="321" y="631" on="0"/>
        <pt x="296" y="631" on="1"/>
        <pt x="271" y="631" on="0"/>
        <pt x="224" y="611" on="0"/>
        <pt x="187" y="577" on="0"/>
        <pt x="162" y="533" on="0"/>
      </contour>
      <contour>
        <pt x="59" y="198" on="1"/>
        <pt x="54" y="162" on="0"/>
        <pt x="73" y="97" on="0"/>
        <pt x="113" y="48" on="0"/>
        <pt x="173" y="19" on="0"/>
        <pt x="210" y="19" on="1"/>
        <pt x="247" y="19" on="0"/>
        <pt x="317" y="48" on="0"/>
        <pt x="373" y="97" on="0"/>
        <pt x="411" y="162" on="0"/>
        <pt x="416" y="198" on="1"/>
        <pt x="421" y="234" on="0"/>
        <pt x="402" y="298" on="0"/>
        <pt x="359" y="346" on="0"/>
        <pt x="297" y="373" on="0"/>
        <pt x="260" y="373" on="1"/>
        <pt x="223" y="373" on="0"/>
        <pt x="155" y="346" on="0"/>
        <pt x="101" y="298" on="0"/>
        <pt x="65" y="234" on="0"/>
      </contour>
      <contour>
        <pt x="31" y="198" on="1"/>
        <pt x="36" y="232" on="0"/>
        <pt x="66" y="293" on="0"/>
        <pt x="110" y="343" on="0"/>
        <pt x="167" y="380" on="0"/>
        <pt x="199" y="389" on="1"/>
        <pt x="164" y="404" on="0"/>
        <pt x="125" y="471" on="0"/>
        <pt x="132" y="514" on="1"/>
        <pt x="136" y="544" on="0"/>
        <pt x="166" y="596" on="0"/>
        <pt x="211" y="635" on="0"/>
        <pt x="268" y="658" on="0"/>
        <pt x="298" y="658" on="1"/>
        <pt x="329" y="658" on="0"/>
        <pt x="379" y="635" on="0"/>
        <pt x="414" y="595" on="0"/>
        <pt x="429" y="541" on="0"/>
        <pt x="425" y="511" on="1"/>
        <pt x="419" y="469" on="0"/>
        <pt x="364" y="405" on="0"/>
        <pt x="325" y="389" on="1"/>
        <pt x="355" y="380" on="0"/>
        <pt x="404" y="344" on="0"/>
        <pt x="436" y="294" on="0"/>
        <pt x="449" y="232" on="0"/>
        <pt x="444" y="198" on="1"/>
        <pt x="438" y="155" on="0"/>
        <pt x="395" y="80" on="0"/>
        <pt x="330" y="24" on="0"/>
        <pt x="250" y="-8" on="0"/>
        <pt x="208" y="-8" on="1"/>
        <pt x="166" y="-8" on="0"/>
        <pt x="95" y="24" on="0"/>
        <pt x="47" y="80" on="0"/>
        <pt x="25" y="155" on="0"/>
      </contour>
    </TTGlyph>
    <TTGlyph name="emdash" xMin="97" yMin="178" xMax="602" yMax="205">
      <contour>
        <pt x="97" y="178" on="1"/>
        <pt x="100" y="205" on="1"/>
        <pt x="602" y="205" on="1"/>
        <pt x="599" y="178" on="1"/>
      </contour>
    </TTGlyph>
    <TTGlyph name="endash" xMin="98" yMin="178" xMax="402" yMax="205">
      <contour>
        <pt x="98" y="178" on="1"/>
        <pt x="101" y="205" on="1"/>
        <pt x="402" y="205" on="1"/>
        <pt x="399" y="178" on="1"/>
      </contour>
    </TTGlyph>
    <TTGlyph name="equal" xMin="84" yMin="142" xMax="621" yMax="364">
      <contour>
        <pt x="594" y="170" on="1"/>
        <pt x="590" y="142" on="1"/>
        <pt x="84" y="142" on="1"/>
        <pt x="88" y="170" on="1"/>
      </contour>
      <contour>
        <pt x="621" y="364" on="1"/>
        <pt x="617" y="336" on="1"/>
        <pt x="111" y="336" on="1"/>
        <pt x="115" y="364" on="1"/>
      </contour>
    </TTGlyph>
    <TTGlyph name="eth" xMin="23" yMin="-6" xMax="426" yMax="728">
      <contour>
        <pt x="55" y="188" on="1"/>
        <pt x="50" y="153" on="0"/>
        <pt x="68" y="92" on="0"/>
        <pt x="107" y="47" on="0"/>
        <pt x="165" y="21" on="0"/>
        <pt x="200" y="21" on="1"/>
        <pt x="235" y="21" on="0"/>
        <pt x="300" y="48" on="0"/>
        <pt x="352" y="93" on="0"/>
        <pt x="386" y="154" on="0"/>
        <pt x="391" y="189" on="1"/>
        <pt x="395" y="224" on="0"/>
        <pt x="378" y="286" on="0"/>
        <pt x="339" y="331" on="0"/>
        <pt x="281" y="356" on="0"/>
        <pt x="246" y="356" on="1"/>
        <pt x="211" y="356" on="0"/>
        <pt x="146" y="330" on="0"/>
        <pt x="94" y="284" on="0"/>
        <pt x="60" y="223" on="0"/>
      </contour>
      <contour>
        <pt x="168" y="544" on="1"/>
        <pt x="189" y="563" on="0"/>
        <pt x="231" y="602" on="0"/>
        <pt x="251" y="621" on="1"/>
        <pt x="214" y="671" on="0"/>
        <pt x="170" y="710" on="1"/>
        <pt x="175" y="715" on="0"/>
        <pt x="185" y="723" on="0"/>
        <pt x="190" y="728" on="1"/>
        <pt x="231" y="692" on="0"/>
        <pt x="272" y="641" on="1"/>
        <pt x="291" y="659" on="0"/>
        <pt x="329" y="694" on="0"/>
        <pt x="347" y="712" on="1"/>
        <pt x="352" y="708" on="0"/>
        <pt x="359" y="700" on="0"/>
        <pt x="363" y="696" on="1"/>
        <pt x="343" y="678" on="0"/>
        <pt x="305" y="641" on="0"/>
        <pt x="285" y="622" on="1"/>
        <pt x="318" y="575" on="0"/>
        <pt x="373" y="468" on="0"/>
        <pt x="411" y="356" on="0"/>
        <pt x="426" y="243" on="0"/>
        <pt x="419" y="190" on="1"/>
        <pt x="413" y="149" on="0"/>
        <pt x="373" y="78" on="0"/>
        <pt x="313" y="25" on="0"/>
        <pt x="238" y="-6" on="0"/>
        <pt x="197" y="-6" on="1"/>
        <pt x="156" y="-6" on="0"/>
        <pt x="90" y="23" on="0"/>
        <pt x="44" y="76" on="0"/>
        <pt x="23" y="146" on="0"/>
        <pt x="28" y="187" on="1"/>
        <pt x="34" y="227" on="0"/>
        <pt x="74" y="299" on="0"/>
        <pt x="134" y="352" on="0"/>
        <pt x="209" y="384" on="0"/>
        <pt x="250" y="384" on="1"/>
        <pt x="295" y="384" on="0"/>
        <pt x="363" y="344" on="0"/>
        <pt x="383" y="312" on="1"/>
        <pt x="378" y="365" on="0"/>
        <pt x="324" y="517" on="0"/>
        <pt x="264" y="602" on="1"/>
        <pt x="244" y="583" on="0"/>
        <pt x="204" y="546" on="0"/>
        <pt x="184" y="527" on="1"/>
        <pt x="179" y="532" on="0"/>
        <pt x="172" y="539" on="0"/>
      </contour>
    </TTGlyph>
    <TTGlyph name="exclam" xMin="25" yMin="29" xMax="163" yMax="750">
      <contour>
        <pt x="48" y="29" on="1"/>
        <pt x="38" y="29" on="0"/>
        <pt x="25" y="44" on="0"/>
        <pt x="26" y="55" on="1"/>
        <pt x="27" y="67" on="0"/>
        <pt x="46" y="82" on="0"/>
        <pt x="55" y="82" on="1"/>
        <pt x="66" y="82" on="0"/>
        <pt x="79" y="67" on="0"/>
        <pt x="78" y="55" on="1"/>
        <pt x="76" y="44" on="0"/>
        <pt x="58" y="29" on="0"/>
        <pt x="48" y="29" on="1"/>
      </contour>
      <contour>
        <pt x="135" y="750" on="1"/>
        <pt x="163" y="750" on="1"/>
        <pt x="81" y="166" on="1"/>
        <pt x="53" y="166" on="1"/>
      </contour>
    </TTGlyph>
    <TTGlyph name="exclamdown" xMin="34" yMin="-210" xMax="173" yMax="511">
      <contour>
        <pt x="149" y="511" on="1"/>
        <pt x="160" y="511" on="0"/>
        <pt x="173" y="496" on="0"/>
        <pt x="172" y="485" on="1"/>
        <pt x="170" y="473" on="0"/>
        <pt x="152" y="458" on="0"/>
        <pt x="142" y="458" on="1"/>
        <pt x="132" y="458" on="0"/>
        <pt x="119" y="473" on="0"/>
        <pt x="120" y="485" on="1"/>
        <pt x="122" y="496" on="0"/>
        <pt x="140" y="511" on="0"/>
      </contour>
      <contour>
        <pt x="116" y="374" on="1"/>
        <pt x="143" y="374" on="1"/>
        <pt x="61" y="-210" on="1"/>
        <pt x="34" y="-210" on="1"/>
      </contour>
    </TTGlyph>
    <TTGlyph name="f" xMin="70" yMin="0" xMax="388" yMax="750">
      <contour>
        <pt x="70" y="347" on="1"/>
        <pt x="74" y="374" on="1"/>
        <pt x="139" y="374" on="1"/>
        <pt x="159" y="518" on="1"/>
        <pt x="167" y="573" on="0"/>
        <pt x="210" y="659" on="0"/>
        <pt x="271" y="717" on="0"/>
        <pt x="347" y="748" on="0"/>
        <pt x="388" y="750" on="1"/>
        <pt x="384" y="723" on="1"/>
        <pt x="350" y="723" on="0"/>
        <pt x="285" y="694" on="0"/>
        <pt x="231" y="642" on="0"/>
        <pt x="194" y="567" on="0"/>
        <pt x="187" y="520" on="1"/>
        <pt x="167" y="374" on="1"/>
        <pt x="294" y="374" on="1"/>
        <pt x="290" y="347" on="1"/>
        <pt x="163" y="347" on="1"/>
        <pt x="115" y="0" on="1"/>
        <pt x="87" y="0" on="1"/>
        <pt x="135" y="347" on="1"/>
      </contour>
    </TTGlyph>
    <TTGlyph name="five" xMin="74" yMin="-8" xMax="476" yMax="650">
      <contour>
        <pt x="144" y="331" on="1"/>
        <pt x="189" y="650" on="1"/>
        <pt x="476" y="650" on="1"/>
        <pt x="472" y="623" on="1"/>
        <pt x="213" y="623" on="1"/>
        <pt x="179" y="382" on="1"/>
        <pt x="200" y="390" on="0"/>
        <pt x="243" y="401" on="0"/>
        <pt x="265" y="401" on="1"/>
        <pt x="308" y="401" on="0"/>
        <pt x="379" y="369" on="0"/>
        <pt x="428" y="314" on="0"/>
        <pt x="451" y="240" on="0"/>
        <pt x="445" y="198" on="1"/>
        <pt x="439" y="155" on="0"/>
        <pt x="395" y="80" on="0"/>
        <pt x="331" y="24" on="0"/>
        <pt x="250" y="-8" on="0"/>
        <pt x="208" y="-8" on="1"/>
        <pt x="166" y="-8" on="0"/>
        <pt x="98" y="22" on="0"/>
        <pt x="74" y="49" on="1"/>
        <pt x="80" y="54" on="0"/>
        <pt x="91" y="63" on="0"/>
        <pt x="98" y="68" on="1"/>
        <pt x="118" y="45" on="0"/>
        <pt x="175" y="19" on="0"/>
        <pt x="210" y="19" on="1"/>
        <pt x="247" y="19" on="0"/>
        <pt x="318" y="48" on="0"/>
        <pt x="374" y="97" on="0"/>
        <pt x="412" y="162" on="0"/>
        <pt x="417" y="198" on="1"/>
        <pt x="422" y="234" on="0"/>
        <pt x="402" y="298" on="0"/>
        <pt x="360" y="346" on="0"/>
        <pt x="297" y="373" on="0"/>
        <pt x="260" y="373" on="1"/>
        <pt x="225" y="373" on="0"/>
        <pt x="164" y="350" on="0"/>
      </contour>
    </TTGlyph>
    <TTGlyph name="four" xMin="16" yMin="0" xMax="483" yMax="658">
      <contour>
        <pt x="409" y="576" on="1"/>
        <pt x="326" y="484" on="0"/>
        <pt x="161" y="302" on="0"/>
        <pt x="77" y="210" on="1"/>
        <pt x="358" y="210" on="1"/>
      </contour>
      <contour>
        <pt x="16" y="183" on="1"/>
        <pt x="125" y="302" on="0"/>
        <pt x="340" y="539" on="0"/>
        <pt x="449" y="658" on="1"/>
        <pt x="386" y="210" on="1"/>
        <pt x="483" y="210" on="1"/>
        <pt x="479" y="183" on="1"/>
        <pt x="382" y="183" on="1"/>
        <pt x="356" y="0" on="1"/>
        <pt x="328" y="0" on="1"/>
        <pt x="354" y="183" on="1"/>
      </contour>
    </TTGlyph>
    <TTGlyph name="g" xMin="69" yMin="-250" xMax="492" yMax="383">
      <contour>
        <pt x="103" y="188" on="1"/>
        <pt x="98" y="153" on="0"/>
        <pt x="115" y="92" on="0"/>
        <pt x="154" y="47" on="0"/>
        <pt x="212" y="21" on="0"/>
        <pt x="247" y="21" on="1"/>
        <pt x="282" y="21" on="0"/>
        <pt x="347" y="47" on="0"/>
        <pt x="399" y="92" on="0"/>
        <pt x="434" y="153" on="0"/>
        <pt x="439" y="188" on="1"/>
        <pt x="444" y="223" on="0"/>
        <pt x="426" y="284" on="0"/>
        <pt x="387" y="330" on="0"/>
        <pt x="329" y="356" on="0"/>
        <pt x="294" y="356" on="1"/>
        <pt x="259" y="356" on="0"/>
        <pt x="194" y="330" on="0"/>
        <pt x="142" y="284" on="0"/>
        <pt x="108" y="223" on="0"/>
      </contour>
      <contour>
        <pt x="471" y="375" on="1"/>
        <pt x="492" y="375" on="1"/>
        <pt x="437" y="-18" on="1"/>
        <pt x="436" y="-26" on="1"/>
        <pt x="428" y="-79" on="0"/>
        <pt x="387" y="-161" on="0"/>
        <pt x="329" y="-218" on="0"/>
        <pt x="256" y="-249" on="0"/>
        <pt x="217" y="-250" on="1"/>
        <pt x="175" y="-248" on="0"/>
        <pt x="96" y="-221" on="0"/>
        <pt x="73" y="-190" on="1"/>
        <pt x="78" y="-185" on="0"/>
        <pt x="91" y="-176" on="0"/>
        <pt x="97" y="-171" on="1"/>
        <pt x="117" y="-198" on="0"/>
        <pt x="185" y="-222" on="0"/>
        <pt x="220" y="-222" on="1"/>
        <pt x="253" y="-222" on="0"/>
        <pt x="315" y="-194" on="0"/>
        <pt x="366" y="-143" on="0"/>
        <pt x="402" y="-71" on="0"/>
        <pt x="408" y="-27" on="1"/>
        <pt x="419" y="47" on="1"/>
        <pt x="421" y="61" on="0"/>
        <pt x="427" y="87" on="0"/>
        <pt x="429" y="101" on="1"/>
        <pt x="417" y="79" on="0"/>
        <pt x="379" y="40" on="0"/>
        <pt x="330" y="11" on="0"/>
        <pt x="273" y="-6" on="0"/>
        <pt x="243" y="-6" on="1"/>
        <pt x="202" y="-6" on="0"/>
        <pt x="135" y="24" on="0"/>
        <pt x="90" y="77" on="0"/>
        <pt x="69" y="147" on="0"/>
        <pt x="75" y="188" on="1"/>
        <pt x="81" y="232" on="0"/>
        <pt x="121" y="304" on="0"/>
        <pt x="181" y="355" on="0"/>
        <pt x="256" y="383" on="0"/>
        <pt x="297" y="383" on="1"/>
        <pt x="327" y="383" on="0"/>
        <pt x="379" y="366" on="0"/>
        <pt x="419" y="336" on="0"/>
        <pt x="447" y="296" on="0"/>
        <pt x="453" y="274" on="1"/>
        <pt x="456" y="299" on="0"/>
        <pt x="466" y="349" on="0"/>
      </contour>
    </TTGlyph>
    <TTGlyph name="germandbls" xMin="32" yMin="-8" xMax="475" yMax="658">
      <contour>
        <pt x="135" y="19" on="1"/>
        <pt x="139" y="26" on="0"/>
        <pt x="146" y="37" on="0"/>
        <pt x="150" y="43" on="1"/>
        <pt x="187" y="18" on="0"/>
        <pt x="236" y="18" on="1"/>
        <pt x="273" y="18" on="0"/>
        <pt x="343" y="47" on="0"/>
        <pt x="399" y="96" on="0"/>
        <pt x="437" y="162" on="0"/>
        <pt x="442" y="198" on="1"/>
        <pt x="447" y="234" on="0"/>
        <pt x="427" y="297" on="0"/>
        <pt x="385" y="345" on="0"/>
        <pt x="324" y="373" on="0"/>
        <pt x="287" y="373" on="1"/>
        <pt x="288" y="376" on="0"/>
        <pt x="288" y="383" on="0"/>
        <pt x="289" y="387" on="1"/>
        <pt x="291" y="401" on="1"/>
        <pt x="315" y="401" on="0"/>
        <pt x="360" y="417" on="0"/>
        <pt x="396" y="445" on="0"/>
        <pt x="420" y="484" on="0"/>
        <pt x="423" y="508" on="1"/>
        <pt x="426" y="532" on="0"/>
        <pt x="415" y="576" on="0"/>
        <pt x="389" y="610" on="0"/>
        <pt x="349" y="630" on="0"/>
        <pt x="324" y="630" on="1"/>
        <pt x="291" y="630" on="0"/>
        <pt x="229" y="602" on="0"/>
        <pt x="177" y="549" on="0"/>
        <pt x="140" y="474" on="0"/>
        <pt x="133" y="428" on="1"/>
        <pt x="73" y="0" on="1"/>
        <pt x="45" y="0" on="1"/>
        <pt x="96" y="363" on="1"/>
        <pt x="32" y="363" on="1"/>
        <pt x="35" y="390" on="1"/>
        <pt x="100" y="390" on="1"/>
        <pt x="105" y="425" on="1"/>
        <pt x="112" y="480" on="0"/>
        <pt x="155" y="566" on="0"/>
        <pt x="215" y="625" on="0"/>
        <pt x="289" y="657" on="0"/>
        <pt x="327" y="658" on="1"/>
        <pt x="357" y="657" on="0"/>
        <pt x="406" y="634" on="0"/>
        <pt x="440" y="594" on="0"/>
        <pt x="455" y="541" on="0"/>
        <pt x="451" y="511" on="1"/>
        <pt x="445" y="469" on="0"/>
        <pt x="390" y="405" on="0"/>
        <pt x="351" y="389" on="1"/>
        <pt x="381" y="380" on="0"/>
        <pt x="430" y="344" on="0"/>
        <pt x="462" y="294" on="0"/>
        <pt x="475" y="232" on="0"/>
        <pt x="470" y="198" on="1"/>
        <pt x="464" y="155" on="0"/>
        <pt x="421" y="80" on="0"/>
        <pt x="356" y="24" on="0"/>
        <pt x="276" y="-8" on="0"/>
        <pt x="234" y="-8" on="1"/>
        <pt x="179" y="-8" on="0"/>
      </contour>
    </TTGlyph>
    <TTGlyph name="grave" xMin="-11" yMin="479" xMax="88" yMax="612">
      <contour>
        <pt x="17" y="612" on="1"/>
        <pt x="35" y="579" on="0"/>
        <pt x="70" y="512" on="0"/>
        <pt x="88" y="479" on="1"/>
        <pt x="64" y="479" on="1"/>
        <pt x="44" y="512" on="0"/>
        <pt x="7" y="579" on="0"/>
        <pt x="-11" y="612" on="1"/>
      </contour>
    </TTGlyph>
    <TTGlyph name="greater" xMin="79" yMin="-15" xMax="553" yMax="491">
      <contour>
        <pt x="79" y="-15" on="1"/>
        <pt x="84" y="21" on="1"/>
        <pt x="187" y="75" on="0"/>
        <pt x="390" y="184" on="0"/>
        <pt x="493" y="238" on="1"/>
        <pt x="405" y="292" on="0"/>
        <pt x="233" y="401" on="0"/>
        <pt x="145" y="455" on="1"/>
        <pt x="150" y="491" on="1"/>
        <pt x="251" y="428" on="0"/>
        <pt x="451" y="301" on="0"/>
        <pt x="553" y="238" on="1"/>
        <pt x="434" y="175" on="0"/>
        <pt x="198" y="48" on="0"/>
      </contour>
    </TTGlyph>
    <TTGlyph name="guillemotleft" xMin="117" yMin="77" xMax="481" yMax="400">
      <contour>
        <pt x="436" y="77" on="1"/>
        <pt x="288" y="239" on="1"/>
        <pt x="336" y="280" on="0"/>
        <pt x="433" y="359" on="0"/>
        <pt x="481" y="400" on="1"/>
        <pt x="477" y="368" on="1"/>
        <pt x="441" y="336" on="0"/>
        <pt x="368" y="271" on="0"/>
        <pt x="332" y="239" on="1"/>
        <pt x="359" y="206" on="0"/>
        <pt x="413" y="141" on="0"/>
        <pt x="440" y="109" on="1"/>
      </contour>
      <contour>
        <pt x="265" y="77" on="1"/>
        <pt x="117" y="239" on="1"/>
        <pt x="165" y="280" on="0"/>
        <pt x="262" y="359" on="0"/>
        <pt x="310" y="400" on="1"/>
        <pt x="306" y="367" on="1"/>
        <pt x="270" y="335" on="0"/>
        <pt x="197" y="271" on="0"/>
        <pt x="161" y="239" on="1"/>
        <pt x="188" y="206" on="0"/>
        <pt x="242" y="141" on="0"/>
        <pt x="269" y="109" on="1"/>
      </contour>
    </TTGlyph>
    <TTGlyph name="guillemotright" xMin="94" yMin="77" xMax="459" yMax="400">
      <contour>
        <pt x="98" y="109" on="1"/>
        <pt x="134" y="141" on="0"/>
        <pt x="207" y="206" on="0"/>
        <pt x="244" y="239" on="1"/>
        <pt x="216" y="271" on="0"/>
        <pt x="162" y="336" on="0"/>
        <pt x="135" y="368" on="1"/>
        <pt x="139" y="400" on="1"/>
        <pt x="177" y="359" on="0"/>
        <pt x="250" y="280" on="0"/>
        <pt x="288" y="239" on="1"/>
        <pt x="94" y="77" on="1"/>
      </contour>
      <contour>
        <pt x="269" y="109" on="1"/>
        <pt x="305" y="141" on="0"/>
        <pt x="378" y="206" on="0"/>
        <pt x="415" y="239" on="1"/>
        <pt x="387" y="271" on="0"/>
        <pt x="333" y="335" on="0"/>
        <pt x="306" y="367" on="1"/>
        <pt x="310" y="400" on="1"/>
        <pt x="348" y="359" on="0"/>
        <pt x="421" y="280" on="0"/>
        <pt x="459" y="239" on="1"/>
        <pt x="265" y="77" on="1"/>
      </contour>
    </TTGlyph>
    <TTGlyph name="guilsinglleft" xMin="117" yMin="77" xMax="310" yMax="400">
      <contour>
        <pt x="265" y="77" on="1"/>
        <pt x="117" y="239" on="1"/>
        <pt x="165" y="280" on="0"/>
        <pt x="262" y="359" on="0"/>
        <pt x="310" y="400" on="1"/>
        <pt x="306" y="367" on="1"/>
        <pt x="270" y="335" on="0"/>
        <pt x="197" y="271" on="0"/>
        <pt x="161" y="239" on="1"/>
        <pt x="188" y="206" on="0"/>
        <pt x="242" y="141" on="0"/>
        <pt x="269" y="109" on="1"/>
      </contour>
    </TTGlyph>
    <TTGlyph name="guilsinglright" xMin="94" yMin="77" xMax="288" yMax="400">
      <contour>
        <pt x="98" y="109" on="1"/>
        <pt x="134" y="141" on="0"/>
        <pt x="207" y="206" on="0"/>
        <pt x="244" y="239" on="1"/>
        <pt x="216" y="271" on="0"/>
        <pt x="162" y="335" on="0"/>
        <pt x="135" y="367" on="1"/>
        <pt x="139" y="400" on="1"/>
        <pt x="177" y="359" on="0"/>
        <pt x="250" y="280" on="0"/>
        <pt x="288" y="239" on="1"/>
        <pt x="94" y="77" on="1"/>
      </contour>
    </TTGlyph>
    <TTGlyph name="h" xMin="110" yMin="0" xMax="461" yMax="750">
      <contour>
        <pt x="215" y="750" on="1"/>
        <pt x="243" y="750" on="1"/>
        <pt x="183" y="322" on="1"/>
        <pt x="173" y="277" on="1"/>
        <pt x="200" y="325" on="0"/>
        <pt x="295" y="382" on="0"/>
        <pt x="352" y="382" on="1"/>
        <pt x="406" y="382" on="0"/>
        <pt x="461" y="320" on="0"/>
        <pt x="455" y="270" on="1"/>
        <pt x="418" y="0" on="1"/>
        <pt x="390" y="0" on="1"/>
        <pt x="427" y="268" on="1"/>
        <pt x="431" y="303" on="0"/>
        <pt x="391" y="353" on="0"/>
        <pt x="348" y="355" on="1"/>
        <pt x="316" y="355" on="0"/>
        <pt x="255" y="334" on="0"/>
        <pt x="205" y="296" on="0"/>
        <pt x="171" y="243" on="0"/>
        <pt x="167" y="212" on="1"/>
        <pt x="138" y="0" on="1"/>
        <pt x="110" y="0" on="1"/>
      </contour>
    </TTGlyph>
    <TTGlyph name="hyphen" xMin="51" yMin="177" xMax="238" yMax="204">
      <contour>
        <pt x="51" y="177" on="1"/>
        <pt x="54" y="204" on="1"/>
        <pt x="238" y="204" on="1"/>
        <pt x="235" y="177" on="1"/>
      </contour>
    </TTGlyph>
    <TTGlyph name="i" xMin="80" yMin="0" xMax="193" yMax="531">
      <contour>
        <pt x="139" y="504" on="1"/>
        <pt x="140" y="515" on="0"/>
        <pt x="158" y="531" on="0"/>
        <pt x="169" y="531" on="1"/>
        <pt x="180" y="531" on="0"/>
        <pt x="193" y="515" on="0"/>
        <pt x="191" y="504" on="1"/>
        <pt x="189" y="493" on="0"/>
        <pt x="172" y="478" on="0"/>
        <pt x="161" y="478" on="1"/>
        <pt x="150" y="478" on="0"/>
        <pt x="137" y="493" on="0"/>
      </contour>
      <contour>
        <pt x="108" y="0" on="1"/>
        <pt x="80" y="0" on="1"/>
        <pt x="132" y="375" on="1"/>
        <pt x="160" y="375" on="1"/>
      </contour>
    </TTGlyph>
    <TTGlyph name="iacute" xMin="75" yMin="0" xMax="279" yMax="612">
      <contour>
        <pt x="103" y="0" on="1"/>
        <pt x="75" y="0" on="1"/>
        <pt x="127" y="375" on="1"/>
        <pt x="155" y="375" on="1"/>
      </contour>
      <contour>
        <pt x="140" y="479" on="1"/>
        <pt x="167" y="512" on="0"/>
        <pt x="222" y="579" on="0"/>
        <pt x="249" y="612" on="1"/>
        <pt x="279" y="612" on="1"/>
        <pt x="250" y="579" on="0"/>
        <pt x="193" y="512" on="0"/>
        <pt x="165" y="479" on="1"/>
      </contour>
    </TTGlyph>
    <TTGlyph name="icircumflex" xMin="57" yMin="0" xMax="297" yMax="660">
      <contour>
        <pt x="130" y="0" on="1"/>
        <pt x="102" y="0" on="1"/>
        <pt x="154" y="375" on="1"/>
        <pt x="182" y="375" on="1"/>
      </contour>
      <contour>
        <pt x="202" y="660" on="1"/>
        <pt x="226" y="615" on="0"/>
        <pt x="273" y="524" on="0"/>
        <pt x="297" y="479" on="1"/>
        <pt x="272" y="479" on="1"/>
        <pt x="253" y="514" on="0"/>
        <pt x="216" y="582" on="0"/>
        <pt x="196" y="617" on="1"/>
        <pt x="82" y="479" on="1"/>
        <pt x="57" y="479" on="1"/>
        <pt x="93" y="524" on="0"/>
        <pt x="166" y="615" on="0"/>
      </contour>
    </TTGlyph>
    <TTGlyph name="idieresis" xMin="94" yMin="0" xMax="316" yMax="531">
      <contour>
        <pt x="159" y="0" on="1"/>
        <pt x="131" y="0" on="1"/>
        <pt x="183" y="375" on="1"/>
        <pt x="211" y="375" on="1"/>
      </contour>
      <contour>
        <pt x="261" y="504" on="1"/>
        <pt x="263" y="515" on="0"/>
        <pt x="280" y="531" on="0"/>
        <pt x="291" y="531" on="1"/>
        <pt x="302" y="531" on="0"/>
        <pt x="316" y="515" on="0"/>
        <pt x="314" y="504" on="1"/>
        <pt x="312" y="493" on="0"/>
        <pt x="295" y="478" on="0"/>
        <pt x="284" y="478" on="1"/>
        <pt x="273" y="478" on="0"/>
        <pt x="259" y="493" on="0"/>
      </contour>
      <contour>
        <pt x="96" y="504" on="1"/>
        <pt x="98" y="515" on="0"/>
        <pt x="115" y="531" on="0"/>
        <pt x="126" y="531" on="1"/>
        <pt x="137" y="531" on="0"/>
        <pt x="151" y="515" on="0"/>
        <pt x="149" y="504" on="1"/>
        <pt x="147" y="493" on="0"/>
        <pt x="130" y="478" on="0"/>
        <pt x="119" y="478" on="1"/>
        <pt x="108" y="478" on="0"/>
        <pt x="94" y="493" on="0"/>
      </contour>
    </TTGlyph>
    <TTGlyph name="igrave" xMin="60" yMin="0" xMax="160" yMax="612">
      <contour>
        <pt x="108" y="0" on="1"/>
        <pt x="80" y="0" on="1"/>
        <pt x="132" y="375" on="1"/>
        <pt x="160" y="375" on="1"/>
      </contour>
      <contour>
        <pt x="88" y="612" on="1"/>
        <pt x="106" y="579" on="0"/>
        <pt x="141" y="512" on="0"/>
        <pt x="159" y="479" on="1"/>
        <pt x="135" y="479" on="1"/>
        <pt x="115" y="512" on="0"/>
        <pt x="78" y="579" on="0"/>
        <pt x="60" y="612" on="1"/>
      </contour>
    </TTGlyph>
    <TTGlyph name="j" xMin="26" yMin="-180" xMax="217" yMax="531">
      <contour>
        <pt x="163" y="504" on="1"/>
        <pt x="164" y="515" on="0"/>
        <pt x="182" y="531" on="0"/>
        <pt x="193" y="531" on="1"/>
        <pt x="204" y="531" on="0"/>
        <pt x="217" y="515" on="0"/>
        <pt x="215" y="504" on="1"/>
        <pt x="213" y="493" on="0"/>
        <pt x="196" y="478" on="0"/>
        <pt x="185" y="478" on="1"/>
        <pt x="174" y="478" on="0"/>
        <pt x="161" y="493" on="0"/>
      </contour>
      <contour>
        <pt x="44" y="-180" on="1"/>
        <pt x="39" y="-175" on="0"/>
        <pt x="31" y="-166" on="0"/>
        <pt x="26" y="-161" on="1"/>
        <pt x="55" y="-135" on="0"/>
        <pt x="95" y="-58" on="0"/>
        <pt x="102" y="-8" on="1"/>
        <pt x="156" y="375" on="1"/>
        <pt x="184" y="375" on="1"/>
        <pt x="131" y="-6" on="1"/>
        <pt x="123" y="-64" on="0"/>
        <pt x="77" y="-151" on="0"/>
      </contour>
    </TTGlyph>
    <TTGlyph name="k" xMin="84" yMin="0" xMax="395" yMax="750">
      <contour>
        <pt x="380" y="384" on="1"/>
        <pt x="395" y="366" on="1"/>
        <pt x="352" y="331" on="0"/>
        <pt x="276" y="266" on="0"/>
        <pt x="234" y="231" on="1"/>
        <pt x="268" y="173" on="0"/>
        <pt x="335" y="58" on="0"/>
        <pt x="370" y="0" on="1"/>
        <pt x="337" y="0" on="1"/>
        <pt x="305" y="54" on="0"/>
        <pt x="242" y="158" on="0"/>
        <pt x="210" y="212" on="1"/>
        <pt x="190" y="196" on="0"/>
        <pt x="151" y="163" on="0"/>
        <pt x="131" y="147" on="1"/>
        <pt x="111" y="0" on="1"/>
        <pt x="84" y="0" on="1"/>
        <pt x="189" y="750" on="1"/>
        <pt x="216" y="750" on="1"/>
        <pt x="136" y="183" on="1"/>
        <pt x="199" y="235" on="0"/>
        <pt x="317" y="332" on="0"/>
      </contour>
    </TTGlyph>
    <TTGlyph name="l" xMin="80" yMin="0" xMax="213" yMax="750">
      <contour>
        <pt x="108" y="0" on="1"/>
        <pt x="80" y="0" on="1"/>
        <pt x="185" y="750" on="1"/>
        <pt x="213" y="750" on="1"/>
      </contour>
    </TTGlyph>
    <TTGlyph name="less" xMin="115" yMin="-15" xMax="588" yMax="491">
      <contour>
        <pt x="522" y="21" on="1"/>
        <pt x="517" y="-15" on="1"/>
        <pt x="416" y="48" on="0"/>
        <pt x="216" y="175" on="0"/>
        <pt x="115" y="238" on="1"/>
        <pt x="233" y="301" on="0"/>
        <pt x="469" y="428" on="0"/>
        <pt x="588" y="491" on="1"/>
        <pt x="583" y="455" on="1"/>
        <pt x="481" y="401" on="0"/>
        <pt x="278" y="292" on="0"/>
        <pt x="175" y="238" on="1"/>
        <pt x="262" y="184" on="0"/>
        <pt x="434" y="75" on="0"/>
      </contour>
    </TTGlyph>
    <TTGlyph name="logicalnot" xMin="103" yMin="148" xMax="466" yMax="242">
      <contour>
        <pt x="425" y="148" on="1"/>
        <pt x="435" y="219" on="1"/>
        <pt x="103" y="219" on="1"/>
        <pt x="106" y="242" on="1"/>
        <pt x="466" y="242" on="1"/>
        <pt x="453" y="148" on="1"/>
      </contour>
    </TTGlyph>
    <TTGlyph name="m" xMin="110" yMin="0" xMax="741" yMax="382">
      <contour>
        <pt x="162" y="375" on="1"/>
        <pt x="188" y="375" on="1"/>
        <pt x="182" y="331" on="1"/>
        <pt x="180" y="317" on="0"/>
        <pt x="176" y="291" on="0"/>
        <pt x="173" y="277" on="1"/>
        <pt x="200" y="325" on="0"/>
        <pt x="295" y="382" on="0"/>
        <pt x="352" y="382" on="1"/>
        <pt x="403" y="382" on="0"/>
        <pt x="457" y="327" on="0"/>
        <pt x="456" y="282" on="1"/>
        <pt x="483" y="327" on="0"/>
        <pt x="578" y="382" on="0"/>
        <pt x="633" y="382" on="1"/>
        <pt x="687" y="382" on="0"/>
        <pt x="741" y="320" on="0"/>
        <pt x="735" y="270" on="1"/>
        <pt x="698" y="0" on="1"/>
        <pt x="670" y="0" on="1"/>
        <pt x="707" y="268" on="1"/>
        <pt x="711" y="303" on="0"/>
        <pt x="671" y="353" on="0"/>
        <pt x="629" y="355" on="1"/>
        <pt x="597" y="355" on="0"/>
        <pt x="537" y="334" on="0"/>
        <pt x="488" y="298" on="0"/>
        <pt x="454" y="247" on="0"/>
        <pt x="448" y="217" on="1"/>
        <pt x="418" y="0" on="1"/>
        <pt x="390" y="0" on="1"/>
        <pt x="427" y="268" on="1"/>
        <pt x="431" y="303" on="0"/>
        <pt x="391" y="353" on="0"/>
        <pt x="348" y="355" on="1"/>
        <pt x="316" y="355" on="0"/>
        <pt x="255" y="334" on="0"/>
        <pt x="205" y="296" on="0"/>
        <pt x="171" y="243" on="0"/>
        <pt x="167" y="212" on="1"/>
        <pt x="138" y="0" on="1"/>
        <pt x="110" y="0" on="1"/>
      </contour>
    </TTGlyph>
    <TTGlyph name="macron" xMin="83" yMin="489" xMax="316" yMax="511">
      <contour>
        <pt x="83" y="489" on="1"/>
        <pt x="86" y="511" on="1"/>
        <pt x="316" y="511" on="1"/>
        <pt x="313" y="489" on="1"/>
      </contour>
    </TTGlyph>
    <TTGlyph name="mu" xMin="69" yMin="-201" xMax="458" yMax="375">
      <contour>
        <pt x="405" y="-2" on="1"/>
        <pt x="377" y="-2" on="1"/>
        <pt x="385" y="53" on="1"/>
        <pt x="394" y="98" on="1"/>
        <pt x="367" y="50" on="0"/>
        <pt x="271" y="-7" on="0"/>
        <pt x="215" y="-7" on="1"/>
        <pt x="183" y="-7" on="0"/>
        <pt x="140" y="17" on="0"/>
        <pt x="130" y="39" on="1"/>
        <pt x="97" y="-201" on="1"/>
        <pt x="69" y="-201" on="1"/>
        <pt x="150" y="375" on="1"/>
        <pt x="178" y="375" on="1"/>
        <pt x="140" y="107" on="1"/>
        <pt x="136" y="72" on="0"/>
        <pt x="177" y="22" on="0"/>
        <pt x="219" y="20" on="1"/>
        <pt x="251" y="20" on="0"/>
        <pt x="313" y="41" on="0"/>
        <pt x="362" y="79" on="0"/>
        <pt x="396" y="132" on="0"/>
        <pt x="400" y="163" on="1"/>
        <pt x="430" y="375" on="1"/>
        <pt x="458" y="375" on="1"/>
      </contour>
    </TTGlyph>
    <TTGlyph name="multiply" xMin="109" yMin="0" xMax="417" yMax="275">
      <contour>
        <pt x="361" y="0" on="1"/>
        <pt x="335" y="29" on="0"/>
        <pt x="285" y="89" on="0"/>
        <pt x="259" y="118" on="1"/>
        <pt x="225" y="89" on="0"/>
        <pt x="160" y="29" on="0"/>
        <pt x="126" y="0" on="1"/>
        <pt x="116" y="9" on="0"/>
        <pt x="109" y="20" on="1"/>
        <pt x="143" y="49" on="0"/>
        <pt x="209" y="108" on="0"/>
        <pt x="243" y="138" on="1"/>
        <pt x="143" y="254" on="1"/>
        <pt x="165" y="274" on="1"/>
        <pt x="265" y="157" on="1"/>
        <pt x="299" y="187" on="0"/>
        <pt x="366" y="245" on="0"/>
        <pt x="400" y="275" on="1"/>
        <pt x="407" y="264" on="0"/>
        <pt x="417" y="255" on="1"/>
        <pt x="383" y="226" on="0"/>
        <pt x="316" y="167" on="0"/>
        <pt x="283" y="138" on="1"/>
        <pt x="308" y="109" on="0"/>
        <pt x="358" y="49" on="0"/>
        <pt x="383" y="20" on="1"/>
      </contour>
    </TTGlyph>
    <TTGlyph name="n" xMin="110" yMin="0" xMax="461" yMax="382">
      <contour>
        <pt x="162" y="375" on="1"/>
        <pt x="188" y="375" on="1"/>
        <pt x="182" y="331" on="1"/>
        <pt x="180" y="317" on="0"/>
        <pt x="176" y="291" on="0"/>
        <pt x="173" y="277" on="1"/>
        <pt x="200" y="325" on="0"/>
        <pt x="296" y="382" on="0"/>
        <pt x="352" y="382" on="1"/>
        <pt x="406" y="382" on="0"/>
        <pt x="461" y="320" on="0"/>
        <pt x="455" y="270" on="1"/>
        <pt x="418" y="0" on="1"/>
        <pt x="390" y="0" on="1"/>
        <pt x="427" y="268" on="1"/>
        <pt x="431" y="303" on="0"/>
        <pt x="391" y="353" on="0"/>
        <pt x="348" y="355" on="1"/>
        <pt x="316" y="355" on="0"/>
        <pt x="255" y="334" on="0"/>
        <pt x="205" y="296" on="0"/>
        <pt x="171" y="243" on="0"/>
        <pt x="167" y="212" on="1"/>
        <pt x="138" y="0" on="1"/>
        <pt x="110" y="0" on="1"/>
      </contour>
    </TTGlyph>
    <TTGlyph name="nine" xMin="59" yMin="-8" xMax="484" yMax="634">
      <contour>
        <pt x="451" y="429" on="1"/>
        <pt x="456" y="466" on="0"/>
        <pt x="438" y="530" on="0"/>
        <pt x="396" y="578" on="0"/>
        <pt x="335" y="606" on="0"/>
        <pt x="298" y="606" on="1"/>
        <pt x="261" y="606" on="0"/>
        <pt x="191" y="578" on="0"/>
        <pt x="136" y="530" on="0"/>
        <pt x="98" y="466" on="0"/>
        <pt x="93" y="429" on="1"/>
        <pt x="88" y="392" on="0"/>
        <pt x="107" y="328" on="0"/>
        <pt x="149" y="280" on="0"/>
        <pt x="211" y="252" on="0"/>
        <pt x="248" y="252" on="1"/>
        <pt x="285" y="252" on="0"/>
        <pt x="354" y="280" on="0"/>
        <pt x="409" y="328" on="0"/>
        <pt x="446" y="392" on="0"/>
      </contour>
      <contour>
        <pt x="478" y="429" on="1"/>
        <pt x="468" y="357" on="0"/>
        <pt x="389" y="233" on="0"/>
        <pt x="277" y="125" on="0"/>
        <pt x="146" y="32" on="0"/>
        <pt x="85" y="-8" on="1"/>
        <pt x="82" y="-3" on="0"/>
        <pt x="74" y="10" on="0"/>
        <pt x="70" y="15" on="1"/>
        <pt x="202" y="95" on="0"/>
        <pt x="355" y="239" on="0"/>
        <pt x="387" y="290" on="1"/>
        <pt x="359" y="260" on="0"/>
        <pt x="285" y="225" on="0"/>
        <pt x="243" y="225" on="1"/>
        <pt x="200" y="225" on="0"/>
        <pt x="129" y="257" on="0"/>
        <pt x="81" y="313" on="0"/>
        <pt x="59" y="387" on="0"/>
        <pt x="65" y="429" on="1"/>
        <pt x="71" y="471" on="0"/>
        <pt x="114" y="546" on="0"/>
        <pt x="178" y="602" on="0"/>
        <pt x="258" y="634" on="0"/>
        <pt x="301" y="634" on="1"/>
        <pt x="344" y="634" on="0"/>
        <pt x="415" y="602" on="0"/>
        <pt x="463" y="546" on="0"/>
        <pt x="484" y="471" on="0"/>
      </contour>
    </TTGlyph>
    <TTGlyph name="ntilde" xMin="110" yMin="0" xMax="493" yMax="533">
      <component glyphName="n" x="0" y="0" flags="0x4"/>
      <component glyphName="asciitilde" x="69" y="-10" flags="0x4"/>
    </TTGlyph>
    <TTGlyph name="numbersign" xMin="13" yMin="0" xMax="521" yMax="643">
      <contour>
        <pt x="201" y="400" on="1"/>
        <pt x="190" y="361" on="0"/>
        <pt x="171" y="284" on="0"/>
        <pt x="161" y="245" on="1"/>
        <pt x="317" y="245" on="1"/>
        <pt x="327" y="284" on="0"/>
        <pt x="346" y="361" on="0"/>
        <pt x="357" y="400" on="1"/>
      </contour>
      <contour>
        <pt x="253" y="0" on="1"/>
        <pt x="267" y="55" on="0"/>
        <pt x="295" y="163" on="0"/>
        <pt x="309" y="218" on="1"/>
        <pt x="153" y="218" on="1"/>
        <pt x="139" y="163" on="0"/>
        <pt x="111" y="55" on="0"/>
        <pt x="97" y="0" on="1"/>
        <pt x="69" y="0" on="1"/>
        <pt x="83" y="55" on="0"/>
        <pt x="111" y="163" on="0"/>
        <pt x="125" y="218" on="1"/>
        <pt x="13" y="218" on="1"/>
        <pt x="15" y="225" on="0"/>
        <pt x="18" y="238" on="0"/>
        <pt x="20" y="245" on="1"/>
        <pt x="133" y="245" on="1"/>
        <pt x="143" y="284" on="0"/>
        <pt x="162" y="361" on="0"/>
        <pt x="173" y="400" on="1"/>
        <pt x="62" y="400" on="1"/>
        <pt x="63" y="407" on="0"/>
        <pt x="66" y="420" on="0"/>
        <pt x="68" y="427" on="1"/>
        <pt x="180" y="427" on="1"/>
        <pt x="237" y="643" on="1"/>
        <pt x="265" y="643" on="1"/>
        <pt x="208" y="427" on="1"/>
        <pt x="364" y="427" on="1"/>
        <pt x="421" y="643" on="1"/>
        <pt x="449" y="643" on="1"/>
        <pt x="392" y="427" on="1"/>
        <pt x="521" y="427" on="1"/>
        <pt x="515" y="400" on="1"/>
        <pt x="385" y="400" on="1"/>
        <pt x="374" y="361" on="0"/>
        <pt x="355" y="284" on="0"/>
        <pt x="345" y="245" on="1"/>
        <pt x="473" y="245" on="1"/>
        <pt x="471" y="238" on="0"/>
        <pt x="468" y="225" on="0"/>
        <pt x="466" y="218" on="1"/>
        <pt x="337" y="218" on="1"/>
        <pt x="323" y="163" on="0"/>
        <pt x="295" y="55" on="0"/>
        <pt x="281" y="0" on="1"/>
      </contour>
    </TTGlyph>
    <TTGlyph name="o" xMin="56" yMin="-7" xMax="460" yMax="384">
      <contour>
        <pt x="62" y="188" on="1"/>
        <pt x="68" y="233" on="0"/>
        <pt x="107" y="305" on="0"/>
        <pt x="166" y="356" on="0"/>
        <pt x="242" y="384" on="0"/>
        <pt x="284" y="384" on="1"/>
        <pt x="325" y="384" on="0"/>
        <pt x="392" y="353" on="0"/>
        <pt x="439" y="300" on="0"/>
        <pt x="460" y="228" on="0"/>
        <pt x="454" y="188" on="1"/>
        <pt x="448" y="142" on="0"/>
        <pt x="408" y="70" on="0"/>
        <pt x="348" y="20" on="0"/>
        <pt x="272" y="-7" on="0"/>
        <pt x="230" y="-7" on="1"/>
        <pt x="189" y="-7" on="0"/>
        <pt x="122" y="24" on="0"/>
        <pt x="77" y="76" on="0"/>
        <pt x="56" y="147" on="0"/>
      </contour>
      <contour>
        <pt x="90" y="188" on="1"/>
        <pt x="85" y="153" on="0"/>
        <pt x="103" y="92" on="0"/>
        <pt x="142" y="47" on="0"/>
        <pt x="199" y="21" on="0"/>
        <pt x="234" y="21" on="1"/>
        <pt x="268" y="21" on="0"/>
        <pt x="333" y="45" on="0"/>
        <pt x="385" y="89" on="0"/>
        <pt x="420" y="150" on="0"/>
        <pt x="425" y="188" on="1"/>
        <pt x="430" y="223" on="0"/>
        <pt x="412" y="284" on="0"/>
        <pt x="373" y="330" on="0"/>
        <pt x="315" y="356" on="0"/>
        <pt x="280" y="356" on="1"/>
        <pt x="243" y="356" on="0"/>
        <pt x="178" y="332" on="0"/>
        <pt x="128" y="287" on="0"/>
        <pt x="95" y="225" on="0"/>
      </contour>
    </TTGlyph>
    <TTGlyph name="oacute" xMin="56" yMin="-7" xMax="460" yMax="612">
      <component glyphName="o" x="0" y="0" flags="0x204"/>
      <component glyphName="acute" x="205" y="0" flags="0x4"/>
    </TTGlyph>
    <TTGlyph name="ocircumflex" xMin="56" yMin="-7" xMax="460" yMax="660">
      <component glyphName="o" x="0" y="0" flags="0x204"/>
      <component glyphName="asciicircum" x="75" y="0" flags="0x4"/>
    </TTGlyph>
    <TTGlyph name="odieresis" xMin="56" yMin="-7" xMax="460" yMax="531">
      <component glyphName="o" x="0" y="0" flags="0x204"/>
      <component glyphName="dieresis" x="110" y="0" flags="0x4"/>
    </TTGlyph>
    <TTGlyph name="ograve" xMin="56" yMin="-7" xMax="460" yMax="612">
      <component glyphName="o" x="0" y="0" flags="0x204"/>
      <component glyphName="grave" x="213" y="0" flags="0x4"/>
    </TTGlyph>
    <TTGlyph name="one" xMin="75" yMin="0" xMax="211" yMax="650">
      <contour>
        <pt x="75" y="623" on="1"/>
        <pt x="79" y="650" on="1"/>
        <pt x="211" y="650" on="1"/>
        <pt x="120" y="0" on="1"/>
        <pt x="92" y="0" on="1"/>
        <pt x="179" y="623" on="1"/>
      </contour>
    </TTGlyph>
    <TTGlyph name="onehalf" xMin="150" yMin="-19" xMax="854" yMax="736">
      <component glyphName="one" x="97" y="234" scalex="0.709899902344" scaley="0.709716796875" flags="0x4"/>
      <component glyphName="two" x="544" y="0" scalex="0.707092285156" scaley="0.707275390625" flags="0x4"/>
      <component glyphName="slash" x="270" y="0" scalex="1.0" scaley="0.998962402344" flags="0x4"/>
    </TTGlyph>
    <TTGlyph name="onequarter" xMin="164" yMin="-19" xMax="833" yMax="736">
      <component glyphName="slash" x="270" y="0" scalex="1.0" scaley="0.998962402344" flags="0x4"/>
      <component glyphName="four" x="474" y="0" scalex="0.742980957031" scaley="0.744689941406" flags="0x4"/>
      <component glyphName="one" x="111" y="234" scalex="0.708923339844" scaley="0.709350585938" flags="0x4"/>
    </TTGlyph>
    <TTGlyph name="onesuperior" xMin="86" yMin="401" xMax="149" yMax="700">
      <component glyphName="one" x="52" y="401" scalex="0.458129882812" scaley="0.460021972656" flags="0x4"/>
    </TTGlyph>
    <TTGlyph name="ordfeminine" xMin="107" yMin="300" xMax="413" yMax="583">
      <component glyphName="a" x="58" y="306" scalex="0.721374511719" scaley="0.721252441406" flags="0x4"/>
    </TTGlyph>
    <TTGlyph name="ordmasculine" xMin="105" yMin="300" xMax="397" yMax="583">
      <component glyphName="o" x="65" y="306" scale="0.721252441406" flags="0x4"/>
    </TTGlyph>
    <TTGlyph name="oslash" xMin="26" yMin="-12" xMax="433" yMax="387">
      <contour>
        <pt x="64" y="188" on="1"/>
        <pt x="59" y="153" on="0"/>
        <pt x="75" y="94" on="0"/>
        <pt x="93" y="71" on="1"/>
        <pt x="156" y="135" on="0"/>
        <pt x="280" y="263" on="0"/>
        <pt x="343" y="327" on="1"/>
        <pt x="326" y="341" on="0"/>
        <pt x="280" y="356" on="0"/>
        <pt x="254" y="356" on="1"/>
        <pt x="219" y="356" on="0"/>
        <pt x="155" y="330" on="0"/>
        <pt x="103" y="284" on="0"/>
        <pt x="69" y="223" on="0"/>
      </contour>
      <contour>
        <pt x="207" y="21" on="1"/>
        <pt x="242" y="21" on="0"/>
        <pt x="307" y="47" on="0"/>
        <pt x="359" y="92" on="0"/>
        <pt x="394" y="153" on="0"/>
        <pt x="399" y="188" on="1"/>
        <pt x="404" y="226" on="0"/>
        <pt x="382" y="290" on="0"/>
        <pt x="359" y="313" on="1"/>
        <pt x="296" y="249" on="0"/>
        <pt x="170" y="121" on="0"/>
        <pt x="107" y="57" on="1"/>
        <pt x="148" y="21" on="0"/>
      </contour>
      <contour>
        <pt x="36" y="188" on="1"/>
        <pt x="42" y="228" on="0"/>
        <pt x="82" y="300" on="0"/>
        <pt x="142" y="352" on="0"/>
        <pt x="217" y="383" on="0"/>
        <pt x="258" y="383" on="1"/>
        <pt x="290" y="383" on="0"/>
        <pt x="344" y="365" on="0"/>
        <pt x="365" y="348" on="1"/>
        <pt x="374" y="358" on="0"/>
        <pt x="394" y="377" on="0"/>
        <pt x="403" y="387" on="1"/>
        <pt x="407" y="383" on="0"/>
        <pt x="413" y="376" on="0"/>
        <pt x="417" y="372" on="1"/>
        <pt x="380" y="335" on="1"/>
        <pt x="407" y="309" on="0"/>
        <pt x="433" y="232" on="0"/>
        <pt x="427" y="188" on="1"/>
        <pt x="421" y="147" on="0"/>
        <pt x="380" y="76" on="0"/>
        <pt x="320" y="24" on="0"/>
        <pt x="244" y="-7" on="0"/>
        <pt x="203" y="-7" on="1"/>
        <pt x="168" y="-7" on="0"/>
        <pt x="110" y="16" on="0"/>
        <pt x="87" y="36" on="1"/>
        <pt x="75" y="24" on="0"/>
        <pt x="52" y="0" on="0"/>
        <pt x="40" y="-12" on="1"/>
        <pt x="26" y="2" on="1"/>
        <pt x="37" y="15" on="0"/>
        <pt x="61" y="38" on="0"/>
        <pt x="73" y="50" on="1"/>
        <pt x="50" y="76" on="0"/>
        <pt x="30" y="147" on="0"/>
      </contour>
    </TTGlyph>
    <TTGlyph name="otilde" xMin="56" yMin="-7" xMax="460" yMax="543">
      <component glyphName="o" x="0" y="0" flags="0x204"/>
      <component glyphName="asciitilde" x="21" y="0" flags="0x4"/>
    </TTGlyph>
    <TTGlyph name="p" xMin="31" yMin="-250" xMax="490" yMax="382">
      <contour>
        <pt x="456" y="187" on="1"/>
        <pt x="461" y="222" on="0"/>
        <pt x="444" y="283" on="0"/>
        <pt x="405" y="328" on="0"/>
        <pt x="347" y="354" on="0"/>
        <pt x="312" y="354" on="1"/>
        <pt x="277" y="354" on="0"/>
        <pt x="212" y="328" on="0"/>
        <pt x="160" y="283" on="0"/>
        <pt x="126" y="222" on="0"/>
        <pt x="121" y="187" on="1"/>
        <pt x="116" y="152" on="0"/>
        <pt x="133" y="91" on="0"/>
        <pt x="172" y="45" on="0"/>
        <pt x="230" y="19" on="0"/>
        <pt x="265" y="19" on="1"/>
        <pt x="300" y="19" on="0"/>
        <pt x="365" y="45" on="0"/>
        <pt x="417" y="91" on="0"/>
        <pt x="451" y="152" on="0"/>
      </contour>
      <contour>
        <pt x="484" y="187" on="1"/>
        <pt x="478" y="143" on="0"/>
        <pt x="438" y="71" on="0"/>
        <pt x="378" y="20" on="0"/>
        <pt x="302" y="-8" on="0"/>
        <pt x="261" y="-8" on="1"/>
        <pt x="230" y="-8" on="0"/>
        <pt x="178" y="9" on="0"/>
        <pt x="139" y="39" on="0"/>
        <pt x="112" y="78" on="0"/>
        <pt x="107" y="100" on="1"/>
        <pt x="105" y="88" on="0"/>
        <pt x="104" y="64" on="0"/>
        <pt x="102" y="53" on="1"/>
        <pt x="60" y="-250" on="1"/>
        <pt x="31" y="-250" on="1"/>
        <pt x="119" y="375" on="1"/>
        <pt x="144" y="375" on="1"/>
        <pt x="141" y="349" on="0"/>
        <pt x="133" y="297" on="0"/>
        <pt x="130" y="271" on="1"/>
        <pt x="142" y="293" on="0"/>
        <pt x="180" y="334" on="0"/>
        <pt x="229" y="364" on="0"/>
        <pt x="286" y="382" on="0"/>
        <pt x="316" y="382" on="1"/>
        <pt x="357" y="382" on="0"/>
        <pt x="424" y="351" on="0"/>
        <pt x="469" y="299" on="0"/>
        <pt x="490" y="227" on="0"/>
      </contour>
    </TTGlyph>
    <TTGlyph name="paragraph" xMin="62" yMin="0" xMax="444" yMax="750">
      <contour>
        <pt x="176" y="0" on="1"/>
        <pt x="148" y="0" on="1"/>
        <pt x="207" y="423" on="1"/>
        <pt x="173" y="423" on="0"/>
        <pt x="117" y="448" on="0"/>
        <pt x="79" y="492" on="0"/>
        <pt x="62" y="552" on="0"/>
        <pt x="67" y="586" on="1"/>
        <pt x="72" y="620" on="0"/>
        <pt x="106" y="680" on="0"/>
        <pt x="156" y="724" on="0"/>
        <pt x="219" y="750" on="0"/>
        <pt x="253" y="750" on="1"/>
        <pt x="444" y="750" on="1"/>
        <pt x="339" y="0" on="1"/>
        <pt x="311" y="0" on="1"/>
        <pt x="412" y="723" on="1"/>
        <pt x="277" y="723" on="1"/>
      </contour>
    </TTGlyph>
    <TTGlyph name="parenleft" xMin="130" yMin="-163" xMax="383" yMax="747">
      <contour>
        <pt x="141" y="292" on="1"/>
        <pt x="151" y="367" on="0"/>
        <pt x="198" y="503" on="0"/>
        <pt x="261" y="619" on="0"/>
        <pt x="333" y="714" on="0"/>
        <pt x="369" y="747" on="1"/>
        <pt x="372" y="741" on="0"/>
        <pt x="379" y="730" on="0"/>
        <pt x="383" y="724" on="1"/>
        <pt x="350" y="691" on="0"/>
        <pt x="282" y="601" on="0"/>
        <pt x="223" y="491" on="0"/>
        <pt x="179" y="363" on="0"/>
        <pt x="169" y="292" on="1"/>
        <pt x="159" y="221" on="0"/>
        <pt x="167" y="93" on="0"/>
        <pt x="195" y="-17" on="0"/>
        <pt x="238" y="-107" on="0"/>
        <pt x="262" y="-140" on="1"/>
        <pt x="257" y="-146" on="0"/>
        <pt x="247" y="-157" on="0"/>
        <pt x="242" y="-163" on="1"/>
        <pt x="215" y="-130" on="0"/>
        <pt x="169" y="-35" on="0"/>
        <pt x="139" y="81" on="0"/>
        <pt x="130" y="217" on="0"/>
      </contour>
    </TTGlyph>
    <TTGlyph name="parenright" xMin="43" yMin="-164" xMax="296" yMax="746">
      <contour>
        <pt x="286" y="291" on="1"/>
        <pt x="275" y="216" on="0"/>
        <pt x="228" y="80" on="0"/>
        <pt x="165" y="-36" on="0"/>
        <pt x="93" y="-131" on="0"/>
        <pt x="57" y="-164" on="1"/>
        <pt x="53" y="-158" on="0"/>
        <pt x="46" y="-147" on="0"/>
        <pt x="43" y="-141" on="1"/>
        <pt x="76" y="-108" on="0"/>
        <pt x="144" y="-18" on="0"/>
        <pt x="203" y="92" on="0"/>
        <pt x="247" y="220" on="0"/>
        <pt x="257" y="291" on="1"/>
        <pt x="267" y="362" on="0"/>
        <pt x="259" y="490" on="0"/>
        <pt x="231" y="600" on="0"/>
        <pt x="188" y="690" on="0"/>
        <pt x="164" y="723" on="1"/>
        <pt x="169" y="729" on="0"/>
        <pt x="179" y="740" on="0"/>
        <pt x="184" y="746" on="1"/>
        <pt x="211" y="713" on="0"/>
        <pt x="257" y="618" on="0"/>
        <pt x="287" y="502" on="0"/>
        <pt x="296" y="366" on="0"/>
      </contour>
    </TTGlyph>
    <TTGlyph name="percent" xMin="120" yMin="0" xMax="619" yMax="501">
      <contour>
        <pt x="416" y="112" on="1"/>
        <pt x="414" y="94" on="0"/>
        <pt x="423" y="63" on="0"/>
        <pt x="443" y="40" on="0"/>
        <pt x="472" y="27" on="0"/>
        <pt x="490" y="27" on="1"/>
        <pt x="508" y="27" on="0"/>
        <pt x="541" y="40" on="0"/>
        <pt x="568" y="63" on="0"/>
        <pt x="585" y="94" on="0"/>
        <pt x="588" y="112" on="1"/>
        <pt x="592" y="147" on="0"/>
        <pt x="549" y="197" on="0"/>
        <pt x="514" y="197" on="1"/>
        <pt x="496" y="197" on="0"/>
        <pt x="463" y="184" on="0"/>
        <pt x="436" y="161" on="0"/>
        <pt x="419" y="130" on="0"/>
      </contour>
      <contour>
        <pt x="486" y="0" on="1"/>
        <pt x="463" y="0" on="0"/>
        <pt x="424" y="18" on="0"/>
        <pt x="397" y="48" on="0"/>
        <pt x="385" y="89" on="0"/>
        <pt x="388" y="113" on="1"/>
        <pt x="392" y="136" on="0"/>
        <pt x="416" y="177" on="0"/>
        <pt x="451" y="207" on="0"/>
        <pt x="495" y="224" on="0"/>
        <pt x="518" y="224" on="1"/>
        <pt x="541" y="224" on="0"/>
        <pt x="580" y="207" on="0"/>
        <pt x="607" y="177" on="0"/>
        <pt x="619" y="136" on="0"/>
        <pt x="616" y="113" on="1"/>
        <pt x="613" y="89" on="0"/>
        <pt x="588" y="48" on="0"/>
        <pt x="553" y="18" on="0"/>
        <pt x="509" y="0" on="0"/>
      </contour>
      <contour>
        <pt x="151" y="388" on="1"/>
        <pt x="149" y="370" on="0"/>
        <pt x="158" y="340" on="0"/>
        <pt x="178" y="317" on="0"/>
        <pt x="207" y="304" on="0"/>
        <pt x="225" y="304" on="1"/>
        <pt x="243" y="304" on="0"/>
        <pt x="276" y="317" on="0"/>
        <pt x="303" y="340" on="0"/>
        <pt x="320" y="370" on="0"/>
        <pt x="323" y="388" on="1"/>
        <pt x="327" y="423" on="0"/>
        <pt x="284" y="473" on="0"/>
        <pt x="249" y="473" on="1"/>
        <pt x="231" y="473" on="0"/>
        <pt x="198" y="460" on="0"/>
        <pt x="171" y="437" on="0"/>
        <pt x="154" y="406" on="0"/>
      </contour>
      <contour>
        <pt x="221" y="276" on="1"/>
        <pt x="198" y="276" on="0"/>
        <pt x="159" y="294" on="0"/>
        <pt x="132" y="324" on="0"/>
        <pt x="120" y="365" on="0"/>
        <pt x="123" y="389" on="1"/>
        <pt x="126" y="412" on="0"/>
        <pt x="150" y="453" on="0"/>
        <pt x="186" y="483" on="0"/>
        <pt x="230" y="501" on="0"/>
        <pt x="253" y="501" on="1"/>
        <pt x="276" y="501" on="0"/>
        <pt x="314" y="483" on="0"/>
        <pt x="341" y="453" on="0"/>
        <pt x="354" y="412" on="0"/>
        <pt x="351" y="389" on="1"/>
        <pt x="347" y="365" on="0"/>
        <pt x="323" y="324" on="0"/>
        <pt x="287" y="294" on="0"/>
        <pt x="244" y="276" on="0"/>
      </contour>
      <contour>
        <pt x="165" y="0" on="1"/>
        <pt x="258" y="126" on="0"/>
        <pt x="441" y="374" on="0"/>
        <pt x="534" y="500" on="1"/>
        <pt x="565" y="500" on="1"/>
        <pt x="472" y="374" on="0"/>
        <pt x="289" y="126" on="0"/>
        <pt x="196" y="0" on="1"/>
      </contour>
    </TTGlyph>
    <TTGlyph name="period" xMin="57" yMin="0" xMax="114" yMax="53">
      <contour>
        <pt x="59" y="26" on="1"/>
        <pt x="61" y="37" on="0"/>
        <pt x="78" y="53" on="0"/>
        <pt x="89" y="53" on="1"/>
        <pt x="100" y="53" on="0"/>
        <pt x="114" y="37" on="0"/>
        <pt x="112" y="26" on="1"/>
        <pt x="110" y="15" on="0"/>
        <pt x="93" y="0" on="0"/>
        <pt x="82" y="0" on="1"/>
        <pt x="71" y="0" on="0"/>
        <pt x="57" y="15" on="0"/>
      </contour>
    </TTGlyph>
    <TTGlyph name="periodcentered" xMin="57" yMin="254" xMax="114" yMax="307">
      <component glyphName="period" x="0" y="254" flags="0x4"/>
    </TTGlyph>
    <TTGlyph name="plus" xMin="84" yMin="51" xMax="448" yMax="411">
      <contour>
        <pt x="226" y="51" on="1"/>
        <pt x="250" y="218" on="1"/>
        <pt x="84" y="218" on="1"/>
        <pt x="88" y="245" on="1"/>
        <pt x="254" y="245" on="1"/>
        <pt x="277" y="411" on="1"/>
        <pt x="305" y="411" on="1"/>
        <pt x="282" y="245" on="1"/>
        <pt x="448" y="245" on="1"/>
        <pt x="444" y="218" on="1"/>
        <pt x="278" y="218" on="1"/>
        <pt x="254" y="51" on="1"/>
      </contour>
    </TTGlyph>
    <TTGlyph name="plusminus" xMin="54" yMin="129" xMax="453" yMax="571">
      <contour>
        <pt x="232" y="211" on="1"/>
        <pt x="256" y="378" on="1"/>
        <pt x="90" y="378" on="1"/>
        <pt x="93" y="405" on="1"/>
        <pt x="259" y="405" on="1"/>
        <pt x="283" y="571" on="1"/>
        <pt x="311" y="571" on="1"/>
        <pt x="287" y="405" on="1"/>
        <pt x="453" y="405" on="1"/>
        <pt x="450" y="378" on="1"/>
        <pt x="284" y="378" on="1"/>
        <pt x="260" y="211" on="1"/>
      </contour>
      <contour>
        <pt x="414" y="129" on="1"/>
        <pt x="54" y="129" on="1"/>
        <pt x="58" y="156" on="1"/>
        <pt x="418" y="156" on="1"/>
      </contour>
    </TTGlyph>
    <TTGlyph name="q" xMin="72" yMin="-250" xMax="496" yMax="382">
      <contour>
        <pt x="106" y="187" on="1"/>
        <pt x="101" y="152" on="0"/>
        <pt x="118" y="91" on="0"/>
        <pt x="157" y="45" on="0"/>
        <pt x="215" y="19" on="0"/>
        <pt x="250" y="19" on="1"/>
        <pt x="285" y="19" on="0"/>
        <pt x="350" y="45" on="0"/>
        <pt x="402" y="91" on="0"/>
        <pt x="437" y="152" on="0"/>
        <pt x="442" y="187" on="1"/>
        <pt x="447" y="222" on="0"/>
        <pt x="429" y="283" on="0"/>
        <pt x="390" y="328" on="0"/>
        <pt x="332" y="354" on="0"/>
        <pt x="297" y="354" on="1"/>
        <pt x="262" y="354" on="0"/>
        <pt x="197" y="328" on="0"/>
        <pt x="145" y="283" on="0"/>
        <pt x="111" y="222" on="0"/>
      </contour>
      <contour>
        <pt x="78" y="187" on="1"/>
        <pt x="84" y="231" on="0"/>
        <pt x="124" y="303" on="0"/>
        <pt x="184" y="354" on="0"/>
        <pt x="260" y="382" on="0"/>
        <pt x="301" y="382" on="1"/>
        <pt x="331" y="382" on="0"/>
        <pt x="383" y="364" on="0"/>
        <pt x="424" y="334" on="0"/>
        <pt x="451" y="293" on="0"/>
        <pt x="457" y="271" on="1"/>
        <pt x="460" y="297" on="0"/>
        <pt x="467" y="349" on="0"/>
        <pt x="471" y="375" on="1"/>
        <pt x="496" y="375" on="1"/>
        <pt x="408" y="-250" on="1"/>
        <pt x="379" y="-250" on="1"/>
        <pt x="422" y="53" on="1"/>
        <pt x="424" y="64" on="0"/>
        <pt x="429" y="88" on="0"/>
        <pt x="432" y="100" on="1"/>
        <pt x="408" y="54" on="0"/>
        <pt x="309" y="-8" on="0"/>
        <pt x="246" y="-8" on="1"/>
        <pt x="205" y="-8" on="0"/>
        <pt x="138" y="23" on="0"/>
        <pt x="93" y="75" on="0"/>
        <pt x="72" y="146" on="0"/>
      </contour>
    </TTGlyph>
    <TTGlyph name="question" xMin="63" yMin="20" xMax="445" yMax="732">
      <contour>
        <pt x="87" y="587" on="1"/>
        <pt x="81" y="589" on="0"/>
        <pt x="69" y="593" on="0"/>
        <pt x="63" y="595" on="1"/>
        <pt x="76" y="622" on="0"/>
        <pt x="117" y="672" on="0"/>
        <pt x="170" y="710" on="0"/>
        <pt x="234" y="732" on="0"/>
        <pt x="270" y="732" on="1"/>
        <pt x="311" y="732" on="0"/>
        <pt x="379" y="701" on="0"/>
        <pt x="424" y="648" on="0"/>
        <pt x="445" y="577" on="0"/>
        <pt x="439" y="537" on="1"/>
        <pt x="431" y="483" on="0"/>
        <pt x="367" y="401" on="0"/>
        <pt x="317" y="369" on="1"/>
        <pt x="297" y="355" on="0"/>
        <pt x="261" y="336" on="0"/>
        <pt x="232" y="311" on="0"/>
        <pt x="212" y="274" on="0"/>
        <pt x="207" y="242" on="1"/>
        <pt x="196" y="164" on="1"/>
        <pt x="168" y="164" on="1"/>
        <pt x="182" y="261" on="1"/>
        <pt x="186" y="292" on="0"/>
        <pt x="214" y="330" on="0"/>
        <pt x="255" y="360" on="0"/>
        <pt x="305" y="387" on="0"/>
        <pt x="332" y="408" on="1"/>
        <pt x="367" y="435" on="0"/>
        <pt x="406" y="500" on="0"/>
        <pt x="411" y="537" on="1"/>
        <pt x="416" y="573" on="0"/>
        <pt x="399" y="634" on="0"/>
        <pt x="360" y="679" on="0"/>
        <pt x="302" y="705" on="0"/>
        <pt x="267" y="705" on="1"/>
        <pt x="208" y="705" on="0"/>
        <pt x="111" y="641" on="0"/>
      </contour>
      <contour>
        <pt x="162" y="20" on="1"/>
        <pt x="153" y="20" on="0"/>
        <pt x="139" y="35" on="0"/>
        <pt x="141" y="46" on="1"/>
        <pt x="142" y="58" on="0"/>
        <pt x="160" y="73" on="0"/>
        <pt x="169" y="73" on="1"/>
        <pt x="179" y="73" on="0"/>
        <pt x="194" y="58" on="0"/>
        <pt x="192" y="46" on="1"/>
        <pt x="190" y="35" on="0"/>
        <pt x="172" y="20" on="0"/>
      </contour>
    </TTGlyph>
    <TTGlyph name="questiondown" xMin="8" yMin="-193" xMax="391" yMax="520">
      <component glyphName="question" x="453" y="539" scale="-1.0" flags="0x4"/>
    </TTGlyph>
    <TTGlyph name="quotedbl" xMin="45" yMin="472" xMax="244" yMax="720">
      <contour>
        <pt x="178" y="472" on="1"/>
        <pt x="213" y="720" on="1"/>
        <pt x="244" y="720" on="1"/>
        <pt x="234" y="657" on="0"/>
        <pt x="215" y="535" on="0"/>
        <pt x="205" y="472" on="1"/>
      </contour>
      <contour>
        <pt x="45" y="472" on="1"/>
        <pt x="80" y="720" on="1"/>
        <pt x="111" y="720" on="1"/>
        <pt x="101" y="657" on="0"/>
        <pt x="82" y="535" on="0"/>
        <pt x="72" y="472" on="1"/>
      </contour>
    </TTGlyph>
    <TTGlyph name="quotedblbase" xMin="12" yMin="-48" xMax="194" yMax="92">
      <contour>
        <pt x="23" y="-48" on="1"/>
        <pt x="17" y="-39" on="0"/>
        <pt x="12" y="-29" on="1"/>
        <pt x="36" y="-9" on="0"/>
        <pt x="63" y="50" on="0"/>
        <pt x="61" y="85" on="1"/>
        <pt x="68" y="87" on="0"/>
        <pt x="81" y="90" on="0"/>
        <pt x="88" y="92" on="1"/>
        <pt x="90" y="52" on="0"/>
        <pt x="55" y="-22" on="0"/>
      </contour>
      <contour>
        <pt x="127" y="-48" on="1"/>
        <pt x="121" y="-39" on="0"/>
        <pt x="116" y="-29" on="1"/>
        <pt x="140" y="-9" on="0"/>
        <pt x="167" y="50" on="0"/>
        <pt x="165" y="85" on="1"/>
        <pt x="172" y="87" on="0"/>
        <pt x="185" y="90" on="0"/>
        <pt x="192" y="92" on="1"/>
        <pt x="194" y="52" on="0"/>
        <pt x="159" y="-22" on="0"/>
      </contour>
    </TTGlyph>
    <TTGlyph name="quotedblleft" xMin="26" yMin="571" xMax="186" yMax="711">
      <contour>
        <pt x="186" y="590" on="1"/>
        <pt x="181" y="585" on="0"/>
        <pt x="175" y="576" on="0"/>
        <pt x="170" y="571" on="1"/>
        <pt x="145" y="597" on="0"/>
        <pt x="130" y="671" on="0"/>
        <pt x="144" y="711" on="1"/>
        <pt x="150" y="709" on="0"/>
        <pt x="163" y="706" on="0"/>
        <pt x="169" y="704" on="1"/>
        <pt x="158" y="669" on="0"/>
        <pt x="168" y="610" on="0"/>
      </contour>
      <contour>
        <pt x="82" y="590" on="1"/>
        <pt x="77" y="585" on="0"/>
        <pt x="71" y="576" on="0"/>
        <pt x="66" y="571" on="1"/>
        <pt x="41" y="597" on="0"/>
        <pt x="26" y="671" on="0"/>
        <pt x="40" y="711" on="1"/>
        <pt x="46" y="709" on="0"/>
        <pt x="59" y="706" on="0"/>
        <pt x="65" y="704" on="1"/>
        <pt x="54" y="669" on="0"/>
        <pt x="64" y="610" on="0"/>
      </contour>
    </TTGlyph>
    <TTGlyph name="quotedblright" xMin="30" yMin="571" xMax="212" yMax="711">
      <contour>
        <pt x="40" y="571" on="1"/>
        <pt x="38" y="576" on="0"/>
        <pt x="32" y="585" on="0"/>
        <pt x="30" y="590" on="1"/>
        <pt x="53" y="610" on="0"/>
        <pt x="81" y="669" on="0"/>
        <pt x="79" y="704" on="1"/>
        <pt x="86" y="706" on="0"/>
        <pt x="99" y="709" on="0"/>
        <pt x="105" y="711" on="1"/>
        <pt x="108" y="671" on="0"/>
        <pt x="73" y="597" on="0"/>
      </contour>
      <contour>
        <pt x="144" y="571" on="1"/>
        <pt x="142" y="576" on="0"/>
        <pt x="136" y="585" on="0"/>
        <pt x="134" y="590" on="1"/>
        <pt x="157" y="610" on="0"/>
        <pt x="185" y="669" on="0"/>
        <pt x="183" y="704" on="1"/>
        <pt x="190" y="706" on="0"/>
        <pt x="203" y="709" on="0"/>
        <pt x="209" y="711" on="1"/>
        <pt x="212" y="671" on="0"/>
        <pt x="177" y="597" on="0"/>
      </contour>
    </TTGlyph>
    <TTGlyph name="quoteleft" xMin="33" yMin="571" xMax="89" yMax="711">
      <contour>
        <pt x="89" y="590" on="1"/>
        <pt x="85" y="585" on="0"/>
        <pt x="78" y="576" on="0"/>
        <pt x="74" y="571" on="1"/>
        <pt x="48" y="597" on="0"/>
        <pt x="33" y="671" on="0"/>
        <pt x="47" y="711" on="1"/>
        <pt x="53" y="709" on="0"/>
        <pt x="67" y="706" on="0"/>
        <pt x="72" y="704" on="1"/>
        <pt x="61" y="669" on="0"/>
        <pt x="71" y="610" on="0"/>
      </contour>
    </TTGlyph>
    <TTGlyph name="quoteright" xMin="46" yMin="571" xMax="125" yMax="711">
      <contour>
        <pt x="57" y="571" on="1"/>
        <pt x="52" y="581" on="0"/>
        <pt x="46" y="590" on="1"/>
        <pt x="70" y="610" on="0"/>
        <pt x="97" y="669" on="0"/>
        <pt x="95" y="704" on="1"/>
        <pt x="102" y="706" on="0"/>
        <pt x="116" y="709" on="0"/>
        <pt x="122" y="711" on="1"/>
        <pt x="125" y="671" on="0"/>
        <pt x="90" y="597" on="0"/>
      </contour>
    </TTGlyph>
    <TTGlyph name="quotesinglbase" xMin="12" yMin="-48" xMax="90" yMax="92">
      <contour>
        <pt x="23" y="-48" on="1"/>
        <pt x="17" y="-39" on="0"/>
        <pt x="12" y="-29" on="1"/>
        <pt x="36" y="-9" on="0"/>
        <pt x="63" y="50" on="0"/>
        <pt x="61" y="85" on="1"/>
        <pt x="68" y="87" on="0"/>
        <pt x="81" y="90" on="0"/>
        <pt x="88" y="92" on="1"/>
        <pt x="90" y="52" on="0"/>
        <pt x="55" y="-22" on="0"/>
      </contour>
    </TTGlyph>
    <TTGlyph name="quotesingle" xMin="44" yMin="472" xMax="110" yMax="720">
      <contour>
        <pt x="44" y="472" on="1"/>
        <pt x="79" y="720" on="1"/>
        <pt x="110" y="720" on="1"/>
        <pt x="100" y="657" on="0"/>
        <pt x="81" y="535" on="0"/>
        <pt x="71" y="472" on="1"/>
      </contour>
    </TTGlyph>
    <TTGlyph name="r" xMin="110" yMin="0" xMax="349" yMax="382">
      <contour>
        <pt x="344" y="355" on="1"/>
        <pt x="312" y="354" on="0"/>
        <pt x="252" y="332" on="0"/>
        <pt x="204" y="294" on="0"/>
        <pt x="171" y="242" on="0"/>
        <pt x="167" y="212" on="1"/>
        <pt x="138" y="0" on="1"/>
        <pt x="110" y="0" on="1"/>
        <pt x="162" y="375" on="1"/>
        <pt x="188" y="375" on="1"/>
        <pt x="182" y="331" on="1"/>
        <pt x="180" y="317" on="0"/>
        <pt x="176" y="291" on="0"/>
        <pt x="173" y="277" on="1"/>
        <pt x="202" y="326" on="0"/>
        <pt x="298" y="381" on="0"/>
        <pt x="349" y="382" on="1"/>
      </contour>
    </TTGlyph>
    <TTGlyph name="registered" xMin="134" yMin="117" xMax="664" yMax="628">
      <contour>
        <pt x="366" y="135" on="1"/>
        <pt x="415" y="135" on="0"/>
        <pt x="507" y="171" on="0"/>
        <pt x="580" y="234" on="0"/>
        <pt x="629" y="321" on="0"/>
        <pt x="636" y="371" on="1"/>
        <pt x="643" y="423" on="0"/>
        <pt x="618" y="510" on="0"/>
        <pt x="563" y="574" on="0"/>
        <pt x="481" y="610" on="0"/>
        <pt x="432" y="610" on="1"/>
        <pt x="383" y="610" on="0"/>
        <pt x="292" y="574" on="0"/>
        <pt x="219" y="510" on="0"/>
        <pt x="169" y="423" on="0"/>
        <pt x="162" y="371" on="1"/>
        <pt x="155" y="321" on="0"/>
        <pt x="180" y="234" on="0"/>
        <pt x="236" y="171" on="0"/>
        <pt x="317" y="135" on="0"/>
      </contour>
      <contour>
        <pt x="364" y="117" on="1"/>
        <pt x="310" y="117" on="0"/>
        <pt x="221" y="155" on="0"/>
        <pt x="161" y="223" on="0"/>
        <pt x="134" y="317" on="0"/>
        <pt x="142" y="372" on="1"/>
        <pt x="150" y="427" on="0"/>
        <pt x="203" y="521" on="0"/>
        <pt x="282" y="590" on="0"/>
        <pt x="381" y="628" on="0"/>
        <pt x="435" y="628" on="1"/>
        <pt x="489" y="628" on="0"/>
        <pt x="577" y="590" on="0"/>
        <pt x="637" y="521" on="0"/>
        <pt x="664" y="427" on="0"/>
        <pt x="656" y="372" on="1"/>
        <pt x="648" y="317" on="0"/>
        <pt x="595" y="223" on="0"/>
        <pt x="517" y="155" on="0"/>
        <pt x="418" y="117" on="0"/>
      </contour>
      <contour>
        <pt x="345" y="381" on="1"/>
        <pt x="396" y="381" on="1"/>
        <pt x="422" y="381" on="0"/>
        <pt x="459" y="395" on="0"/>
        <pt x="482" y="418" on="0"/>
        <pt x="494" y="444" on="0"/>
        <pt x="496" y="456" on="1"/>
        <pt x="500" y="485" on="0"/>
        <pt x="456" y="528" on="0"/>
        <pt x="418" y="528" on="1"/>
        <pt x="366" y="528" on="1"/>
      </contour>
      <contour>
        <pt x="308" y="210" on="1"/>
        <pt x="354" y="541" on="1"/>
        <pt x="423" y="541" on="1"/>
        <pt x="437" y="541" on="0"/>
        <pt x="470" y="532" on="0"/>
        <pt x="497" y="511" on="0"/>
        <pt x="512" y="479" on="0"/>
        <pt x="509" y="456" on="1"/>
        <pt x="504" y="422" on="0"/>
        <pt x="461" y="378" on="0"/>
        <pt x="425" y="371" on="1"/>
        <pt x="439" y="330" on="0"/>
        <pt x="465" y="250" on="0"/>
        <pt x="479" y="210" on="1"/>
        <pt x="464" y="210" on="1"/>
        <pt x="451" y="250" on="0"/>
        <pt x="425" y="329" on="0"/>
        <pt x="412" y="370" on="1"/>
        <pt x="407" y="369" on="0"/>
        <pt x="397" y="368" on="0"/>
        <pt x="392" y="368" on="1"/>
        <pt x="343" y="368" on="1"/>
        <pt x="321" y="210" on="1"/>
      </contour>
    </TTGlyph>
    <TTGlyph name="s" xMin="87" yMin="-8" xMax="348" yMax="380">
      <contour>
        <pt x="348" y="337" on="1"/>
        <pt x="343" y="332" on="0"/>
        <pt x="333" y="322" on="0"/>
        <pt x="328" y="317" on="1"/>
        <pt x="316" y="334" on="0"/>
        <pt x="271" y="353" on="0"/>
        <pt x="249" y="353" on="1"/>
        <pt x="237" y="353" on="0"/>
        <pt x="209" y="345" on="0"/>
        <pt x="184" y="329" on="0"/>
        <pt x="166" y="301" on="0"/>
        <pt x="163" y="282" on="1"/>
        <pt x="159" y="256" on="0"/>
        <pt x="184" y="228" on="0"/>
        <pt x="224" y="210" on="0"/>
        <pt x="272" y="196" on="0"/>
        <pt x="311" y="173" on="0"/>
        <pt x="334" y="136" on="0"/>
        <pt x="330" y="103" on="1"/>
        <pt x="328" y="85" on="0"/>
        <pt x="309" y="46" on="0"/>
        <pt x="276" y="13" on="0"/>
        <pt x="227" y="-8" on="0"/>
        <pt x="196" y="-8" on="1"/>
        <pt x="182" y="-8" on="0"/>
        <pt x="151" y="-3" on="0"/>
        <pt x="121" y="8" on="0"/>
        <pt x="96" y="26" on="0"/>
        <pt x="87" y="39" on="1"/>
        <pt x="92" y="44" on="0"/>
        <pt x="103" y="53" on="0"/>
        <pt x="109" y="58" on="1"/>
        <pt x="121" y="41" on="0"/>
        <pt x="177" y="19" on="0"/>
        <pt x="203" y="19" on="1"/>
        <pt x="215" y="19" on="0"/>
        <pt x="247" y="29" on="0"/>
        <pt x="276" y="49" on="0"/>
        <pt x="299" y="79" on="0"/>
        <pt x="302" y="100" on="1"/>
        <pt x="306" y="128" on="0"/>
        <pt x="282" y="159" on="0"/>
        <pt x="242" y="178" on="0"/>
        <pt x="194" y="191" on="0"/>
        <pt x="154" y="211" on="0"/>
        <pt x="130" y="246" on="0"/>
        <pt x="134" y="278" on="1"/>
        <pt x="138" y="303" on="0"/>
        <pt x="162" y="341" on="0"/>
        <pt x="196" y="367" on="0"/>
        <pt x="235" y="380" on="0"/>
        <pt x="253" y="380" on="1"/>
        <pt x="274" y="380" on="0"/>
        <pt x="330" y="361" on="0"/>
      </contour>
    </TTGlyph>
    <TTGlyph name="section" xMin="138" yMin="-18" xMax="376" yMax="736">
      <contour>
        <pt x="172" y="321" on="1"/>
        <pt x="180" y="294" on="0"/>
        <pt x="226" y="267" on="0"/>
        <pt x="255" y="269" on="1"/>
        <pt x="274" y="270" on="0"/>
        <pt x="308" y="289" on="0"/>
        <pt x="333" y="317" on="0"/>
        <pt x="348" y="351" on="0"/>
        <pt x="348" y="369" on="1"/>
        <pt x="348" y="389" on="0"/>
        <pt x="334" y="421" on="0"/>
        <pt x="309" y="443" on="0"/>
        <pt x="277" y="453" on="0"/>
        <pt x="259" y="452" on="1"/>
        <pt x="233" y="450" on="0"/>
        <pt x="194" y="423" on="0"/>
        <pt x="171" y="385" on="0"/>
        <pt x="165" y="341" on="0"/>
      </contour>
      <contour>
        <pt x="213" y="153" on="1"/>
        <pt x="191" y="201" on="0"/>
        <pt x="161" y="269" on="0"/>
        <pt x="148" y="300" on="1"/>
        <pt x="138" y="321" on="0"/>
        <pt x="138" y="367" on="0"/>
        <pt x="155" y="411" on="0"/>
        <pt x="186" y="449" on="0"/>
        <pt x="208" y="462" on="1"/>
        <pt x="234" y="476" on="0"/>
        <pt x="290" y="476" on="0"/>
        <pt x="313" y="465" on="1"/>
        <pt x="301" y="490" on="0"/>
        <pt x="279" y="541" on="0"/>
        <pt x="268" y="567" on="1"/>
        <pt x="257" y="593" on="0"/>
        <pt x="249" y="631" on="0"/>
        <pt x="251" y="659" on="0"/>
        <pt x="262" y="680" on="0"/>
        <pt x="270" y="688" on="1"/>
        <pt x="284" y="703" on="0"/>
        <pt x="331" y="727" on="0"/>
        <pt x="350" y="736" on="1"/>
        <pt x="352" y="731" on="0"/>
        <pt x="357" y="719" on="0"/>
        <pt x="360" y="713" on="1"/>
        <pt x="346" y="705" on="0"/>
        <pt x="322" y="693" on="0"/>
        <pt x="308" y="685" on="1"/>
        <pt x="280" y="670" on="0"/>
        <pt x="278" y="619" on="0"/>
        <pt x="299" y="569" on="1"/>
        <pt x="300" y="569" on="1"/>
        <pt x="317" y="531" on="0"/>
        <pt x="349" y="456" on="0"/>
        <pt x="366" y="418" on="1"/>
        <pt x="376" y="397" on="0"/>
        <pt x="375" y="352" on="0"/>
        <pt x="359" y="308" on="0"/>
        <pt x="327" y="271" on="0"/>
        <pt x="305" y="258" on="1"/>
        <pt x="279" y="243" on="0"/>
        <pt x="223" y="242" on="0"/>
        <pt x="200" y="254" on="1"/>
        <pt x="245" y="152" on="1"/>
        <pt x="256" y="126" on="0"/>
        <pt x="265" y="88" on="0"/>
        <pt x="262" y="59" on="0"/>
        <pt x="251" y="38" on="0"/>
        <pt x="243" y="30" on="1"/>
        <pt x="229" y="14" on="0"/>
        <pt x="183" y="-9" on="0"/>
        <pt x="164" y="-18" on="1"/>
        <pt x="162" y="-12" on="0"/>
        <pt x="157" y="0" on="0"/>
        <pt x="154" y="6" on="1"/>
        <pt x="168" y="13" on="0"/>
        <pt x="192" y="26" on="0"/>
        <pt x="206" y="33" on="1"/>
        <pt x="234" y="48" on="0"/>
        <pt x="236" y="101" on="0"/>
      </contour>
    </TTGlyph>
    <TTGlyph name="semicolon" xMin="-22" yMin="-120" xMax="163" yMax="303">
      <contour>
        <pt x="109" y="276" on="1"/>
        <pt x="111" y="287" on="0"/>
        <pt x="128" y="303" on="0"/>
        <pt x="139" y="303" on="1"/>
        <pt x="149" y="303" on="0"/>
        <pt x="163" y="287" on="0"/>
        <pt x="162" y="276" on="1"/>
        <pt x="160" y="265" on="0"/>
        <pt x="142" y="250" on="0"/>
        <pt x="132" y="250" on="1"/>
        <pt x="121" y="250" on="0"/>
        <pt x="107" y="265" on="0"/>
      </contour>
      <contour>
        <pt x="118" y="86" on="1"/>
        <pt x="89" y="34" on="0"/>
        <pt x="33" y="-68" on="0"/>
        <pt x="4" y="-120" on="1"/>
        <pt x="-22" y="-120" on="1"/>
        <pt x="4" y="-68" on="0"/>
        <pt x="56" y="34" on="0"/>
        <pt x="83" y="86" on="1"/>
      </contour>
    </TTGlyph>
    <TTGlyph name="seven" xMin="46" yMin="0" xMax="462" yMax="650">
      <contour>
        <pt x="55" y="622" on="1"/>
        <pt x="59" y="650" on="1"/>
        <pt x="462" y="650" on="1"/>
        <pt x="366" y="486" on="0"/>
        <pt x="175" y="164" on="0"/>
        <pt x="79" y="0" on="1"/>
        <pt x="46" y="0" on="1"/>
        <pt x="139" y="156" on="0"/>
        <pt x="321" y="466" on="0"/>
        <pt x="414" y="622" on="1"/>
      </contour>
    </TTGlyph>
    <TTGlyph name="six" xMin="27" yMin="-8" xMax="453" yMax="634">
      <contour>
        <pt x="61" y="196" on="1"/>
        <pt x="55" y="159" on="0"/>
        <pt x="74" y="95" on="0"/>
        <pt x="115" y="47" on="0"/>
        <pt x="176" y="19" on="0"/>
        <pt x="213" y="19" on="1"/>
        <pt x="250" y="19" on="0"/>
        <pt x="320" y="47" on="0"/>
        <pt x="376" y="95" on="0"/>
        <pt x="414" y="159" on="0"/>
        <pt x="419" y="196" on="1"/>
        <pt x="424" y="233" on="0"/>
        <pt x="404" y="297" on="0"/>
        <pt x="362" y="345" on="0"/>
        <pt x="300" y="373" on="0"/>
        <pt x="263" y="373" on="1"/>
        <pt x="226" y="373" on="0"/>
        <pt x="158" y="345" on="0"/>
        <pt x="103" y="297" on="0"/>
        <pt x="66" y="233" on="0"/>
      </contour>
      <contour>
        <pt x="33" y="194" on="1"/>
        <pt x="43" y="266" on="0"/>
        <pt x="122" y="391" on="0"/>
        <pt x="233" y="500" on="0"/>
        <pt x="364" y="593" on="0"/>
        <pt x="426" y="634" on="1"/>
        <pt x="430" y="628" on="0"/>
        <pt x="437" y="616" on="0"/>
        <pt x="441" y="611" on="1"/>
        <pt x="310" y="531" on="0"/>
        <pt x="157" y="387" on="0"/>
        <pt x="125" y="336" on="1"/>
        <pt x="152" y="365" on="0"/>
        <pt x="226" y="401" on="0"/>
        <pt x="268" y="401" on="1"/>
        <pt x="311" y="401" on="0"/>
        <pt x="382" y="369" on="0"/>
        <pt x="430" y="313" on="0"/>
        <pt x="453" y="238" on="0"/>
        <pt x="447" y="196" on="1"/>
        <pt x="441" y="154" on="0"/>
        <pt x="397" y="80" on="0"/>
        <pt x="333" y="24" on="0"/>
        <pt x="253" y="-8" on="0"/>
        <pt x="210" y="-8" on="1"/>
        <pt x="168" y="-8" on="0"/>
        <pt x="97" y="24" on="0"/>
        <pt x="49" y="78" on="0"/>
        <pt x="27" y="152" on="0"/>
      </contour>
    </TTGlyph>
    <TTGlyph name="slash" xMin="-36" yMin="-19" xMax="376" yMax="736">
      <contour>
        <pt x="-36" y="-19" on="1"/>
        <pt x="61" y="171" on="0"/>
        <pt x="251" y="546" on="0"/>
        <pt x="348" y="736" on="1"/>
        <pt x="376" y="736" on="1"/>
        <pt x="279" y="546" on="0"/>
        <pt x="89" y="171" on="0"/>
        <pt x="-8" y="-19" on="1"/>
      </contour>
    </TTGlyph>
    <TTGlyph name="sterling" xMin="-17" yMin="0" xMax="484" yMax="634">
      <contour>
        <pt x="87" y="27" on="1"/>
        <pt x="286" y="27" on="1"/>
        <pt x="319" y="27" on="1"/>
        <pt x="380" y="27" on="0"/>
        <pt x="431" y="48" on="0"/>
        <pt x="436" y="79" on="1"/>
        <pt x="444" y="134" on="1"/>
        <pt x="472" y="134" on="1"/>
        <pt x="465" y="86" on="1"/>
        <pt x="463" y="69" on="0"/>
        <pt x="455" y="38" on="0"/>
        <pt x="429" y="14" on="0"/>
        <pt x="379" y="0" on="0"/>
        <pt x="335" y="0" on="1"/>
        <pt x="-17" y="0" on="1"/>
        <pt x="-14" y="27" on="1"/>
        <pt x="29" y="27" on="1"/>
        <pt x="47" y="27" on="0"/>
        <pt x="69" y="40" on="0"/>
        <pt x="85" y="72" on="0"/>
        <pt x="95" y="126" on="0"/>
        <pt x="101" y="167" on="1"/>
        <pt x="120" y="303" on="1"/>
        <pt x="55" y="303" on="1"/>
        <pt x="59" y="331" on="1"/>
        <pt x="124" y="331" on="1"/>
        <pt x="148" y="500" on="1"/>
        <pt x="158" y="570" on="0"/>
        <pt x="260" y="634" on="0"/>
        <pt x="338" y="634" on="1"/>
        <pt x="371" y="634" on="0"/>
        <pt x="420" y="620" on="0"/>
        <pt x="454" y="596" on="0"/>
        <pt x="477" y="563" on="0"/>
        <pt x="484" y="543" on="1"/>
        <pt x="478" y="540" on="0"/>
        <pt x="466" y="534" on="0"/>
        <pt x="461" y="531" on="1"/>
        <pt x="453" y="551" on="0"/>
        <pt x="433" y="580" on="0"/>
        <pt x="404" y="598" on="0"/>
        <pt x="363" y="607" on="0"/>
        <pt x="334" y="607" on="1"/>
        <pt x="293" y="607" on="0"/>
        <pt x="236" y="590" on="0"/>
        <pt x="199" y="561" on="0"/>
        <pt x="179" y="522" on="0"/>
        <pt x="176" y="499" on="1"/>
        <pt x="152" y="331" on="1"/>
        <pt x="279" y="331" on="1"/>
        <pt x="275" y="303" on="1"/>
        <pt x="148" y="303" on="1"/>
        <pt x="127" y="152" on="1"/>
        <pt x="122" y="120" on="1"/>
        <pt x="118" y="91" on="0"/>
        <pt x="103" y="41" on="0"/>
      </contour>
    </TTGlyph>
    <TTGlyph name="t" xMin="89" yMin="0" xMax="330" yMax="619">
      <contour>
        <pt x="216" y="619" on="1"/>
        <pt x="243" y="619" on="1"/>
        <pt x="209" y="370" on="1"/>
        <pt x="330" y="370" on="1"/>
        <pt x="326" y="343" on="1"/>
        <pt x="205" y="343" on="1"/>
        <pt x="157" y="0" on="1"/>
        <pt x="130" y="0" on="1"/>
        <pt x="177" y="343" on="1"/>
        <pt x="89" y="343" on="1"/>
        <pt x="93" y="370" on="1"/>
        <pt x="181" y="370" on="1"/>
      </contour>
    </TTGlyph>
    <TTGlyph name="thorn" xMin="-3" yMin="-250" xMax="455" yMax="750">
      <contour>
        <pt x="421" y="187" on="1"/>
        <pt x="426" y="222" on="0"/>
        <pt x="409" y="283" on="0"/>
        <pt x="370" y="328" on="0"/>
        <pt x="312" y="354" on="0"/>
        <pt x="277" y="354" on="1"/>
        <pt x="242" y="354" on="0"/>
        <pt x="177" y="328" on="0"/>
        <pt x="125" y="283" on="0"/>
        <pt x="91" y="222" on="0"/>
        <pt x="86" y="187" on="1"/>
        <pt x="81" y="152" on="0"/>
        <pt x="98" y="91" on="0"/>
        <pt x="137" y="45" on="0"/>
        <pt x="195" y="19" on="0"/>
        <pt x="230" y="19" on="1"/>
        <pt x="265" y="19" on="0"/>
        <pt x="330" y="45" on="0"/>
        <pt x="382" y="91" on="0"/>
        <pt x="416" y="152" on="0"/>
      </contour>
      <contour>
        <pt x="449" y="187" on="1"/>
        <pt x="443" y="146" on="0"/>
        <pt x="403" y="75" on="0"/>
        <pt x="343" y="23" on="0"/>
        <pt x="267" y="-8" on="0"/>
        <pt x="226" y="-8" on="1"/>
        <pt x="195" y="-8" on="0"/>
        <pt x="143" y="9" on="0"/>
        <pt x="103" y="39" on="0"/>
        <pt x="77" y="78" on="0"/>
        <pt x="72" y="100" on="1"/>
        <pt x="70" y="88" on="0"/>
        <pt x="69" y="64" on="0"/>
        <pt x="67" y="53" on="1"/>
        <pt x="25" y="-250" on="1"/>
        <pt x="-3" y="-250" on="1"/>
        <pt x="137" y="750" on="1"/>
        <pt x="165" y="750" on="1"/>
        <pt x="105" y="329" on="1"/>
        <pt x="103" y="315" on="0"/>
        <pt x="96" y="285" on="0"/>
        <pt x="94" y="271" on="1"/>
        <pt x="106" y="293" on="0"/>
        <pt x="145" y="333" on="0"/>
        <pt x="194" y="363" on="0"/>
        <pt x="251" y="381" on="0"/>
        <pt x="281" y="381" on="1"/>
        <pt x="322" y="381" on="0"/>
        <pt x="389" y="350" on="0"/>
        <pt x="434" y="298" on="0"/>
        <pt x="455" y="227" on="0"/>
      </contour>
    </TTGlyph>
    <TTGlyph name="three" xMin="49" yMin="-8" xMax="470" yMax="650">
      <contour>
        <pt x="177" y="354" on="1"/>
        <pt x="237" y="422" on="0"/>
        <pt x="353" y="555" on="0"/>
        <pt x="413" y="622" on="1"/>
        <pt x="145" y="622" on="1"/>
        <pt x="149" y="650" on="1"/>
        <pt x="470" y="650" on="1"/>
        <pt x="414" y="587" on="0"/>
        <pt x="303" y="464" on="0"/>
        <pt x="247" y="401" on="1"/>
        <pt x="290" y="400" on="0"/>
        <pt x="361" y="369" on="0"/>
        <pt x="410" y="315" on="0"/>
        <pt x="433" y="241" on="0"/>
        <pt x="427" y="198" on="1"/>
        <pt x="421" y="155" on="0"/>
        <pt x="377" y="80" on="0"/>
        <pt x="313" y="24" on="0"/>
        <pt x="233" y="-8" on="0"/>
        <pt x="190" y="-8" on="1"/>
        <pt x="145" y="-8" on="0"/>
        <pt x="73" y="28" on="0"/>
        <pt x="49" y="59" on="1"/>
        <pt x="54" y="64" on="0"/>
        <pt x="67" y="76" on="0"/>
        <pt x="72" y="81" on="1"/>
        <pt x="91" y="54" on="0"/>
        <pt x="153" y="19" on="0"/>
        <pt x="192" y="19" on="1"/>
        <pt x="229" y="19" on="0"/>
        <pt x="299" y="48" on="0"/>
        <pt x="356" y="97" on="0"/>
        <pt x="394" y="162" on="0"/>
        <pt x="399" y="198" on="1"/>
        <pt x="404" y="235" on="0"/>
        <pt x="384" y="300" on="0"/>
        <pt x="341" y="348" on="0"/>
        <pt x="279" y="376" on="0"/>
        <pt x="242" y="376" on="1"/>
        <pt x="225" y="376" on="0"/>
        <pt x="192" y="364" on="0"/>
      </contour>
    </TTGlyph>
    <TTGlyph name="threequarters" xMin="121" yMin="-19" xMax="1032" yMax="736">
      <component glyphName="three" x="84" y="206" scalex="0.771118164062" scaley="0.772399902344" flags="0x4"/>
      <component glyphName="slash" x="440" y="0" flags="0x4"/>
      <component glyphName="four" x="672" y="0" scale="0.744689941406" flags="0x4"/>
    </TTGlyph>
    <TTGlyph name="threesuperior" xMin="71" yMin="376" xMax="278" yMax="701">
      <component glyphName="three" x="47" y="380" scalex="0.490478515625" scaley="0.492431640625" flags="0x4"/>
    </TTGlyph>
    <TTGlyph name="two" xMin="6" yMin="0" xMax="438" yMax="658">
      <contour>
        <pt x="79" y="27" on="1"/>
        <pt x="415" y="27" on="1"/>
        <pt x="411" y="0" on="1"/>
        <pt x="6" y="0" on="1"/>
        <pt x="79" y="62" on="0"/>
        <pt x="216" y="182" on="0"/>
        <pt x="325" y="296" on="0"/>
        <pt x="396" y="402" on="0"/>
        <pt x="403" y="449" on="1"/>
        <pt x="410" y="501" on="0"/>
        <pt x="390" y="571" on="0"/>
        <pt x="350" y="613" on="0"/>
        <pt x="299" y="631" on="0"/>
        <pt x="275" y="631" on="1"/>
        <pt x="228" y="631" on="0"/>
        <pt x="162" y="597" on="0"/>
        <pt x="120" y="548" on="0"/>
        <pt x="99" y="490" on="0"/>
        <pt x="95" y="466" on="1"/>
        <pt x="86" y="397" on="0"/>
        <pt x="120" y="354" on="1"/>
        <pt x="115" y="349" on="0"/>
        <pt x="105" y="342" on="0"/>
        <pt x="100" y="338" on="1"/>
        <pt x="80" y="361" on="0"/>
        <pt x="62" y="426" on="0"/>
        <pt x="67" y="466" on="1"/>
        <pt x="73" y="506" on="0"/>
        <pt x="107" y="576" on="0"/>
        <pt x="161" y="628" on="0"/>
        <pt x="234" y="658" on="0"/>
        <pt x="279" y="658" on="1"/>
        <pt x="319" y="658" on="0"/>
        <pt x="382" y="628" on="0"/>
        <pt x="422" y="575" on="0"/>
        <pt x="438" y="503" on="0"/>
        <pt x="432" y="461" on="1"/>
        <pt x="424" y="405" on="0"/>
        <pt x="355" y="294" on="0"/>
        <pt x="255" y="186" on="0"/>
        <pt x="136" y="79" on="0"/>
      </contour>
    </TTGlyph>
    <TTGlyph name="twosuperior" xMin="78" yMin="375" xMax="293" yMax="700">
      <component glyphName="two" x="76" y="375" scalex="0.4951171875" scaley="0.493896484375" flags="0x4"/>
    </TTGlyph>
    <TTGlyph name="u" xMin="119" yMin="-7" xMax="470" yMax="375">
      <contour>
        <pt x="418" y="-2" on="1"/>
        <pt x="390" y="-2" on="1"/>
        <pt x="397" y="53" on="1"/>
        <pt x="406" y="98" on="1"/>
        <pt x="379" y="50" on="0"/>
        <pt x="283" y="-7" on="0"/>
        <pt x="227" y="-7" on="1"/>
        <pt x="173" y="-7" on="0"/>
        <pt x="119" y="55" on="0"/>
        <pt x="124" y="105" on="1"/>
        <pt x="162" y="375" on="1"/>
        <pt x="190" y="375" on="1"/>
        <pt x="152" y="107" on="1"/>
        <pt x="149" y="72" on="0"/>
        <pt x="189" y="22" on="0"/>
        <pt x="231" y="20" on="1"/>
        <pt x="263" y="20" on="0"/>
        <pt x="325" y="41" on="0"/>
        <pt x="374" y="79" on="0"/>
        <pt x="408" y="132" on="0"/>
        <pt x="412" y="163" on="1"/>
        <pt x="442" y="375" on="1"/>
        <pt x="470" y="375" on="1"/>
      </contour>
    </TTGlyph>
    <TTGlyph name="uacute" xMin="119" yMin="-7" xMax="470" yMax="612">
      <component glyphName="u" x="0" y="0" flags="0x204"/>
      <component glyphName="acute" x="204" y="0" flags="0x4"/>
    </TTGlyph>
    <TTGlyph name="ucircumflex" xMin="119" yMin="-7" xMax="470" yMax="660">
      <component glyphName="u" x="0" y="0" flags="0x204"/>
      <component glyphName="asciicircum" x="106" y="0" flags="0x4"/>
    </TTGlyph>
    <TTGlyph name="udieresis" xMin="119" yMin="-7" xMax="470" yMax="531">
      <component glyphName="u" x="0" y="0" flags="0x204"/>
      <component glyphName="dieresis" x="142" y="0" flags="0x4"/>
    </TTGlyph>
    <TTGlyph name="ugrave" xMin="119" yMin="-7" xMax="470" yMax="612">
      <component glyphName="u" x="0" y="0" flags="0x204"/>
      <component glyphName="grave" x="251" y="0" flags="0x4"/>
    </TTGlyph>
    <TTGlyph name="underscore" xMin="98" yMin="0" xMax="501" yMax="27">
      <contour>
        <pt x="498" y="0" on="1"/>
        <pt x="98" y="0" on="1"/>
        <pt x="101" y="27" on="1"/>
        <pt x="501" y="27" on="1"/>
      </contour>
    </TTGlyph>
    <TTGlyph name="v" xMin="106" yMin="-23" xMax="509" yMax="375">
      <contour>
        <pt x="252" y="-23" on="1"/>
        <pt x="215" y="77" on="0"/>
        <pt x="143" y="275" on="0"/>
        <pt x="106" y="375" on="1"/>
        <pt x="135" y="375" on="1"/>
        <pt x="166" y="290" on="0"/>
        <pt x="231" y="117" on="0"/>
        <pt x="260" y="30" on="1"/>
        <pt x="313" y="117" on="0"/>
        <pt x="425" y="289" on="0"/>
        <pt x="481" y="375" on="1"/>
        <pt x="509" y="375" on="1"/>
        <pt x="445" y="275" on="0"/>
        <pt x="317" y="77" on="0"/>
      </contour>
    </TTGlyph>
    <TTGlyph name="w" xMin="108" yMin="-23" xMax="778" yMax="375">
      <contour>
        <pt x="415" y="278" on="1"/>
        <pt x="406" y="302" on="0"/>
        <pt x="389" y="351" on="0"/>
        <pt x="380" y="375" on="1"/>
        <pt x="409" y="375" on="1"/>
        <pt x="439" y="289" on="0"/>
        <pt x="502" y="116" on="0"/>
        <pt x="531" y="30" on="1"/>
        <pt x="585" y="117" on="0"/>
        <pt x="695" y="289" on="0"/>
        <pt x="749" y="375" on="1"/>
        <pt x="778" y="375" on="1"/>
        <pt x="714" y="275" on="0"/>
        <pt x="587" y="77" on="0"/>
        <pt x="523" y="-23" on="1"/>
        <pt x="499" y="46" on="0"/>
        <pt x="450" y="181" on="0"/>
        <pt x="426" y="250" on="1"/>
        <pt x="382" y="181" on="0"/>
        <pt x="295" y="46" on="0"/>
        <pt x="251" y="-23" on="1"/>
        <pt x="216" y="77" on="0"/>
        <pt x="145" y="275" on="0"/>
        <pt x="108" y="375" on="1"/>
        <pt x="137" y="375" on="1"/>
        <pt x="167" y="289" on="0"/>
        <pt x="230" y="116" on="0"/>
        <pt x="259" y="30" on="1"/>
        <pt x="297" y="93" on="0"/>
        <pt x="376" y="216" on="0"/>
      </contour>
    </TTGlyph>
    <TTGlyph name="x" xMin="41" yMin="0" xMax="406" yMax="375">
      <contour>
        <pt x="204" y="190" on="1"/>
        <pt x="177" y="237" on="0"/>
        <pt x="121" y="328" on="0"/>
        <pt x="94" y="375" on="1"/>
        <pt x="129" y="375" on="1"/>
        <pt x="154" y="333" on="0"/>
        <pt x="204" y="249" on="0"/>
        <pt x="228" y="207" on="1"/>
        <pt x="265" y="249" on="0"/>
        <pt x="336" y="332" on="0"/>
        <pt x="372" y="374" on="1"/>
        <pt x="406" y="374" on="1"/>
        <pt x="364" y="326" on="0"/>
        <pt x="283" y="231" on="0"/>
        <pt x="242" y="183" on="1"/>
        <pt x="270" y="137" on="0"/>
        <pt x="324" y="46" on="0"/>
        <pt x="352" y="0" on="1"/>
        <pt x="318" y="0" on="1"/>
        <pt x="293" y="42" on="0"/>
        <pt x="243" y="125" on="0"/>
        <pt x="218" y="167" on="1"/>
        <pt x="182" y="125" on="0"/>
        <pt x="111" y="42" on="0"/>
        <pt x="76" y="0" on="1"/>
        <pt x="41" y="0" on="1"/>
        <pt x="82" y="48" on="0"/>
        <pt x="162" y="142" on="0"/>
      </contour>
    </TTGlyph>
    <TTGlyph name="y" xMin="71" yMin="-250" xMax="503" yMax="375">
      <contour>
        <pt x="103" y="-250" on="1"/>
        <pt x="71" y="-250" on="1"/>
        <pt x="112" y="-188" on="0"/>
        <pt x="190" y="-65" on="0"/>
        <pt x="230" y="-3" on="1"/>
        <pt x="196" y="92" on="0"/>
        <pt x="128" y="280" on="0"/>
        <pt x="94" y="375" on="1"/>
        <pt x="125" y="375" on="1"/>
        <pt x="138" y="339" on="0"/>
        <pt x="170" y="248" on="0"/>
        <pt x="204" y="153" on="0"/>
        <pt x="236" y="62" on="0"/>
        <pt x="249" y="26" on="1"/>
        <pt x="272" y="62" on="0"/>
        <pt x="331" y="153" on="0"/>
        <pt x="391" y="248" on="0"/>
        <pt x="449" y="339" on="0"/>
        <pt x="472" y="375" on="1"/>
        <pt x="503" y="375" on="1"/>
        <pt x="403" y="218" on="0"/>
        <pt x="204" y="-93" on="0"/>
      </contour>
    </TTGlyph>
    <TTGlyph name="yacute" xMin="71" yMin="-250" xMax="503" yMax="612">
      <component glyphName="y" x="0" y="0" flags="0x4"/>
      <component glyphName="acute" x="205" y="0" flags="0x4"/>
    </TTGlyph>
    <TTGlyph name="ydieresis" xMin="71" yMin="-250" xMax="503" yMax="531">
      <component glyphName="y" x="0" y="0" flags="0x4"/>
      <component glyphName="dieresis" x="128" y="0" flags="0x4"/>
    </TTGlyph>
    <TTGlyph name="yen" xMin="90" yMin="0" xMax="643" yMax="700">
      <contour>
        <pt x="451" y="127" on="1"/>
        <pt x="447" y="100" on="1"/>
        <pt x="298" y="100" on="1"/>
        <pt x="284" y="0" on="1"/>
        <pt x="252" y="0" on="1"/>
        <pt x="266" y="100" on="1"/>
        <pt x="114" y="100" on="1"/>
        <pt x="118" y="127" on="1"/>
        <pt x="270" y="127" on="1"/>
        <pt x="289" y="263" on="1"/>
        <pt x="137" y="263" on="1"/>
        <pt x="141" y="290" on="1"/>
        <pt x="277" y="290" on="1"/>
        <pt x="229" y="393" on="0"/>
        <pt x="137" y="597" on="0"/>
        <pt x="90" y="700" on="1"/>
        <pt x="124" y="700" on="1"/>
        <pt x="168" y="603" on="0"/>
        <pt x="256" y="411" on="0"/>
        <pt x="300" y="314" on="1"/>
        <pt x="309" y="287" on="1"/>
        <pt x="310" y="287" on="1"/>
        <pt x="314" y="294" on="0"/>
        <pt x="320" y="307" on="0"/>
        <pt x="324" y="314" on="1"/>
        <pt x="396" y="411" on="0"/>
        <pt x="537" y="603" on="0"/>
        <pt x="609" y="700" on="1"/>
        <pt x="643" y="700" on="1"/>
        <pt x="567" y="597" on="0"/>
        <pt x="416" y="393" on="0"/>
        <pt x="340" y="290" on="1"/>
        <pt x="474" y="290" on="1"/>
        <pt x="470" y="263" on="1"/>
        <pt x="321" y="263" on="1"/>
        <pt x="302" y="127" on="1"/>
      </contour>
    </TTGlyph>
    <TTGlyph name="z" xMin="42" yMin="0" xMax="436" yMax="410">
      <contour>
        <pt x="174" y="375" on="1"/>
        <pt x="436" y="375" on="1"/>
        <pt x="432" y="348" on="1"/>
        <pt x="342" y="267" on="0"/>
        <pt x="174" y="108" on="0"/>
        <pt x="83" y="27" on="1"/>
        <pt x="405" y="27" on="1"/>
        <pt x="402" y="0" on="1"/>
        <pt x="42" y="0" on="1"/>
        <pt x="45" y="27" on="1"/>
        <pt x="136" y="108" on="0"/>
        <pt x="304" y="267" on="0"/>
        <pt x="394" y="348" on="1"/>
        <pt x="174" y="348" on="1"/>
        <pt x="143" y="348" on="0"/>
        <pt x="114" y="368" on="0"/>
        <pt x="118" y="397" on="1"/>
        <pt x="120" y="410" on="1"/>
        <pt x="149" y="410" on="1"/>
        <pt x="147" y="398" on="1"/>
        <pt x="146" y="387" on="0"/>
        <pt x="157" y="375" on="0"/>
      </contour>
    </TTGlyph>
    <TTGlyph name="zero" xMin="26" yMin="-7" xMax="580" yMax="658">
      <contour>
        <pt x="36" y="327" on="1"/>
        <pt x="44" y="380" on="0"/>
        <pt x="91" y="497" on="0"/>
        <pt x="171" y="595" on="0"/>
        <pt x="282" y="658" on="0"/>
        <pt x="354" y="658" on="1"/>
        <pt x="424" y="658" on="0"/>
        <pt x="516" y="593" on="0"/>
        <pt x="567" y="495" on="0"/>
        <pt x="580" y="378" on="0"/>
        <pt x="572" y="324" on="1"/>
        <pt x="562" y="253" on="0"/>
        <pt x="501" y="132" on="0"/>
        <pt x="414" y="43" on="0"/>
        <pt x="308" y="-7" on="0"/>
        <pt x="254" y="-7" on="1"/>
        <pt x="200" y="-7" on="0"/>
        <pt x="111" y="45" on="0"/>
        <pt x="51" y="134" on="0"/>
        <pt x="26" y="256" on="0"/>
      </contour>
      <contour>
        <pt x="65" y="328" on="1"/>
        <pt x="55" y="259" on="0"/>
        <pt x="79" y="146" on="0"/>
        <pt x="134" y="65" on="0"/>
        <pt x="214" y="20" on="0"/>
        <pt x="260" y="20" on="1"/>
        <pt x="306" y="20" on="0"/>
        <pt x="399" y="63" on="0"/>
        <pt x="477" y="143" on="0"/>
        <pt x="534" y="255" on="0"/>
        <pt x="544" y="323" on="1"/>
        <pt x="554" y="389" on="0"/>
        <pt x="535" y="501" on="0"/>
        <pt x="484" y="584" on="0"/>
        <pt x="402" y="631" on="0"/>
        <pt x="349" y="631" on="1"/>
        <pt x="296" y="631" on="0"/>
        <pt x="201" y="586" on="0"/>
        <pt x="126" y="505" on="0"/>
        <pt x="74" y="394" on="0"/>
      </contour>
    </TTGlyph>
</ttFont>
